<svg width="64" height="64" viewBox="0 0 64 64" fill="none" xmlns="http://www.w3.org/2000/svg">
<circle cx="32" cy="32" r="32" fill="#CDF1FE"/>
<g clip-path="url(#clip0)">
<path d="M39.25 23.25C39.2495 21.7201 38.765 20.2295 37.8659 18.9917C36.9668 17.7539 35.6991 16.8322 34.2443 16.3586C32.7896 15.885 31.2223 15.8837 29.7667 16.355C28.3112 16.8262 27.0421 17.7459 26.141 18.9823C25.2399 20.2187 24.753 21.7084 24.75 23.2383C24.747 24.7683 25.2281 26.2599 26.1244 27.4998C27.0207 28.7397 28.2862 29.6642 29.7399 30.1412C31.1936 30.6181 32.7609 30.6229 34.2175 30.155C35.6795 29.6853 36.9546 28.7636 37.859 27.5226C38.7635 26.2817 39.2505 24.7856 39.25 23.25ZM25.75 23.25C25.75 22.0139 26.1166 20.8055 26.8033 19.7777C27.4901 18.7499 28.4662 17.9488 29.6082 17.4757C30.7503 17.0027 32.0069 16.8789 33.2193 17.1201C34.4317 17.3612 35.5453 17.9565 36.4194 18.8306C37.2935 19.7047 37.8888 20.8183 38.1299 22.0307C38.3711 23.2431 38.2473 24.4997 37.7742 25.6418C37.3012 26.7838 36.5001 27.7599 35.4723 28.4467C34.4445 29.1334 33.2361 29.5 32 29.5C30.3424 29.5 28.7527 28.8415 27.5806 27.6694C26.4085 26.4973 25.75 24.9076 25.75 23.25ZM31.5825 40.835H29.4725C29.5646 40.4703 29.6141 40.0961 29.62 39.72C29.555 39.11 29.405 37.6825 28.29 37.17C27.9926 37.0322 27.6619 36.9825 27.3372 37.0268C27.0124 37.0711 26.7071 37.2076 26.4575 37.42C25.7875 37.9775 25.825 38.7525 25.845 39.17C25.845 39.235 25.845 39.67 25.845 39.67C25.6975 40.0375 25.0625 41.07 24.845 41.42L24.74 41.59V41C24.74 40.8674 24.6873 40.7402 24.5936 40.6464C24.4998 40.5527 24.3726 40.5 24.24 40.5H21.75C21.6174 40.5 21.4902 40.5527 21.3964 40.6464C21.3027 40.7402 21.25 40.8674 21.25 41V47.5C21.25 47.6326 21.3027 47.7598 21.3964 47.8535C21.4902 47.9473 21.6174 48 21.75 48H24.25C24.3581 47.9993 24.463 47.9636 24.5491 47.8982C24.6352 47.8329 24.6978 47.7414 24.7275 47.6375C24.8424 47.6437 24.9576 47.6437 25.0725 47.6375C25.2633 47.7745 25.4753 47.8793 25.7 47.9475C25.787 47.9725 25.877 47.9852 25.9675 47.985H30.5925C30.7675 47.9858 30.9415 47.958 31.1075 47.9025C31.4415 47.7956 31.733 47.5856 31.9401 47.3026C32.1472 47.0196 32.2592 46.6782 32.26 46.3275C32.2638 46.2567 32.2638 46.1858 32.26 46.115C32.4312 45.925 32.556 45.6979 32.6246 45.4515C32.6931 45.2051 32.7035 44.9461 32.655 44.695C32.8755 44.4083 32.995 44.0567 32.995 43.695C32.9953 43.5748 32.9827 43.455 32.9575 43.3375C33.1499 43.061 33.2521 42.7318 33.25 42.395C33.25 41.5 32.5325 40.835 31.5825 40.835ZM31.5825 43.0525H31.4175C31.5863 43.0723 31.7408 43.1568 31.8487 43.2881C31.9566 43.4194 32.0095 43.5874 31.9962 43.7568C31.983 43.9262 31.9046 44.0839 31.7776 44.1969C31.6506 44.3098 31.4848 44.3691 31.315 44.3625H31.035C31.2029 44.3757 31.3594 44.4527 31.4724 44.5776C31.5854 44.7025 31.6464 44.8658 31.6429 45.0342C31.6394 45.2026 31.5716 45.3633 31.4535 45.4833C31.3354 45.6034 31.1758 45.6738 31.0075 45.68H30.6225C30.7905 45.6935 30.9469 45.7707 31.0598 45.8958C31.1727 46.0209 31.2334 46.1844 31.2296 46.3529C31.2258 46.5214 31.1576 46.682 31.0392 46.8018C30.9207 46.9217 30.7609 46.9917 30.5925 46.9975H25.975C25.7425 46.9325 25.5725 46.7475 25.35 46.6575C25.2992 46.6408 25.2459 46.6331 25.1925 46.635C25.0451 46.6441 24.8974 46.6441 24.75 46.635V42.8375C24.75 42.8375 25.4075 42.4375 25.4275 42.3925C25.5125 42.2025 26.8525 40.165 26.8525 39.765V39.3475C26.8525 38.935 26.7425 38.47 27.1025 38.1775C27.2083 38.0859 27.3389 38.0278 27.4777 38.0104C27.6166 37.9931 27.7574 38.0173 27.8825 38.08C28.45 38.33 28.5775 39.2825 28.6325 39.83C28.6625 40.12 28.2475 41.7325 28.17 41.83H31.5825C31.9525 41.83 32.25 42.025 32.25 42.39C32.25 42.4774 32.2327 42.564 32.1991 42.6447C32.1655 42.7254 32.1162 42.7986 32.0542 42.8602C31.9921 42.9218 31.9185 42.9705 31.8376 43.0035C31.7566 43.0365 31.6699 43.0532 31.5825 43.0525ZM16.5 42.75H19.75C19.8826 42.75 20.0098 42.6973 20.1036 42.6035C20.1973 42.5098 20.25 42.3826 20.25 42.25C20.25 42.1174 20.1973 41.9902 20.1036 41.8964C20.0098 41.8027 19.8826 41.75 19.75 41.75H16.5C16.3674 41.75 16.2402 41.8027 16.1464 41.8964C16.0527 41.9902 16 42.1174 16 42.25C16 42.3826 16.0527 42.5098 16.1464 42.6035C16.2402 42.6973 16.3674 42.75 16.5 42.75ZM16.5 46.75H19.75C19.8826 46.75 20.0098 46.6973 20.1036 46.6035C20.1973 46.5098 20.25 46.3826 20.25 46.25C20.25 46.1174 20.1973 45.9902 20.1036 45.8964C20.0098 45.8027 19.8826 45.75 19.75 45.75H16.5C16.3674 45.75 16.2402 45.8027 16.1464 45.8964C16.0527 45.9902 16 46.1174 16 46.25C16 46.3826 16.0527 46.5098 16.1464 46.6035C16.2402 46.6973 16.3674 46.75 16.5 46.75ZM19.75 43.75H18.5C18.3674 43.75 18.2402 43.8027 18.1464 43.8964C18.0527 43.9902 18 44.1174 18 44.25C18 44.3826 18.0527 44.5098 18.1464 44.6035C18.2402 44.6973 18.3674 44.75 18.5 44.75H19.75C19.8826 44.75 20.0098 44.6973 20.1036 44.6035C20.1973 44.5098 20.25 44.3826 20.25 44.25C20.25 44.1174 20.1973 43.9902 20.1036 43.8964C20.0098 43.8027 19.8826 43.75 19.75 43.75Z" fill="#036E96"/>
<path d="M32 31.5C31.7775 31.5 31.5575 31.5 31.3375 31.47L30.3375 38.1925C30.4833 38.6557 30.5773 39.1336 30.6175 39.6175C30.6217 39.6899 30.6217 39.7626 30.6175 39.835H31.5775C32.945 39.835 34.0075 40.725 34.2075 41.965L32.7325 31.465C32.5 31.4875 32.25 31.5 32 31.5ZM25.82 36.6375C26.2681 36.2586 26.8268 36.035 27.4125 36H27.5425C27.9444 35.9972 28.3421 36.0825 28.7075 36.25C29.012 36.3894 29.2889 36.5825 29.525 36.82L30.3475 31.32C28.9717 31.0409 27.6902 30.4144 26.625 29.5H26.5C22.095 29.5 18.5 33.1625 18.5 37.665V39.5H24.25C24.4258 39.5 24.6002 39.5313 24.765 39.5925C24.7975 39.5325 24.8275 39.4775 24.8525 39.4275V39.3475C24.8525 39.3 24.8525 39.255 24.8525 39.2075C24.825 38.75 24.765 37.5175 25.82 36.6375Z" fill="#036E96"/>
<path d="M39.25 34.9873L38.765 36.0173L37.625 36.1923L38.4525 37.0373L38.2625 38.1923L39.25 37.6498L40.2375 38.1923L40.0475 37.0373L40.875 36.1923L39.735 36.0173L39.25 34.9873Z" fill="#036E96"/>
<path d="M45.4999 46.32V37.665C45.4999 33.1625 41.9049 29.5 37.4999 29.5H37.3749C37.2082 29.645 37.0332 29.7842 36.8499 29.9175C35.9201 30.5967 34.858 31.0729 33.7324 31.315L35.2324 42.095C35.2439 42.1785 35.2341 42.2635 35.2039 42.3422C35.1737 42.4208 35.1242 42.4906 35.0599 42.545L34.0224 43.4275C34.0049 43.47 33.9874 43.5175 33.9674 43.56C33.9474 43.6025 33.9674 43.655 33.9674 43.705C33.9685 44.1408 33.862 44.5702 33.6574 44.955V45.025C33.658 45.5299 33.514 46.0244 33.2424 46.45C33.2232 47.0148 33.0224 47.5583 32.6699 48H43.8449C44.2869 47.996 44.7093 47.817 45.0196 47.5021C45.3298 47.1871 45.5025 46.7621 45.4999 46.32ZM42.0299 36.44L41.1149 37.375L41.3324 38.6975C41.3535 38.7999 41.3517 38.9057 41.327 39.0072C41.3024 39.1088 41.2555 39.2037 41.1899 39.285C41.1318 39.3528 41.0597 39.4071 40.9785 39.4443C40.8974 39.4814 40.8091 39.5004 40.7199 39.5C40.5916 39.4984 40.466 39.464 40.3549 39.4L39.2499 38.79L38.1424 39.4C38.0118 39.4805 37.8574 39.5131 37.7054 39.4921C37.5535 39.4711 37.4137 39.3979 37.3099 39.285C37.2442 39.2037 37.1973 39.1088 37.1727 39.0072C37.1481 38.9057 37.1462 38.7999 37.1674 38.6975L37.3849 37.375L36.4699 36.44C36.376 36.3527 36.3087 36.2407 36.2755 36.1169C36.2424 35.9931 36.2447 35.8625 36.2824 35.74C36.3248 35.6209 36.4002 35.5163 36.4998 35.4384C36.5994 35.3606 36.7191 35.3125 36.8449 35.3L38.0949 35.11L38.6549 33.9175C38.7004 33.7944 38.7826 33.6883 38.8903 33.6133C38.998 33.5383 39.1261 33.4982 39.2574 33.4982C39.3886 33.4982 39.5167 33.5383 39.6244 33.6133C39.7321 33.6883 39.8143 33.7944 39.8599 33.9175L40.4199 35.11L41.6699 35.3C41.7942 35.316 41.9114 35.3668 42.0083 35.4463C42.1051 35.5259 42.1776 35.6312 42.2174 35.75C42.253 35.8711 42.2543 35.9997 42.2212 36.1215C42.1881 36.2433 42.1219 36.3536 42.0299 36.44Z" fill="#036E96"/>
</g>
<defs>
<clipPath id="clip0">
<rect width="32" height="32" fill="white" transform="translate(16 16)"/>
</clipPath>
</defs>
</svg>
