<svg width="64" height="64" viewBox="0 0 64 64" fill="none" xmlns="http://www.w3.org/2000/svg">
<circle cx="32" cy="32" r="32" fill="#CDF1FE"/>
<path d="M25.7377 25.4811C25.7382 25.6467 25.8042 25.8054 25.9213 25.9225C26.0384 26.0396 26.1971 26.1056 26.3627 26.1061H27.0502C27.2616 26.6633 27.5874 27.1699 28.0064 27.5936C28.5811 28.1689 29.3106 28.565 30.1061 28.7336C30.9016 28.9022 31.7289 28.8362 32.4877 28.5436C32.6418 28.484 32.766 28.3655 32.8328 28.2143C32.8996 28.0631 32.9036 27.8915 32.8439 27.7374C32.7842 27.5832 32.6658 27.4591 32.5146 27.3923C32.3634 27.3255 32.1918 27.3215 32.0377 27.3811C31.5041 27.5859 30.9227 27.6317 30.3637 27.513C29.8046 27.3944 29.292 27.1163 28.8877 26.7124C28.7089 26.5326 28.5535 26.331 28.4252 26.1124H31.2627C31.4284 26.1124 31.5874 26.0465 31.7046 25.9293C31.8218 25.8121 31.8877 25.6531 31.8877 25.4874C31.8877 25.3216 31.8218 25.1626 31.7046 25.0454C31.5874 24.9282 31.4284 24.8624 31.2627 24.8624H28.0377C28.0293 24.748 28.0273 24.6332 28.0314 24.5186H31.6314C31.7972 24.5186 31.9561 24.4528 32.0734 24.3356C32.1906 24.2184 32.2564 24.0594 32.2564 23.8936C32.2564 23.7279 32.1906 23.5689 32.0734 23.4517C31.9561 23.3345 31.7972 23.2686 31.6314 23.2686H28.3564C28.6915 22.6245 29.252 22.1263 29.9311 21.8692C30.6101 21.6121 31.36 21.6142 32.0377 21.8749C32.1918 21.9346 32.3634 21.9305 32.5146 21.8637C32.6658 21.7969 32.7842 21.6728 32.8439 21.5186C32.9036 21.3645 32.8996 21.1929 32.8328 21.0417C32.766 20.8905 32.6418 20.7721 32.4877 20.7124C31.7288 20.4209 30.9017 20.3555 30.1064 20.5241C29.3112 20.6927 28.5818 21.088 28.0064 21.6624C27.554 22.1138 27.2118 22.6634 27.0064 23.2686H26.3627C26.1969 23.2686 26.0379 23.3345 25.9207 23.4517C25.8035 23.5689 25.7377 23.7279 25.7377 23.8936C25.7377 24.0594 25.8035 24.2184 25.9207 24.3356C26.0379 24.4528 26.1969 24.5186 26.3627 24.5186H26.7814C26.7814 24.6311 26.7814 24.7499 26.7877 24.8624H26.3627C26.2808 24.8614 26.1996 24.8767 26.1238 24.9073C26.0479 24.938 25.9789 24.9835 25.9208 25.041C25.8626 25.0986 25.8165 25.1671 25.785 25.2427C25.7536 25.3183 25.7375 25.3993 25.7377 25.4811Z" fill="#036E96"/>
<path d="M42.5938 26.1062V20.075C42.5931 19.384 42.3183 18.7214 41.8297 18.2328C41.3411 17.7442 40.6785 17.4694 39.9875 17.4688H23.7063C22.325 17.4688 21.1937 18.5813 21.1937 19.95L21.1 35.7062H18.5938C18.4281 35.7067 18.2694 35.7727 18.1523 35.8898C18.0352 36.0069 17.9692 36.1656 17.9688 36.3312V39.0375C17.9706 39.8837 18.2982 40.6966 18.8836 41.3076C19.469 41.9186 20.2672 42.2807 21.1125 42.3188V42.325H35.1625V42.3188C35.225 42.325 35.2875 42.325 35.35 42.325C36.2216 42.3239 37.0571 41.9772 37.6734 41.3609C38.2897 40.7446 38.6364 39.9091 38.6375 39.0375V26.725H41.9688C42.0507 26.7265 42.1322 26.7116 42.2083 26.6811C42.2844 26.6507 42.3536 26.6052 42.4119 26.5476C42.4701 26.4899 42.5162 26.4211 42.5475 26.3453C42.5787 26.2695 42.5944 26.1882 42.5938 26.1062ZM19.2188 39.0438V36.9625H32.0625V39.0438C32.0633 39.7839 32.3144 40.5019 32.775 41.0812H21.2562C20.7159 41.0812 20.1977 40.8665 19.8156 40.4844C19.4335 40.1023 19.2188 39.5841 19.2188 39.0438ZM37.3875 20.075V39.0438C37.3875 39.5841 37.1728 40.1024 36.7907 40.4845C36.4086 40.8666 35.8904 41.0812 35.35 41.0812C34.8096 41.0812 34.2914 40.8666 33.9093 40.4845C33.5272 40.1024 33.3125 39.5841 33.3125 39.0438V36.3375C33.312 36.1719 33.246 36.0132 33.1289 35.8961C33.0118 35.779 32.8531 35.713 32.6875 35.7125H22.3562L22.45 19.9562C22.4516 19.7921 22.4856 19.6299 22.5499 19.4788C22.6142 19.3278 22.7077 19.1909 22.8249 19.076C22.9422 18.9611 23.0809 18.8704 23.2332 18.8091C23.3855 18.7478 23.5483 18.7171 23.7125 18.7188H37.775C37.5205 19.1252 37.3861 19.5954 37.3875 20.075ZM41.3438 25.4812H38.6375V20.075C38.6375 19.7153 38.7804 19.3703 39.0347 19.116C39.2891 18.8616 39.6341 18.7188 39.9937 18.7188C40.3534 18.7188 40.6984 18.8616 40.9528 19.116C41.2071 19.3703 41.35 19.7153 41.35 20.075V25.4812H41.3438Z" fill="#036E96"/>
<path d="M34.7126 30.6624H24.7438C24.5781 30.6624 24.4191 30.7283 24.3019 30.8455C24.1847 30.9627 24.1188 31.1216 24.1188 31.2874C24.1188 31.4532 24.1847 31.6121 24.3019 31.7293C24.4191 31.8466 24.5781 31.9124 24.7438 31.9124H34.7188C34.8846 31.9116 35.0432 31.8449 35.1599 31.7271C35.2765 31.6093 35.3415 31.45 35.3407 31.2843C35.3399 31.1185 35.2732 30.9599 35.1554 30.8433C35.0376 30.7266 34.8783 30.6616 34.7126 30.6624ZM30.7751 33.2187H24.7438C24.5781 33.2187 24.4191 33.2845 24.3019 33.4017C24.1847 33.5189 24.1188 33.6779 24.1188 33.8437C24.1188 34.0094 24.1847 34.1684 24.3019 34.2856C24.4191 34.4028 24.5781 34.4687 24.7438 34.4687H30.7751C30.9408 34.4687 31.0998 34.4028 31.217 34.2856C31.3342 34.1684 31.4001 34.0094 31.4001 33.8437C31.4001 33.6779 31.3342 33.5189 31.217 33.4017C31.0998 33.2845 30.9408 33.2187 30.7751 33.2187ZM43.5938 28.7437C42.9476 28.7445 42.3281 29.0016 41.8712 29.4585C41.4142 29.9154 41.1572 30.5349 41.1563 31.1812V42.0124C41.1553 42.0355 41.1574 42.0586 41.1626 42.0812V42.0937C41.1626 42.1124 41.1688 42.1249 41.1688 42.1437C41.1684 42.147 41.1688 42.1505 41.1698 42.1537C41.1709 42.157 41.1727 42.1599 41.1751 42.1624C41.1784 42.1772 41.1826 42.1918 41.1876 42.2062C41.1876 42.2124 41.1938 42.2187 41.1938 42.2249C41.2001 42.2374 41.2063 42.2562 41.2126 42.2687C41.2126 42.2703 41.2132 42.2719 41.2144 42.2731C41.2156 42.2742 41.2172 42.2749 41.2188 42.2749L43.0626 46.1687C43.1135 46.2748 43.1932 46.3646 43.2927 46.4276C43.3921 46.4906 43.5073 46.5243 43.6251 46.5249H43.6313C43.75 46.5247 43.866 46.4904 43.9658 46.4262C44.0655 46.3619 44.1446 46.2703 44.1938 46.1624L45.9751 42.2687V42.2624C45.9813 42.2499 45.9876 42.2312 45.9938 42.2187C45.9945 42.2139 45.9967 42.2095 46.0001 42.2062C46.0072 42.1904 46.0114 42.1734 46.0126 42.1562C46.0126 42.1499 46.0126 42.1499 46.0188 42.1437C46.024 42.1254 46.0261 42.1064 46.0251 42.0874V42.0749C46.0251 42.0562 46.0313 42.0312 46.0313 42.0062V31.1812C46.0305 30.5349 45.7734 29.9154 45.3165 29.4585C44.8596 29.0016 44.24 28.7445 43.5938 28.7437ZM42.4063 41.3874V33.1187H44.7813V41.3874H42.4063ZM43.5938 29.9937C43.7498 29.9936 43.9042 30.0243 44.0483 30.0839C44.1925 30.1436 44.3234 30.231 44.4337 30.3413C44.544 30.4516 44.6314 30.5825 44.6911 30.7266C44.7507 30.8707 44.7814 31.0252 44.7813 31.1812V31.8687H42.4063V31.1812C42.4063 31.0252 42.4369 30.8707 42.4966 30.7266C42.5562 30.5825 42.6437 30.4516 42.754 30.3413C42.8643 30.231 42.9952 30.1436 43.1393 30.0839C43.2834 30.0243 43.4379 29.9936 43.5938 29.9937ZM43.6188 44.4187L42.7751 42.6312H44.4376L43.6188 44.4187Z" fill="#036E96"/>
</svg>
