<svg width="64" height="64" viewBox="0 0 64 64" fill="none" xmlns="http://www.w3.org/2000/svg">
<circle cx="32" cy="32" r="32" fill="#CDF1FE"/>
<g clip-path="url(#clip0)">
<path d="M44.7812 21.2124L32.8375 16.2312C32.35 16.0187 31.7875 16.0187 31.2937 16.2312L19.3563 21.2061C18.6125 21.5186 18.125 22.2374 18.125 23.0436V34.0874C18.125 41.7686 24.3812 48.0124 32.0625 48.0124C39.7437 48.0124 46 41.7624 46 34.0874V23.0436C46 22.2436 45.5187 21.5249 44.7812 21.2124ZM43.5 34.0936C43.5 40.3936 38.3625 45.5186 32.0625 45.5186C25.7625 45.5186 20.625 40.3936 20.625 34.0936V23.3874L32.0625 18.6187L43.5 23.3874V34.0936Z" fill="#036E96"/>
<path d="M27.3877 31.0627C26.9564 30.5252 26.1689 30.4377 25.6314 30.8689C25.0939 31.3002 25.0064 32.0877 25.4377 32.6252L28.2377 36.1189C28.2439 36.1252 28.2502 36.1314 28.2502 36.1377C28.2564 36.1502 28.2689 36.1564 28.2752 36.1689C28.2814 36.1752 28.2877 36.1877 28.3002 36.1939L28.3314 36.2252C28.3377 36.2314 28.3502 36.2377 28.3564 36.2502L28.3877 36.2814L28.4127 36.3064C28.4252 36.3127 28.4314 36.3251 28.4439 36.3314C28.4627 36.3439 28.4814 36.3627 28.5002 36.3752C28.5064 36.3752 28.5064 36.3814 28.5127 36.3814C28.5314 36.3939 28.5502 36.4064 28.5627 36.4127C28.5689 36.4189 28.5752 36.4189 28.5814 36.4251C28.6002 36.4314 28.6127 36.4439 28.6314 36.4502C28.6377 36.4564 28.6439 36.4564 28.6502 36.4627C28.6627 36.4689 28.6814 36.4752 28.6939 36.4876C28.7002 36.4939 28.7064 36.4939 28.7127 36.5002C28.7252 36.5064 28.7439 36.5126 28.7564 36.5189C28.7627 36.5189 28.7689 36.5252 28.7814 36.5252C28.7939 36.5314 28.8127 36.5377 28.8252 36.5377C28.8314 36.5377 28.8439 36.5439 28.8502 36.5439C28.8627 36.5502 28.8814 36.5501 28.8939 36.5564C28.9002 36.5564 28.9127 36.5627 28.9189 36.5627C28.9314 36.5689 28.9502 36.5689 28.9627 36.5752C28.9689 36.5752 28.9814 36.5814 28.9877 36.5814C29.0002 36.5814 29.0189 36.5877 29.0314 36.5877C29.0439 36.5877 29.0502 36.5877 29.0627 36.5939C29.0752 36.5939 29.0877 36.5939 29.1064 36.6002H29.2064C29.2377 36.6002 29.2689 36.6002 29.3064 36.5939H29.3314C29.3564 36.5939 29.3814 36.5877 29.4064 36.5877C29.4189 36.5877 29.4252 36.5814 29.4377 36.5814C29.4564 36.5751 29.4814 36.5752 29.5002 36.5689C29.5127 36.5689 29.5252 36.5627 29.5377 36.5564L29.5939 36.5377C29.6064 36.5314 29.6189 36.5314 29.6314 36.5252L29.6877 36.5064L29.7252 36.4876C29.7439 36.4814 29.7627 36.4689 29.7752 36.4627L29.8127 36.4439C29.8439 36.4252 29.8689 36.4127 29.9002 36.3939L38.9064 30.4064C39.4814 30.0252 39.6377 29.2502 39.2564 28.6752C38.8752 28.1002 38.1002 27.9439 37.5252 28.3252L29.4689 33.6814L27.3877 31.0627Z" fill="#036E96"/>
</g>
<defs>
<clipPath id="clip0">
<rect width="32" height="32" fill="white" transform="translate(16 16)"/>
</clipPath>
</defs>
</svg>
