<svg width="215" height="426" viewBox="0 0 215 426" fill="none" xmlns="http://www.w3.org/2000/svg">
<path d="M73.31 1.88C71.69 1.88 70.37 0.560002 70.37 -1.06C70.37 -2.68 71.69 -4 73.31 -4C74.93 -4 76.25 -2.68 76.25 -1.06C76.25 0.570003 74.93 1.88 73.31 1.88ZM76.25 16.53C76.25 14.91 74.93 13.59 73.31 13.59C71.69 13.59 70.37 14.91 70.37 16.53C70.37 18.15 71.69 19.47 73.31 19.47C74.93 19.47 76.25 18.16 76.25 16.53ZM76.25 34.12C76.25 32.5 74.93 31.18 73.31 31.18C71.69 31.18 70.37 32.5 70.37 34.12C70.37 35.74 71.69 37.06 73.31 37.06C74.93 37.07 76.25 35.75 76.25 34.12ZM76.25 51.72C76.25 50.1 74.93 48.78 73.31 48.78C71.69 48.78 70.37 50.1 70.37 51.72C70.37 53.34 71.69 54.66 73.31 54.66C74.93 54.66 76.25 53.34 76.25 51.72ZM76.25 69.31C76.25 67.69 74.93 66.37 73.31 66.37C71.69 66.37 70.37 67.69 70.37 69.31C70.37 70.93 71.69 72.25 73.31 72.25C74.93 72.25 76.25 70.93 76.25 69.31ZM58.66 -1.06C58.66 -2.68 57.34 -4 55.72 -4C54.1 -4 52.78 -2.68 52.78 -1.06C52.78 0.560002 54.1 1.88 55.72 1.88C57.34 1.88 58.66 0.570003 58.66 -1.06ZM58.66 16.53C58.66 14.91 57.34 13.59 55.72 13.59C54.1 13.59 52.78 14.91 52.78 16.53C52.78 18.15 54.1 19.47 55.72 19.47C57.34 19.47 58.66 18.16 58.66 16.53ZM58.66 34.12C58.66 32.5 57.34 31.18 55.72 31.18C54.1 31.18 52.78 32.5 52.78 34.12C52.78 35.74 54.1 37.06 55.72 37.06C57.34 37.07 58.66 35.75 58.66 34.12ZM58.66 51.72C58.66 50.1 57.34 48.78 55.72 48.78C54.1 48.78 52.78 50.1 52.78 51.72C52.78 53.34 54.1 54.66 55.72 54.66C57.34 54.66 58.66 53.34 58.66 51.72ZM58.66 69.31C58.66 67.69 57.34 66.37 55.72 66.37C54.1 66.37 52.78 67.69 52.78 69.31C52.78 70.93 54.1 72.25 55.72 72.25C57.34 72.25 58.66 70.93 58.66 69.31ZM41.06 -1.06C41.06 -2.68 39.74 -4 38.12 -4C36.5 -4 35.18 -2.68 35.18 -1.06C35.18 0.560002 36.5 1.88 38.12 1.88C39.75 1.88 41.06 0.570003 41.06 -1.06ZM41.06 16.53C41.06 14.91 39.74 13.59 38.12 13.59C36.5 13.59 35.18 14.91 35.18 16.53C35.18 18.15 36.5 19.47 38.12 19.47C39.75 19.47 41.06 18.16 41.06 16.53ZM41.06 34.12C41.06 32.5 39.74 31.18 38.12 31.18C36.5 31.18 35.18 32.5 35.18 34.12C35.18 35.74 36.5 37.06 38.12 37.06C39.75 37.07 41.06 35.75 41.06 34.12ZM41.06 51.72C41.06 50.1 39.74 48.78 38.12 48.78C36.5 48.78 35.18 50.1 35.18 51.72C35.18 53.34 36.5 54.66 38.12 54.66C39.75 54.66 41.06 53.34 41.06 51.72ZM41.06 69.31C41.06 67.69 39.74 66.37 38.12 66.37C36.5 66.37 35.18 67.69 35.18 69.31C35.18 70.93 36.5 72.25 38.12 72.25C39.75 72.25 41.06 70.93 41.06 69.31ZM23.47 -1.06C23.47 -2.68 22.15 -4 20.53 -4C18.91 -4 17.59 -2.68 17.59 -1.06C17.59 0.560002 18.91 1.88 20.53 1.88C22.16 1.88 23.47 0.570003 23.47 -1.06ZM23.47 16.53C23.47 14.91 22.15 13.59 20.53 13.59C18.91 13.59 17.59 14.91 17.59 16.53C17.59 18.15 18.91 19.47 20.53 19.47C22.16 19.47 23.47 18.16 23.47 16.53ZM23.47 34.12C23.47 32.5 22.15 31.18 20.53 31.18C18.91 31.18 17.59 32.5 17.59 34.12C17.59 35.74 18.91 37.06 20.53 37.06C22.16 37.07 23.47 35.75 23.47 34.12ZM23.47 51.72C23.47 50.1 22.15 48.78 20.53 48.78C18.91 48.78 17.59 50.1 17.59 51.72C17.59 53.34 18.91 54.66 20.53 54.66C22.16 54.66 23.47 53.34 23.47 51.72ZM23.47 69.31C23.47 67.69 22.15 66.37 20.53 66.37C18.91 66.37 17.59 67.69 17.59 69.31C17.59 70.93 18.91 72.25 20.53 72.25C22.16 72.25 23.47 70.93 23.47 69.31ZM5.88 -1.06C5.88 -2.68 4.56 -4 2.94 -4C1.32 -4 0 -2.68 0 -1.06C0 0.560002 1.32 1.88 2.94 1.88C4.56 1.88 5.88 0.570003 5.88 -1.06ZM5.88 16.53C5.88 14.91 4.56 13.59 2.94 13.59C1.32 13.59 0 14.91 0 16.53C0 18.15 1.32 19.47 2.94 19.47C4.56 19.47 5.88 18.16 5.88 16.53ZM5.88 34.12C5.88 32.5 4.56 31.18 2.94 31.18C1.32 31.18 0 32.5 0 34.12C0 35.74 1.32 37.06 2.94 37.06C4.56 37.06 5.88 35.75 5.88 34.12ZM5.88 51.72C5.88 50.1 4.56 48.78 2.94 48.78C1.32 48.78 0 50.1 0 51.72C0 53.34 1.32 54.66 2.94 54.66C4.56 54.66 5.88 53.34 5.88 51.72ZM5.88 69.31C5.88 67.69 4.56 66.37 2.94 66.37C1.32 66.37 0 67.69 0 69.31C0 70.93 1.32 72.25 2.94 72.25C4.56 72.25 5.88 70.93 5.88 69.31Z" fill="#FCCFDA"/>
<path d="M73.31 90.13C71.69 90.13 70.37 88.81 70.37 87.19C70.37 85.57 71.69 84.25 73.31 84.25C74.93 84.25 76.25 85.57 76.25 87.19C76.25 88.82 74.93 90.13 73.31 90.13ZM76.25 104.78C76.25 103.16 74.93 101.84 73.31 101.84C71.69 101.84 70.37 103.16 70.37 104.78C70.37 106.4 71.69 107.72 73.31 107.72C74.93 107.72 76.25 106.41 76.25 104.78ZM76.25 122.37C76.25 120.75 74.93 119.43 73.31 119.43C71.69 119.43 70.37 120.75 70.37 122.37C70.37 123.99 71.69 125.31 73.31 125.31C74.93 125.32 76.25 124 76.25 122.37ZM76.25 139.97C76.25 138.35 74.93 137.03 73.31 137.03C71.69 137.03 70.37 138.35 70.37 139.97C70.37 141.59 71.69 142.91 73.31 142.91C74.93 142.91 76.25 141.59 76.25 139.97ZM76.25 157.56C76.25 155.94 74.93 154.62 73.31 154.62C71.69 154.62 70.37 155.94 70.37 157.56C70.37 159.18 71.69 160.5 73.31 160.5C74.93 160.5 76.25 159.18 76.25 157.56ZM58.66 87.19C58.66 85.57 57.34 84.25 55.72 84.25C54.1 84.25 52.78 85.57 52.78 87.19C52.78 88.81 54.1 90.13 55.72 90.13C57.34 90.13 58.66 88.82 58.66 87.19ZM58.66 104.78C58.66 103.16 57.34 101.84 55.72 101.84C54.1 101.84 52.78 103.16 52.78 104.78C52.78 106.4 54.1 107.72 55.72 107.72C57.34 107.72 58.66 106.41 58.66 104.78ZM58.66 122.37C58.66 120.75 57.34 119.43 55.72 119.43C54.1 119.43 52.78 120.75 52.78 122.37C52.78 123.99 54.1 125.31 55.72 125.31C57.34 125.32 58.66 124 58.66 122.37ZM58.66 139.97C58.66 138.35 57.34 137.03 55.72 137.03C54.1 137.03 52.78 138.35 52.78 139.97C52.78 141.59 54.1 142.91 55.72 142.91C57.34 142.91 58.66 141.59 58.66 139.97ZM58.66 157.56C58.66 155.94 57.34 154.62 55.72 154.62C54.1 154.62 52.78 155.94 52.78 157.56C52.78 159.18 54.1 160.5 55.72 160.5C57.34 160.5 58.66 159.18 58.66 157.56ZM41.06 87.19C41.06 85.57 39.74 84.25 38.12 84.25C36.5 84.25 35.18 85.57 35.18 87.19C35.18 88.81 36.5 90.13 38.12 90.13C39.75 90.13 41.06 88.82 41.06 87.19ZM41.06 104.78C41.06 103.16 39.74 101.84 38.12 101.84C36.5 101.84 35.18 103.16 35.18 104.78C35.18 106.4 36.5 107.72 38.12 107.72C39.75 107.72 41.06 106.41 41.06 104.78ZM41.06 122.37C41.06 120.75 39.74 119.43 38.12 119.43C36.5 119.43 35.18 120.75 35.18 122.37C35.18 123.99 36.5 125.31 38.12 125.31C39.75 125.32 41.06 124 41.06 122.37ZM41.06 139.97C41.06 138.35 39.74 137.03 38.12 137.03C36.5 137.03 35.18 138.35 35.18 139.97C35.18 141.59 36.5 142.91 38.12 142.91C39.75 142.91 41.06 141.59 41.06 139.97ZM41.06 157.56C41.06 155.94 39.74 154.62 38.12 154.62C36.5 154.62 35.18 155.94 35.18 157.56C35.18 159.18 36.5 160.5 38.12 160.5C39.75 160.5 41.06 159.18 41.06 157.56ZM23.47 87.19C23.47 85.57 22.15 84.25 20.53 84.25C18.91 84.25 17.59 85.57 17.59 87.19C17.59 88.81 18.91 90.13 20.53 90.13C22.16 90.13 23.47 88.82 23.47 87.19ZM23.47 104.78C23.47 103.16 22.15 101.84 20.53 101.84C18.91 101.84 17.59 103.16 17.59 104.78C17.59 106.4 18.91 107.72 20.53 107.72C22.16 107.72 23.47 106.41 23.47 104.78ZM23.47 122.37C23.47 120.75 22.15 119.43 20.53 119.43C18.91 119.43 17.59 120.75 17.59 122.37C17.59 123.99 18.91 125.31 20.53 125.31C22.16 125.32 23.47 124 23.47 122.37ZM23.47 139.97C23.47 138.35 22.15 137.03 20.53 137.03C18.91 137.03 17.59 138.35 17.59 139.97C17.59 141.59 18.91 142.91 20.53 142.91C22.16 142.91 23.47 141.59 23.47 139.97ZM23.47 157.56C23.47 155.94 22.15 154.62 20.53 154.62C18.91 154.62 17.59 155.94 17.59 157.56C17.59 159.18 18.91 160.5 20.53 160.5C22.16 160.5 23.47 159.18 23.47 157.56ZM5.88 87.19C5.88 85.57 4.56 84.25 2.94 84.25C1.32 84.25 0 85.57 0 87.19C0 88.81 1.32 90.13 2.94 90.13C4.56 90.13 5.88 88.82 5.88 87.19ZM5.88 104.78C5.88 103.16 4.56 101.84 2.94 101.84C1.32 101.84 0 103.16 0 104.78C0 106.4 1.32 107.72 2.94 107.72C4.56 107.72 5.88 106.41 5.88 104.78ZM5.88 122.37C5.88 120.75 4.56 119.43 2.94 119.43C1.32 119.43 0 120.75 0 122.37C0 123.99 1.32 125.31 2.94 125.31C4.56 125.31 5.88 124 5.88 122.37ZM5.88 139.97C5.88 138.35 4.56 137.03 2.94 137.03C1.32 137.03 0 138.35 0 139.97C0 141.59 1.32 142.91 2.94 142.91C4.56 142.91 5.88 141.59 5.88 139.97ZM5.88 157.56C5.88 155.94 4.56 154.62 2.94 154.62C1.32 154.62 0 155.94 0 157.56C0 159.18 1.32 160.5 2.94 160.5C4.56 160.5 5.88 159.18 5.88 157.56Z" fill="#FCCFDA"/>
<path d="M73.31 178.38C71.69 178.38 70.37 177.06 70.37 175.44C70.37 173.82 71.69 172.5 73.31 172.5C74.93 172.5 76.25 173.82 76.25 175.44C76.25 177.07 74.93 178.38 73.31 178.38ZM76.25 193.03C76.25 191.41 74.93 190.09 73.31 190.09C71.69 190.09 70.37 191.41 70.37 193.03C70.37 194.65 71.69 195.97 73.31 195.97C74.93 195.97 76.25 194.66 76.25 193.03ZM76.25 210.62C76.25 209 74.93 207.68 73.31 207.68C71.69 207.68 70.37 209 70.37 210.62C70.37 212.24 71.69 213.56 73.31 213.56C74.93 213.57 76.25 212.25 76.25 210.62ZM76.25 228.22C76.25 226.6 74.93 225.28 73.31 225.28C71.69 225.28 70.37 226.6 70.37 228.22C70.37 229.84 71.69 231.16 73.31 231.16C74.93 231.16 76.25 229.84 76.25 228.22ZM76.25 245.81C76.25 244.19 74.93 242.87 73.31 242.87C71.69 242.87 70.37 244.19 70.37 245.81C70.37 247.43 71.69 248.75 73.31 248.75C74.93 248.75 76.25 247.43 76.25 245.81ZM58.66 175.44C58.66 173.82 57.34 172.5 55.72 172.5C54.1 172.5 52.78 173.82 52.78 175.44C52.78 177.06 54.1 178.38 55.72 178.38C57.34 178.38 58.66 177.07 58.66 175.44ZM58.66 193.03C58.66 191.41 57.34 190.09 55.72 190.09C54.1 190.09 52.78 191.41 52.78 193.03C52.78 194.65 54.1 195.97 55.72 195.97C57.34 195.97 58.66 194.66 58.66 193.03ZM58.66 210.62C58.66 209 57.34 207.68 55.72 207.68C54.1 207.68 52.78 209 52.78 210.62C52.78 212.24 54.1 213.56 55.72 213.56C57.34 213.57 58.66 212.25 58.66 210.62ZM58.66 228.22C58.66 226.6 57.34 225.28 55.72 225.28C54.1 225.28 52.78 226.6 52.78 228.22C52.78 229.84 54.1 231.16 55.72 231.16C57.34 231.16 58.66 229.84 58.66 228.22ZM58.66 245.81C58.66 244.19 57.34 242.87 55.72 242.87C54.1 242.87 52.78 244.19 52.78 245.81C52.78 247.43 54.1 248.75 55.72 248.75C57.34 248.75 58.66 247.43 58.66 245.81ZM41.06 175.44C41.06 173.82 39.74 172.5 38.12 172.5C36.5 172.5 35.18 173.82 35.18 175.44C35.18 177.06 36.5 178.38 38.12 178.38C39.75 178.38 41.06 177.07 41.06 175.44ZM41.06 193.03C41.06 191.41 39.74 190.09 38.12 190.09C36.5 190.09 35.18 191.41 35.18 193.03C35.18 194.65 36.5 195.97 38.12 195.97C39.75 195.97 41.06 194.66 41.06 193.03ZM41.06 210.62C41.06 209 39.74 207.68 38.12 207.68C36.5 207.68 35.18 209 35.18 210.62C35.18 212.24 36.5 213.56 38.12 213.56C39.75 213.57 41.06 212.25 41.06 210.62ZM41.06 228.22C41.06 226.6 39.74 225.28 38.12 225.28C36.5 225.28 35.18 226.6 35.18 228.22C35.18 229.84 36.5 231.16 38.12 231.16C39.75 231.16 41.06 229.84 41.06 228.22ZM41.06 245.81C41.06 244.19 39.74 242.87 38.12 242.87C36.5 242.87 35.18 244.19 35.18 245.81C35.18 247.43 36.5 248.75 38.12 248.75C39.75 248.75 41.06 247.43 41.06 245.81ZM23.47 175.44C23.47 173.82 22.15 172.5 20.53 172.5C18.91 172.5 17.59 173.82 17.59 175.44C17.59 177.06 18.91 178.38 20.53 178.38C22.16 178.38 23.47 177.07 23.47 175.44ZM23.47 193.03C23.47 191.41 22.15 190.09 20.53 190.09C18.91 190.09 17.59 191.41 17.59 193.03C17.59 194.65 18.91 195.97 20.53 195.97C22.16 195.97 23.47 194.66 23.47 193.03ZM23.47 210.62C23.47 209 22.15 207.68 20.53 207.68C18.91 207.68 17.59 209 17.59 210.62C17.59 212.24 18.91 213.56 20.53 213.56C22.16 213.57 23.47 212.25 23.47 210.62ZM23.47 228.22C23.47 226.6 22.15 225.28 20.53 225.28C18.91 225.28 17.59 226.6 17.59 228.22C17.59 229.84 18.91 231.16 20.53 231.16C22.16 231.16 23.47 229.84 23.47 228.22ZM23.47 245.81C23.47 244.19 22.15 242.87 20.53 242.87C18.91 242.87 17.59 244.19 17.59 245.81C17.59 247.43 18.91 248.75 20.53 248.75C22.16 248.75 23.47 247.43 23.47 245.81ZM5.88 175.44C5.88 173.82 4.56 172.5 2.94 172.5C1.32 172.5 0 173.82 0 175.44C0 177.06 1.32 178.38 2.94 178.38C4.56 178.38 5.88 177.07 5.88 175.44ZM5.88 193.03C5.88 191.41 4.56 190.09 2.94 190.09C1.32 190.09 0 191.41 0 193.03C0 194.65 1.32 195.97 2.94 195.97C4.56 195.97 5.88 194.66 5.88 193.03ZM5.88 210.62C5.88 209 4.56 207.68 2.94 207.68C1.32 207.68 0 209 0 210.62C0 212.24 1.32 213.56 2.94 213.56C4.56 213.56 5.88 212.25 5.88 210.62ZM5.88 228.22C5.88 226.6 4.56 225.28 2.94 225.28C1.32 225.28 0 226.6 0 228.22C0 229.84 1.32 231.16 2.94 231.16C4.56 231.16 5.88 229.84 5.88 228.22ZM5.88 245.81C5.88 244.19 4.56 242.87 2.94 242.87C1.32 242.87 0 244.19 0 245.81C0 247.43 1.32 248.75 2.94 248.75C4.56 248.75 5.88 247.43 5.88 245.81Z" fill="#FCCFDA"/>
<path d="M73.31 266.63C71.69 266.63 70.37 265.31 70.37 263.69C70.37 262.07 71.69 260.75 73.31 260.75C74.93 260.75 76.25 262.07 76.25 263.69C76.25 265.32 74.93 266.63 73.31 266.63ZM76.25 281.28C76.25 279.66 74.93 278.34 73.31 278.34C71.69 278.34 70.37 279.66 70.37 281.28C70.37 282.9 71.69 284.22 73.31 284.22C74.93 284.22 76.25 282.91 76.25 281.28ZM76.25 298.87C76.25 297.25 74.93 295.93 73.31 295.93C71.69 295.93 70.37 297.25 70.37 298.87C70.37 300.49 71.69 301.81 73.31 301.81C74.93 301.82 76.25 300.5 76.25 298.87ZM76.25 316.47C76.25 314.85 74.93 313.53 73.31 313.53C71.69 313.53 70.37 314.85 70.37 316.47C70.37 318.09 71.69 319.41 73.31 319.41C74.93 319.41 76.25 318.09 76.25 316.47ZM76.25 334.06C76.25 332.44 74.93 331.12 73.31 331.12C71.69 331.12 70.37 332.44 70.37 334.06C70.37 335.68 71.69 337 73.31 337C74.93 337 76.25 335.68 76.25 334.06ZM58.66 263.69C58.66 262.07 57.34 260.75 55.72 260.75C54.1 260.75 52.78 262.07 52.78 263.69C52.78 265.31 54.1 266.63 55.72 266.63C57.34 266.63 58.66 265.32 58.66 263.69ZM58.66 281.28C58.66 279.66 57.34 278.34 55.72 278.34C54.1 278.34 52.78 279.66 52.78 281.28C52.78 282.9 54.1 284.22 55.72 284.22C57.34 284.22 58.66 282.91 58.66 281.28ZM58.66 298.87C58.66 297.25 57.34 295.93 55.72 295.93C54.1 295.93 52.78 297.25 52.78 298.87C52.78 300.49 54.1 301.81 55.72 301.81C57.34 301.82 58.66 300.5 58.66 298.87ZM58.66 316.47C58.66 314.85 57.34 313.53 55.72 313.53C54.1 313.53 52.78 314.85 52.78 316.47C52.78 318.09 54.1 319.41 55.72 319.41C57.34 319.41 58.66 318.09 58.66 316.47ZM58.66 334.06C58.66 332.44 57.34 331.12 55.72 331.12C54.1 331.12 52.78 332.44 52.78 334.06C52.78 335.68 54.1 337 55.72 337C57.34 337 58.66 335.68 58.66 334.06ZM41.06 263.69C41.06 262.07 39.74 260.75 38.12 260.75C36.5 260.75 35.18 262.07 35.18 263.69C35.18 265.31 36.5 266.63 38.12 266.63C39.75 266.63 41.06 265.32 41.06 263.69ZM41.06 281.28C41.06 279.66 39.74 278.34 38.12 278.34C36.5 278.34 35.18 279.66 35.18 281.28C35.18 282.9 36.5 284.22 38.12 284.22C39.75 284.22 41.06 282.91 41.06 281.28ZM41.06 298.87C41.06 297.25 39.74 295.93 38.12 295.93C36.5 295.93 35.18 297.25 35.18 298.87C35.18 300.49 36.5 301.81 38.12 301.81C39.75 301.82 41.06 300.5 41.06 298.87ZM41.06 316.47C41.06 314.85 39.74 313.53 38.12 313.53C36.5 313.53 35.18 314.85 35.18 316.47C35.18 318.09 36.5 319.41 38.12 319.41C39.75 319.41 41.06 318.09 41.06 316.47ZM41.06 334.06C41.06 332.44 39.74 331.12 38.12 331.12C36.5 331.12 35.18 332.44 35.18 334.06C35.18 335.68 36.5 337 38.12 337C39.75 337 41.06 335.68 41.06 334.06ZM23.47 263.69C23.47 262.07 22.15 260.75 20.53 260.75C18.91 260.75 17.59 262.07 17.59 263.69C17.59 265.31 18.91 266.63 20.53 266.63C22.16 266.63 23.47 265.32 23.47 263.69ZM23.47 281.28C23.47 279.66 22.15 278.34 20.53 278.34C18.91 278.34 17.59 279.66 17.59 281.28C17.59 282.9 18.91 284.22 20.53 284.22C22.16 284.22 23.47 282.91 23.47 281.28ZM23.47 298.87C23.47 297.25 22.15 295.93 20.53 295.93C18.91 295.93 17.59 297.25 17.59 298.87C17.59 300.49 18.91 301.81 20.53 301.81C22.16 301.82 23.47 300.5 23.47 298.87ZM23.47 316.47C23.47 314.85 22.15 313.53 20.53 313.53C18.91 313.53 17.59 314.85 17.59 316.47C17.59 318.09 18.91 319.41 20.53 319.41C22.16 319.41 23.47 318.09 23.47 316.47ZM23.47 334.06C23.47 332.44 22.15 331.12 20.53 331.12C18.91 331.12 17.59 332.44 17.59 334.06C17.59 335.68 18.91 337 20.53 337C22.16 337 23.47 335.68 23.47 334.06ZM5.88 263.69C5.88 262.07 4.56 260.75 2.94 260.75C1.32 260.75 0 262.07 0 263.69C0 265.31 1.32 266.63 2.94 266.63C4.56 266.63 5.88 265.32 5.88 263.69ZM5.88 281.28C5.88 279.66 4.56 278.34 2.94 278.34C1.32 278.34 0 279.66 0 281.28C0 282.9 1.32 284.22 2.94 284.22C4.56 284.22 5.88 282.91 5.88 281.28ZM5.88 298.87C5.88 297.25 4.56 295.93 2.94 295.93C1.32 295.93 0 297.25 0 298.87C0 300.49 1.32 301.81 2.94 301.81C4.56 301.81 5.88 300.5 5.88 298.87ZM5.88 316.47C5.88 314.85 4.56 313.53 2.94 313.53C1.32 313.53 0 314.85 0 316.47C0 318.09 1.32 319.41 2.94 319.41C4.56 319.41 5.88 318.09 5.88 316.47ZM5.88 334.06C5.88 332.44 4.56 331.12 2.94 331.12C1.32 331.12 0 332.44 0 334.06C0 335.68 1.32 337 2.94 337C4.56 337 5.88 335.68 5.88 334.06Z" fill="#FCCFDA"/>
<path d="M73.31 354.88C71.69 354.88 70.37 353.56 70.37 351.94C70.37 350.32 71.69 349 73.31 349C74.93 349 76.25 350.32 76.25 351.94C76.25 353.57 74.93 354.88 73.31 354.88ZM76.25 369.53C76.25 367.91 74.93 366.59 73.31 366.59C71.69 366.59 70.37 367.91 70.37 369.53C70.37 371.15 71.69 372.47 73.31 372.47C74.93 372.47 76.25 371.16 76.25 369.53ZM76.25 387.12C76.25 385.5 74.93 384.18 73.31 384.18C71.69 384.18 70.37 385.5 70.37 387.12C70.37 388.74 71.69 390.06 73.31 390.06C74.93 390.07 76.25 388.75 76.25 387.12ZM76.25 404.72C76.25 403.1 74.93 401.78 73.31 401.78C71.69 401.78 70.37 403.1 70.37 404.72C70.37 406.34 71.69 407.66 73.31 407.66C74.93 407.66 76.25 406.34 76.25 404.72ZM76.25 422.31C76.25 420.69 74.93 419.37 73.31 419.37C71.69 419.37 70.37 420.69 70.37 422.31C70.37 423.93 71.69 425.25 73.31 425.25C74.93 425.25 76.25 423.93 76.25 422.31ZM58.66 351.94C58.66 350.32 57.34 349 55.72 349C54.1 349 52.78 350.32 52.78 351.94C52.78 353.56 54.1 354.88 55.72 354.88C57.34 354.88 58.66 353.57 58.66 351.94ZM58.66 369.53C58.66 367.91 57.34 366.59 55.72 366.59C54.1 366.59 52.78 367.91 52.78 369.53C52.78 371.15 54.1 372.47 55.72 372.47C57.34 372.47 58.66 371.16 58.66 369.53ZM58.66 387.12C58.66 385.5 57.34 384.18 55.72 384.18C54.1 384.18 52.78 385.5 52.78 387.12C52.78 388.74 54.1 390.06 55.72 390.06C57.34 390.07 58.66 388.75 58.66 387.12ZM58.66 404.72C58.66 403.1 57.34 401.78 55.72 401.78C54.1 401.78 52.78 403.1 52.78 404.72C52.78 406.34 54.1 407.66 55.72 407.66C57.34 407.66 58.66 406.34 58.66 404.72ZM58.66 422.31C58.66 420.69 57.34 419.37 55.72 419.37C54.1 419.37 52.78 420.69 52.78 422.31C52.78 423.93 54.1 425.25 55.72 425.25C57.34 425.25 58.66 423.93 58.66 422.31ZM41.06 351.94C41.06 350.32 39.74 349 38.12 349C36.5 349 35.18 350.32 35.18 351.94C35.18 353.56 36.5 354.88 38.12 354.88C39.75 354.88 41.06 353.57 41.06 351.94ZM41.06 369.53C41.06 367.91 39.74 366.59 38.12 366.59C36.5 366.59 35.18 367.91 35.18 369.53C35.18 371.15 36.5 372.47 38.12 372.47C39.75 372.47 41.06 371.16 41.06 369.53ZM41.06 387.12C41.06 385.5 39.74 384.18 38.12 384.18C36.5 384.18 35.18 385.5 35.18 387.12C35.18 388.74 36.5 390.06 38.12 390.06C39.75 390.07 41.06 388.75 41.06 387.12ZM41.06 404.72C41.06 403.1 39.74 401.78 38.12 401.78C36.5 401.78 35.18 403.1 35.18 404.72C35.18 406.34 36.5 407.66 38.12 407.66C39.75 407.66 41.06 406.34 41.06 404.72ZM41.06 422.31C41.06 420.69 39.74 419.37 38.12 419.37C36.5 419.37 35.18 420.69 35.18 422.31C35.18 423.93 36.5 425.25 38.12 425.25C39.75 425.25 41.06 423.93 41.06 422.31ZM23.47 351.94C23.47 350.32 22.15 349 20.53 349C18.91 349 17.59 350.32 17.59 351.94C17.59 353.56 18.91 354.88 20.53 354.88C22.16 354.88 23.47 353.57 23.47 351.94ZM23.47 369.53C23.47 367.91 22.15 366.59 20.53 366.59C18.91 366.59 17.59 367.91 17.59 369.53C17.59 371.15 18.91 372.47 20.53 372.47C22.16 372.47 23.47 371.16 23.47 369.53ZM23.47 387.12C23.47 385.5 22.15 384.18 20.53 384.18C18.91 384.18 17.59 385.5 17.59 387.12C17.59 388.74 18.91 390.06 20.53 390.06C22.16 390.07 23.47 388.75 23.47 387.12ZM23.47 404.72C23.47 403.1 22.15 401.78 20.53 401.78C18.91 401.78 17.59 403.1 17.59 404.72C17.59 406.34 18.91 407.66 20.53 407.66C22.16 407.66 23.47 406.34 23.47 404.72ZM23.47 422.31C23.47 420.69 22.15 419.37 20.53 419.37C18.91 419.37 17.59 420.69 17.59 422.31C17.59 423.93 18.91 425.25 20.53 425.25C22.16 425.25 23.47 423.93 23.47 422.31ZM5.88 351.94C5.88 350.32 4.56 349 2.94 349C1.32 349 0 350.32 0 351.94C0 353.56 1.32 354.88 2.94 354.88C4.56 354.88 5.88 353.57 5.88 351.94ZM5.88 369.53C5.88 367.91 4.56 366.59 2.94 366.59C1.32 366.59 0 367.91 0 369.53C0 371.15 1.32 372.47 2.94 372.47C4.56 372.47 5.88 371.16 5.88 369.53ZM5.88 387.12C5.88 385.5 4.56 384.18 2.94 384.18C1.32 384.18 0 385.5 0 387.12C0 388.74 1.32 390.06 2.94 390.06C4.56 390.06 5.88 388.75 5.88 387.12ZM5.88 404.72C5.88 403.1 4.56 401.78 2.94 401.78C1.32 401.78 0 403.1 0 404.72C0 406.34 1.32 407.66 2.94 407.66C4.56 407.66 5.88 406.34 5.88 404.72ZM5.88 422.31C5.88 420.69 4.56 419.37 2.94 419.37C1.32 419.37 0 420.69 0 422.31C0 423.93 1.32 425.25 2.94 425.25C4.56 425.25 5.88 423.93 5.88 422.31Z" fill="#FCCFDA"/>
<path d="M161.56 1.88C159.94 1.88 158.62 0.560002 158.62 -1.06C158.62 -2.68 159.94 -4 161.56 -4C163.18 -4 164.5 -2.68 164.5 -1.06C164.5 0.570003 163.18 1.88 161.56 1.88ZM164.5 16.53C164.5 14.91 163.18 13.59 161.56 13.59C159.94 13.59 158.62 14.91 158.62 16.53C158.62 18.15 159.94 19.47 161.56 19.47C163.18 19.47 164.5 18.16 164.5 16.53ZM164.5 34.12C164.5 32.5 163.18 31.18 161.56 31.18C159.94 31.18 158.62 32.5 158.62 34.12C158.62 35.74 159.94 37.06 161.56 37.06C163.18 37.07 164.5 35.75 164.5 34.12ZM164.5 51.72C164.5 50.1 163.18 48.78 161.56 48.78C159.94 48.78 158.62 50.1 158.62 51.72C158.62 53.34 159.94 54.66 161.56 54.66C163.18 54.66 164.5 53.34 164.5 51.72ZM164.5 69.31C164.5 67.69 163.18 66.37 161.56 66.37C159.94 66.37 158.62 67.69 158.62 69.31C158.62 70.93 159.94 72.25 161.56 72.25C163.18 72.25 164.5 70.93 164.5 69.31ZM146.91 -1.06C146.91 -2.68 145.59 -4 143.97 -4C142.35 -4 141.03 -2.68 141.03 -1.06C141.03 0.560002 142.35 1.88 143.97 1.88C145.59 1.88 146.91 0.570003 146.91 -1.06ZM146.91 16.53C146.91 14.91 145.59 13.59 143.97 13.59C142.35 13.59 141.03 14.91 141.03 16.53C141.03 18.15 142.35 19.47 143.97 19.47C145.59 19.47 146.91 18.16 146.91 16.53ZM146.91 34.12C146.91 32.5 145.59 31.18 143.97 31.18C142.35 31.18 141.03 32.5 141.03 34.12C141.03 35.74 142.35 37.06 143.97 37.06C145.59 37.07 146.91 35.75 146.91 34.12ZM146.91 51.72C146.91 50.1 145.59 48.78 143.97 48.78C142.35 48.78 141.03 50.1 141.03 51.72C141.03 53.34 142.35 54.66 143.97 54.66C145.59 54.66 146.91 53.34 146.91 51.72ZM146.91 69.31C146.91 67.69 145.59 66.37 143.97 66.37C142.35 66.37 141.03 67.69 141.03 69.31C141.03 70.93 142.35 72.25 143.97 72.25C145.59 72.25 146.91 70.93 146.91 69.31ZM129.31 -1.06C129.31 -2.68 127.99 -4 126.37 -4C124.75 -4 123.43 -2.68 123.43 -1.06C123.43 0.560002 124.75 1.88 126.37 1.88C128 1.88 129.31 0.570003 129.31 -1.06ZM129.31 16.53C129.31 14.91 127.99 13.59 126.37 13.59C124.75 13.59 123.43 14.91 123.43 16.53C123.43 18.15 124.75 19.47 126.37 19.47C128 19.47 129.31 18.16 129.31 16.53ZM129.31 34.12C129.31 32.5 127.99 31.18 126.37 31.18C124.75 31.18 123.43 32.5 123.43 34.12C123.43 35.74 124.75 37.06 126.37 37.06C128 37.07 129.31 35.75 129.31 34.12ZM129.31 51.72C129.31 50.1 127.99 48.78 126.37 48.78C124.75 48.78 123.43 50.1 123.43 51.72C123.43 53.34 124.75 54.66 126.37 54.66C128 54.66 129.31 53.34 129.31 51.72ZM129.31 69.31C129.31 67.69 127.99 66.37 126.37 66.37C124.75 66.37 123.43 67.69 123.43 69.31C123.43 70.93 124.75 72.25 126.37 72.25C128 72.25 129.31 70.93 129.31 69.31ZM111.72 -1.06C111.72 -2.68 110.4 -4 108.78 -4C107.16 -4 105.84 -2.68 105.84 -1.06C105.84 0.560002 107.16 1.88 108.78 1.88C110.41 1.88 111.72 0.570003 111.72 -1.06ZM111.72 16.53C111.72 14.91 110.4 13.59 108.78 13.59C107.16 13.59 105.84 14.91 105.84 16.53C105.84 18.15 107.16 19.47 108.78 19.47C110.41 19.47 111.72 18.16 111.72 16.53ZM111.72 34.12C111.72 32.5 110.4 31.18 108.78 31.18C107.16 31.18 105.84 32.5 105.84 34.12C105.84 35.74 107.16 37.06 108.78 37.06C110.41 37.07 111.72 35.75 111.72 34.12ZM111.72 51.72C111.72 50.1 110.4 48.78 108.78 48.78C107.16 48.78 105.84 50.1 105.84 51.72C105.84 53.34 107.16 54.66 108.78 54.66C110.41 54.66 111.72 53.34 111.72 51.72ZM111.72 69.31C111.72 67.69 110.4 66.37 108.78 66.37C107.16 66.37 105.84 67.69 105.84 69.31C105.84 70.93 107.16 72.25 108.78 72.25C110.41 72.25 111.72 70.93 111.72 69.31ZM94.13 -1.06C94.13 -2.68 92.81 -4 91.19 -4C89.57 -4 88.25 -2.68 88.25 -1.06C88.25 0.560002 89.57 1.88 91.19 1.88C92.81 1.88 94.13 0.570003 94.13 -1.06ZM94.13 16.53C94.13 14.91 92.81 13.59 91.19 13.59C89.57 13.59 88.25 14.91 88.25 16.53C88.25 18.15 89.57 19.47 91.19 19.47C92.81 19.47 94.13 18.16 94.13 16.53ZM94.13 34.12C94.13 32.5 92.81 31.18 91.19 31.18C89.57 31.18 88.25 32.5 88.25 34.12C88.25 35.74 89.57 37.06 91.19 37.06C92.81 37.06 94.13 35.75 94.13 34.12ZM94.13 51.72C94.13 50.1 92.81 48.78 91.19 48.78C89.57 48.78 88.25 50.1 88.25 51.72C88.25 53.34 89.57 54.66 91.19 54.66C92.81 54.66 94.13 53.34 94.13 51.72ZM94.13 69.31C94.13 67.69 92.81 66.37 91.19 66.37C89.57 66.37 88.25 67.69 88.25 69.31C88.25 70.93 89.57 72.25 91.19 72.25C92.81 72.25 94.13 70.93 94.13 69.31Z" fill="#FCCFDA"/>
<path d="M161.56 90.13C159.94 90.13 158.62 88.81 158.62 87.19C158.62 85.57 159.94 84.25 161.56 84.25C163.18 84.25 164.5 85.57 164.5 87.19C164.5 88.82 163.18 90.13 161.56 90.13ZM164.5 104.78C164.5 103.16 163.18 101.84 161.56 101.84C159.94 101.84 158.62 103.16 158.62 104.78C158.62 106.4 159.94 107.72 161.56 107.72C163.18 107.72 164.5 106.41 164.5 104.78ZM164.5 122.37C164.5 120.75 163.18 119.43 161.56 119.43C159.94 119.43 158.62 120.75 158.62 122.37C158.62 123.99 159.94 125.31 161.56 125.31C163.18 125.32 164.5 124 164.5 122.37ZM164.5 139.97C164.5 138.35 163.18 137.03 161.56 137.03C159.94 137.03 158.62 138.35 158.62 139.97C158.62 141.59 159.94 142.91 161.56 142.91C163.18 142.91 164.5 141.59 164.5 139.97ZM164.5 157.56C164.5 155.94 163.18 154.62 161.56 154.62C159.94 154.62 158.62 155.94 158.62 157.56C158.62 159.18 159.94 160.5 161.56 160.5C163.18 160.5 164.5 159.18 164.5 157.56ZM146.91 87.19C146.91 85.57 145.59 84.25 143.97 84.25C142.35 84.25 141.03 85.57 141.03 87.19C141.03 88.81 142.35 90.13 143.97 90.13C145.59 90.13 146.91 88.82 146.91 87.19ZM146.91 104.78C146.91 103.16 145.59 101.84 143.97 101.84C142.35 101.84 141.03 103.16 141.03 104.78C141.03 106.4 142.35 107.72 143.97 107.72C145.59 107.72 146.91 106.41 146.91 104.78ZM146.91 122.37C146.91 120.75 145.59 119.43 143.97 119.43C142.35 119.43 141.03 120.75 141.03 122.37C141.03 123.99 142.35 125.31 143.97 125.31C145.59 125.32 146.91 124 146.91 122.37ZM146.91 139.97C146.91 138.35 145.59 137.03 143.97 137.03C142.35 137.03 141.03 138.35 141.03 139.97C141.03 141.59 142.35 142.91 143.97 142.91C145.59 142.91 146.91 141.59 146.91 139.97ZM146.91 157.56C146.91 155.94 145.59 154.62 143.97 154.62C142.35 154.62 141.03 155.94 141.03 157.56C141.03 159.18 142.35 160.5 143.97 160.5C145.59 160.5 146.91 159.18 146.91 157.56ZM129.31 87.19C129.31 85.57 127.99 84.25 126.37 84.25C124.75 84.25 123.43 85.57 123.43 87.19C123.43 88.81 124.75 90.13 126.37 90.13C128 90.13 129.31 88.82 129.31 87.19ZM129.31 104.78C129.31 103.16 127.99 101.84 126.37 101.84C124.75 101.84 123.43 103.16 123.43 104.78C123.43 106.4 124.75 107.72 126.37 107.72C128 107.72 129.31 106.41 129.31 104.78ZM129.31 122.37C129.31 120.75 127.99 119.43 126.37 119.43C124.75 119.43 123.43 120.75 123.43 122.37C123.43 123.99 124.75 125.31 126.37 125.31C128 125.32 129.31 124 129.31 122.37ZM129.31 139.97C129.31 138.35 127.99 137.03 126.37 137.03C124.75 137.03 123.43 138.35 123.43 139.97C123.43 141.59 124.75 142.91 126.37 142.91C128 142.91 129.31 141.59 129.31 139.97ZM129.31 157.56C129.31 155.94 127.99 154.62 126.37 154.62C124.75 154.62 123.43 155.94 123.43 157.56C123.43 159.18 124.75 160.5 126.37 160.5C128 160.5 129.31 159.18 129.31 157.56ZM111.72 87.19C111.72 85.57 110.4 84.25 108.78 84.25C107.16 84.25 105.84 85.57 105.84 87.19C105.84 88.81 107.16 90.13 108.78 90.13C110.41 90.13 111.72 88.82 111.72 87.19ZM111.72 104.78C111.72 103.16 110.4 101.84 108.78 101.84C107.16 101.84 105.84 103.16 105.84 104.78C105.84 106.4 107.16 107.72 108.78 107.72C110.41 107.72 111.72 106.41 111.72 104.78ZM111.72 122.37C111.72 120.75 110.4 119.43 108.78 119.43C107.16 119.43 105.84 120.75 105.84 122.37C105.84 123.99 107.16 125.31 108.78 125.31C110.41 125.32 111.72 124 111.72 122.37ZM111.72 139.97C111.72 138.35 110.4 137.03 108.78 137.03C107.16 137.03 105.84 138.35 105.84 139.97C105.84 141.59 107.16 142.91 108.78 142.91C110.41 142.91 111.72 141.59 111.72 139.97ZM111.72 157.56C111.72 155.94 110.4 154.62 108.78 154.62C107.16 154.62 105.84 155.94 105.84 157.56C105.84 159.18 107.16 160.5 108.78 160.5C110.41 160.5 111.72 159.18 111.72 157.56ZM94.13 87.19C94.13 85.57 92.81 84.25 91.19 84.25C89.57 84.25 88.25 85.57 88.25 87.19C88.25 88.81 89.57 90.13 91.19 90.13C92.81 90.13 94.13 88.82 94.13 87.19ZM94.13 104.78C94.13 103.16 92.81 101.84 91.19 101.84C89.57 101.84 88.25 103.16 88.25 104.78C88.25 106.4 89.57 107.72 91.19 107.72C92.81 107.72 94.13 106.41 94.13 104.78ZM94.13 122.37C94.13 120.75 92.81 119.43 91.19 119.43C89.57 119.43 88.25 120.75 88.25 122.37C88.25 123.99 89.57 125.31 91.19 125.31C92.81 125.31 94.13 124 94.13 122.37ZM94.13 139.97C94.13 138.35 92.81 137.03 91.19 137.03C89.57 137.03 88.25 138.35 88.25 139.97C88.25 141.59 89.57 142.91 91.19 142.91C92.81 142.91 94.13 141.59 94.13 139.97ZM94.13 157.56C94.13 155.94 92.81 154.62 91.19 154.62C89.57 154.62 88.25 155.94 88.25 157.56C88.25 159.18 89.57 160.5 91.19 160.5C92.81 160.5 94.13 159.18 94.13 157.56Z" fill="#FCCFDA"/>
<path d="M161.56 178.38C159.94 178.38 158.62 177.06 158.62 175.44C158.62 173.82 159.94 172.5 161.56 172.5C163.18 172.5 164.5 173.82 164.5 175.44C164.5 177.07 163.18 178.38 161.56 178.38ZM164.5 193.03C164.5 191.41 163.18 190.09 161.56 190.09C159.94 190.09 158.62 191.41 158.62 193.03C158.62 194.65 159.94 195.97 161.56 195.97C163.18 195.97 164.5 194.66 164.5 193.03ZM164.5 210.62C164.5 209 163.18 207.68 161.56 207.68C159.94 207.68 158.62 209 158.62 210.62C158.62 212.24 159.94 213.56 161.56 213.56C163.18 213.57 164.5 212.25 164.5 210.62ZM164.5 228.22C164.5 226.6 163.18 225.28 161.56 225.28C159.94 225.28 158.62 226.6 158.62 228.22C158.62 229.84 159.94 231.16 161.56 231.16C163.18 231.16 164.5 229.84 164.5 228.22ZM164.5 245.81C164.5 244.19 163.18 242.87 161.56 242.87C159.94 242.87 158.62 244.19 158.62 245.81C158.62 247.43 159.94 248.75 161.56 248.75C163.18 248.75 164.5 247.43 164.5 245.81ZM146.91 175.44C146.91 173.82 145.59 172.5 143.97 172.5C142.35 172.5 141.03 173.82 141.03 175.44C141.03 177.06 142.35 178.38 143.97 178.38C145.59 178.38 146.91 177.07 146.91 175.44ZM146.91 193.03C146.91 191.41 145.59 190.09 143.97 190.09C142.35 190.09 141.03 191.41 141.03 193.03C141.03 194.65 142.35 195.97 143.97 195.97C145.59 195.97 146.91 194.66 146.91 193.03ZM146.91 210.62C146.91 209 145.59 207.68 143.97 207.68C142.35 207.68 141.03 209 141.03 210.62C141.03 212.24 142.35 213.56 143.97 213.56C145.59 213.57 146.91 212.25 146.91 210.62ZM146.91 228.22C146.91 226.6 145.59 225.28 143.97 225.28C142.35 225.28 141.03 226.6 141.03 228.22C141.03 229.84 142.35 231.16 143.97 231.16C145.59 231.16 146.91 229.84 146.91 228.22ZM146.91 245.81C146.91 244.19 145.59 242.87 143.97 242.87C142.35 242.87 141.03 244.19 141.03 245.81C141.03 247.43 142.35 248.75 143.97 248.75C145.59 248.75 146.91 247.43 146.91 245.81ZM129.31 175.44C129.31 173.82 127.99 172.5 126.37 172.5C124.75 172.5 123.43 173.82 123.43 175.44C123.43 177.06 124.75 178.38 126.37 178.38C128 178.38 129.31 177.07 129.31 175.44ZM129.31 193.03C129.31 191.41 127.99 190.09 126.37 190.09C124.75 190.09 123.43 191.41 123.43 193.03C123.43 194.65 124.75 195.97 126.37 195.97C128 195.97 129.31 194.66 129.31 193.03ZM129.31 210.62C129.31 209 127.99 207.68 126.37 207.68C124.75 207.68 123.43 209 123.43 210.62C123.43 212.24 124.75 213.56 126.37 213.56C128 213.57 129.31 212.25 129.31 210.62ZM129.31 228.22C129.31 226.6 127.99 225.28 126.37 225.28C124.75 225.28 123.43 226.6 123.43 228.22C123.43 229.84 124.75 231.16 126.37 231.16C128 231.16 129.31 229.84 129.31 228.22ZM129.31 245.81C129.31 244.19 127.99 242.87 126.37 242.87C124.75 242.87 123.43 244.19 123.43 245.81C123.43 247.43 124.75 248.75 126.37 248.75C128 248.75 129.31 247.43 129.31 245.81ZM111.72 175.44C111.72 173.82 110.4 172.5 108.78 172.5C107.16 172.5 105.84 173.82 105.84 175.44C105.84 177.06 107.16 178.38 108.78 178.38C110.41 178.38 111.72 177.07 111.72 175.44ZM111.72 193.03C111.72 191.41 110.4 190.09 108.78 190.09C107.16 190.09 105.84 191.41 105.84 193.03C105.84 194.65 107.16 195.97 108.78 195.97C110.41 195.97 111.72 194.66 111.72 193.03ZM111.72 210.62C111.72 209 110.4 207.68 108.78 207.68C107.16 207.68 105.84 209 105.84 210.62C105.84 212.24 107.16 213.56 108.78 213.56C110.41 213.57 111.72 212.25 111.72 210.62ZM111.72 228.22C111.72 226.6 110.4 225.28 108.78 225.28C107.16 225.28 105.84 226.6 105.84 228.22C105.84 229.84 107.16 231.16 108.78 231.16C110.41 231.16 111.72 229.84 111.72 228.22ZM111.72 245.81C111.72 244.19 110.4 242.87 108.78 242.87C107.16 242.87 105.84 244.19 105.84 245.81C105.84 247.43 107.16 248.75 108.78 248.75C110.41 248.75 111.72 247.43 111.72 245.81ZM94.13 175.44C94.13 173.82 92.81 172.5 91.19 172.5C89.57 172.5 88.25 173.82 88.25 175.44C88.25 177.06 89.57 178.38 91.19 178.38C92.81 178.38 94.13 177.07 94.13 175.44ZM94.13 193.03C94.13 191.41 92.81 190.09 91.19 190.09C89.57 190.09 88.25 191.41 88.25 193.03C88.25 194.65 89.57 195.97 91.19 195.97C92.81 195.97 94.13 194.66 94.13 193.03ZM94.13 210.62C94.13 209 92.81 207.68 91.19 207.68C89.57 207.68 88.25 209 88.25 210.62C88.25 212.24 89.57 213.56 91.19 213.56C92.81 213.56 94.13 212.25 94.13 210.62ZM94.13 228.22C94.13 226.6 92.81 225.28 91.19 225.28C89.57 225.28 88.25 226.6 88.25 228.22C88.25 229.84 89.57 231.16 91.19 231.16C92.81 231.16 94.13 229.84 94.13 228.22ZM94.13 245.81C94.13 244.19 92.81 242.87 91.19 242.87C89.57 242.87 88.25 244.19 88.25 245.81C88.25 247.43 89.57 248.75 91.19 248.75C92.81 248.75 94.13 247.43 94.13 245.81Z" fill="#FCCFDA"/>
<path d="M161.56 266.63C159.94 266.63 158.62 265.31 158.62 263.69C158.62 262.07 159.94 260.75 161.56 260.75C163.18 260.75 164.5 262.07 164.5 263.69C164.5 265.32 163.18 266.63 161.56 266.63ZM164.5 281.28C164.5 279.66 163.18 278.34 161.56 278.34C159.94 278.34 158.62 279.66 158.62 281.28C158.62 282.9 159.94 284.22 161.56 284.22C163.18 284.22 164.5 282.91 164.5 281.28ZM164.5 298.87C164.5 297.25 163.18 295.93 161.56 295.93C159.94 295.93 158.62 297.25 158.62 298.87C158.62 300.49 159.94 301.81 161.56 301.81C163.18 301.82 164.5 300.5 164.5 298.87ZM164.5 316.47C164.5 314.85 163.18 313.53 161.56 313.53C159.94 313.53 158.62 314.85 158.62 316.47C158.62 318.09 159.94 319.41 161.56 319.41C163.18 319.41 164.5 318.09 164.5 316.47ZM164.5 334.06C164.5 332.44 163.18 331.12 161.56 331.12C159.94 331.12 158.62 332.44 158.62 334.06C158.62 335.68 159.94 337 161.56 337C163.18 337 164.5 335.68 164.5 334.06ZM146.91 263.69C146.91 262.07 145.59 260.75 143.97 260.75C142.35 260.75 141.03 262.07 141.03 263.69C141.03 265.31 142.35 266.63 143.97 266.63C145.59 266.63 146.91 265.32 146.91 263.69ZM146.91 281.28C146.91 279.66 145.59 278.34 143.97 278.34C142.35 278.34 141.03 279.66 141.03 281.28C141.03 282.9 142.35 284.22 143.97 284.22C145.59 284.22 146.91 282.91 146.91 281.28ZM146.91 298.87C146.91 297.25 145.59 295.93 143.97 295.93C142.35 295.93 141.03 297.25 141.03 298.87C141.03 300.49 142.35 301.81 143.97 301.81C145.59 301.82 146.91 300.5 146.91 298.87ZM146.91 316.47C146.91 314.85 145.59 313.53 143.97 313.53C142.35 313.53 141.03 314.85 141.03 316.47C141.03 318.09 142.35 319.41 143.97 319.41C145.59 319.41 146.91 318.09 146.91 316.47ZM146.91 334.06C146.91 332.44 145.59 331.12 143.97 331.12C142.35 331.12 141.03 332.44 141.03 334.06C141.03 335.68 142.35 337 143.97 337C145.59 337 146.91 335.68 146.91 334.06ZM129.31 263.69C129.31 262.07 127.99 260.75 126.37 260.75C124.75 260.75 123.43 262.07 123.43 263.69C123.43 265.31 124.75 266.63 126.37 266.63C128 266.63 129.31 265.32 129.31 263.69ZM129.31 281.28C129.31 279.66 127.99 278.34 126.37 278.34C124.75 278.34 123.43 279.66 123.43 281.28C123.43 282.9 124.75 284.22 126.37 284.22C128 284.22 129.31 282.91 129.31 281.28ZM129.31 298.87C129.31 297.25 127.99 295.93 126.37 295.93C124.75 295.93 123.43 297.25 123.43 298.87C123.43 300.49 124.75 301.81 126.37 301.81C128 301.82 129.31 300.5 129.31 298.87ZM129.31 316.47C129.31 314.85 127.99 313.53 126.37 313.53C124.75 313.53 123.43 314.85 123.43 316.47C123.43 318.09 124.75 319.41 126.37 319.41C128 319.41 129.31 318.09 129.31 316.47ZM129.31 334.06C129.31 332.44 127.99 331.12 126.37 331.12C124.75 331.12 123.43 332.44 123.43 334.06C123.43 335.68 124.75 337 126.37 337C128 337 129.31 335.68 129.31 334.06ZM111.72 263.69C111.72 262.07 110.4 260.75 108.78 260.75C107.16 260.75 105.84 262.07 105.84 263.69C105.84 265.31 107.16 266.63 108.78 266.63C110.41 266.63 111.72 265.32 111.72 263.69ZM111.72 281.28C111.72 279.66 110.4 278.34 108.78 278.34C107.16 278.34 105.84 279.66 105.84 281.28C105.84 282.9 107.16 284.22 108.78 284.22C110.41 284.22 111.72 282.91 111.72 281.28ZM111.72 298.87C111.72 297.25 110.4 295.93 108.78 295.93C107.16 295.93 105.84 297.25 105.84 298.87C105.84 300.49 107.16 301.81 108.78 301.81C110.41 301.82 111.72 300.5 111.72 298.87ZM111.72 316.47C111.72 314.85 110.4 313.53 108.78 313.53C107.16 313.53 105.84 314.85 105.84 316.47C105.84 318.09 107.16 319.41 108.78 319.41C110.41 319.41 111.72 318.09 111.72 316.47ZM111.72 334.06C111.72 332.44 110.4 331.12 108.78 331.12C107.16 331.12 105.84 332.44 105.84 334.06C105.84 335.68 107.16 337 108.78 337C110.41 337 111.72 335.68 111.72 334.06ZM94.13 263.69C94.13 262.07 92.81 260.75 91.19 260.75C89.57 260.75 88.25 262.07 88.25 263.69C88.25 265.31 89.57 266.63 91.19 266.63C92.81 266.63 94.13 265.32 94.13 263.69ZM94.13 281.28C94.13 279.66 92.81 278.34 91.19 278.34C89.57 278.34 88.25 279.66 88.25 281.28C88.25 282.9 89.57 284.22 91.19 284.22C92.81 284.22 94.13 282.91 94.13 281.28ZM94.13 298.87C94.13 297.25 92.81 295.93 91.19 295.93C89.57 295.93 88.25 297.25 88.25 298.87C88.25 300.49 89.57 301.81 91.19 301.81C92.81 301.81 94.13 300.5 94.13 298.87ZM94.13 316.47C94.13 314.85 92.81 313.53 91.19 313.53C89.57 313.53 88.25 314.85 88.25 316.47C88.25 318.09 89.57 319.41 91.19 319.41C92.81 319.41 94.13 318.09 94.13 316.47ZM94.13 334.06C94.13 332.44 92.81 331.12 91.19 331.12C89.57 331.12 88.25 332.44 88.25 334.06C88.25 335.68 89.57 337 91.19 337C92.81 337 94.13 335.68 94.13 334.06Z" fill="#FCCFDA"/>
<path d="M161.56 354.88C159.94 354.88 158.62 353.56 158.62 351.94C158.62 350.32 159.94 349 161.56 349C163.18 349 164.5 350.32 164.5 351.94C164.5 353.57 163.18 354.88 161.56 354.88ZM164.5 369.53C164.5 367.91 163.18 366.59 161.56 366.59C159.94 366.59 158.62 367.91 158.62 369.53C158.62 371.15 159.94 372.47 161.56 372.47C163.18 372.47 164.5 371.16 164.5 369.53ZM164.5 387.12C164.5 385.5 163.18 384.18 161.56 384.18C159.94 384.18 158.62 385.5 158.62 387.12C158.62 388.74 159.94 390.06 161.56 390.06C163.18 390.07 164.5 388.75 164.5 387.12ZM164.5 404.72C164.5 403.1 163.18 401.78 161.56 401.78C159.94 401.78 158.62 403.1 158.62 404.72C158.62 406.34 159.94 407.66 161.56 407.66C163.18 407.66 164.5 406.34 164.5 404.72ZM164.5 422.31C164.5 420.69 163.18 419.37 161.56 419.37C159.94 419.37 158.62 420.69 158.62 422.31C158.62 423.93 159.94 425.25 161.56 425.25C163.18 425.25 164.5 423.93 164.5 422.31ZM146.91 351.94C146.91 350.32 145.59 349 143.97 349C142.35 349 141.03 350.32 141.03 351.94C141.03 353.56 142.35 354.88 143.97 354.88C145.59 354.88 146.91 353.57 146.91 351.94ZM146.91 369.53C146.91 367.91 145.59 366.59 143.97 366.59C142.35 366.59 141.03 367.91 141.03 369.53C141.03 371.15 142.35 372.47 143.97 372.47C145.59 372.47 146.91 371.16 146.91 369.53ZM146.91 387.12C146.91 385.5 145.59 384.18 143.97 384.18C142.35 384.18 141.03 385.5 141.03 387.12C141.03 388.74 142.35 390.06 143.97 390.06C145.59 390.07 146.91 388.75 146.91 387.12ZM146.91 404.72C146.91 403.1 145.59 401.78 143.97 401.78C142.35 401.78 141.03 403.1 141.03 404.72C141.03 406.34 142.35 407.66 143.97 407.66C145.59 407.66 146.91 406.34 146.91 404.72ZM146.91 422.31C146.91 420.69 145.59 419.37 143.97 419.37C142.35 419.37 141.03 420.69 141.03 422.31C141.03 423.93 142.35 425.25 143.97 425.25C145.59 425.25 146.91 423.93 146.91 422.31ZM129.31 351.94C129.31 350.32 127.99 349 126.37 349C124.75 349 123.43 350.32 123.43 351.94C123.43 353.56 124.75 354.88 126.37 354.88C128 354.88 129.31 353.57 129.31 351.94ZM129.31 369.53C129.31 367.91 127.99 366.59 126.37 366.59C124.75 366.59 123.43 367.91 123.43 369.53C123.43 371.15 124.75 372.47 126.37 372.47C128 372.47 129.31 371.16 129.31 369.53ZM129.31 387.12C129.31 385.5 127.99 384.18 126.37 384.18C124.75 384.18 123.43 385.5 123.43 387.12C123.43 388.74 124.75 390.06 126.37 390.06C128 390.07 129.31 388.75 129.31 387.12ZM129.31 404.72C129.31 403.1 127.99 401.78 126.37 401.78C124.75 401.78 123.43 403.1 123.43 404.72C123.43 406.34 124.75 407.66 126.37 407.66C128 407.66 129.31 406.34 129.31 404.72ZM129.31 422.31C129.31 420.69 127.99 419.37 126.37 419.37C124.75 419.37 123.43 420.69 123.43 422.31C123.43 423.93 124.75 425.25 126.37 425.25C128 425.25 129.31 423.93 129.31 422.31ZM111.72 351.94C111.72 350.32 110.4 349 108.78 349C107.16 349 105.84 350.32 105.84 351.94C105.84 353.56 107.16 354.88 108.78 354.88C110.41 354.88 111.72 353.57 111.72 351.94ZM111.72 369.53C111.72 367.91 110.4 366.59 108.78 366.59C107.16 366.59 105.84 367.91 105.84 369.53C105.84 371.15 107.16 372.47 108.78 372.47C110.41 372.47 111.72 371.16 111.72 369.53ZM111.72 387.12C111.72 385.5 110.4 384.18 108.78 384.18C107.16 384.18 105.84 385.5 105.84 387.12C105.84 388.74 107.16 390.06 108.78 390.06C110.41 390.07 111.72 388.75 111.72 387.12ZM111.72 404.72C111.72 403.1 110.4 401.78 108.78 401.78C107.16 401.78 105.84 403.1 105.84 404.72C105.84 406.34 107.16 407.66 108.78 407.66C110.41 407.66 111.72 406.34 111.72 404.72ZM111.72 422.31C111.72 420.69 110.4 419.37 108.78 419.37C107.16 419.37 105.84 420.69 105.84 422.31C105.84 423.93 107.16 425.25 108.78 425.25C110.41 425.25 111.72 423.93 111.72 422.31ZM94.13 351.94C94.13 350.32 92.81 349 91.19 349C89.57 349 88.25 350.32 88.25 351.94C88.25 353.56 89.57 354.88 91.19 354.88C92.81 354.88 94.13 353.57 94.13 351.94ZM94.13 369.53C94.13 367.91 92.81 366.59 91.19 366.59C89.57 366.59 88.25 367.91 88.25 369.53C88.25 371.15 89.57 372.47 91.19 372.47C92.81 372.47 94.13 371.16 94.13 369.53ZM94.13 387.12C94.13 385.5 92.81 384.18 91.19 384.18C89.57 384.18 88.25 385.5 88.25 387.12C88.25 388.74 89.57 390.06 91.19 390.06C92.81 390.06 94.13 388.75 94.13 387.12ZM94.13 404.72C94.13 403.1 92.81 401.78 91.19 401.78C89.57 401.78 88.25 403.1 88.25 404.72C88.25 406.34 89.57 407.66 91.19 407.66C92.81 407.66 94.13 406.34 94.13 404.72ZM94.13 422.31C94.13 420.69 92.81 419.37 91.19 419.37C89.57 419.37 88.25 420.69 88.25 422.31C88.25 423.93 89.57 425.25 91.19 425.25C92.81 425.25 94.13 423.93 94.13 422.31Z" fill="#FCCFDA"/>
<path d="M249.81 1.88C248.19 1.88 246.87 0.560002 246.87 -1.06C246.87 -2.68 248.19 -4 249.81 -4C251.43 -4 252.75 -2.68 252.75 -1.06C252.75 0.570003 251.43 1.88 249.81 1.88ZM252.75 16.53C252.75 14.91 251.43 13.59 249.81 13.59C248.19 13.59 246.87 14.91 246.87 16.53C246.87 18.15 248.19 19.47 249.81 19.47C251.43 19.47 252.75 18.16 252.75 16.53ZM252.75 34.12C252.75 32.5 251.43 31.18 249.81 31.18C248.19 31.18 246.87 32.5 246.87 34.12C246.87 35.74 248.19 37.06 249.81 37.06C251.43 37.07 252.75 35.75 252.75 34.12ZM252.75 51.72C252.75 50.1 251.43 48.78 249.81 48.78C248.19 48.78 246.87 50.1 246.87 51.72C246.87 53.34 248.19 54.66 249.81 54.66C251.43 54.66 252.75 53.34 252.75 51.72ZM252.75 69.31C252.75 67.69 251.43 66.37 249.81 66.37C248.19 66.37 246.87 67.69 246.87 69.31C246.87 70.93 248.19 72.25 249.81 72.25C251.43 72.25 252.75 70.93 252.75 69.31ZM235.16 -1.06C235.16 -2.68 233.84 -4 232.22 -4C230.6 -4 229.28 -2.68 229.28 -1.06C229.28 0.560002 230.6 1.88 232.22 1.88C233.84 1.88 235.16 0.570003 235.16 -1.06ZM235.16 16.53C235.16 14.91 233.84 13.59 232.22 13.59C230.6 13.59 229.28 14.91 229.28 16.53C229.28 18.15 230.6 19.47 232.22 19.47C233.84 19.47 235.16 18.16 235.16 16.53ZM235.16 34.12C235.16 32.5 233.84 31.18 232.22 31.18C230.6 31.18 229.28 32.5 229.28 34.12C229.28 35.74 230.6 37.06 232.22 37.06C233.84 37.07 235.16 35.75 235.16 34.12ZM235.16 51.72C235.16 50.1 233.84 48.78 232.22 48.78C230.6 48.78 229.28 50.1 229.28 51.72C229.28 53.34 230.6 54.66 232.22 54.66C233.84 54.66 235.16 53.34 235.16 51.72ZM235.16 69.31C235.16 67.69 233.84 66.37 232.22 66.37C230.6 66.37 229.28 67.69 229.28 69.31C229.28 70.93 230.6 72.25 232.22 72.25C233.84 72.25 235.16 70.93 235.16 69.31ZM217.56 -1.06C217.56 -2.68 216.24 -4 214.62 -4C213 -4 211.68 -2.68 211.68 -1.06C211.68 0.560002 213 1.88 214.62 1.88C216.25 1.88 217.56 0.570003 217.56 -1.06ZM217.56 16.53C217.56 14.91 216.24 13.59 214.62 13.59C213 13.59 211.68 14.91 211.68 16.53C211.68 18.15 213 19.47 214.62 19.47C216.25 19.47 217.56 18.16 217.56 16.53ZM217.56 34.12C217.56 32.5 216.24 31.18 214.62 31.18C213 31.18 211.68 32.5 211.68 34.12C211.68 35.74 213 37.06 214.62 37.06C216.25 37.07 217.56 35.75 217.56 34.12ZM217.56 51.72C217.56 50.1 216.24 48.78 214.62 48.78C213 48.78 211.68 50.1 211.68 51.72C211.68 53.34 213 54.66 214.62 54.66C216.25 54.66 217.56 53.34 217.56 51.72ZM217.56 69.31C217.56 67.69 216.24 66.37 214.62 66.37C213 66.37 211.68 67.69 211.68 69.31C211.68 70.93 213 72.25 214.62 72.25C216.25 72.25 217.56 70.93 217.56 69.31ZM199.97 -1.06C199.97 -2.68 198.65 -4 197.03 -4C195.41 -4 194.09 -2.68 194.09 -1.06C194.09 0.560002 195.41 1.88 197.03 1.88C198.66 1.88 199.97 0.570003 199.97 -1.06ZM199.97 16.53C199.97 14.91 198.65 13.59 197.03 13.59C195.41 13.59 194.09 14.91 194.09 16.53C194.09 18.15 195.41 19.47 197.03 19.47C198.66 19.47 199.97 18.16 199.97 16.53ZM199.97 34.12C199.97 32.5 198.65 31.18 197.03 31.18C195.41 31.18 194.09 32.5 194.09 34.12C194.09 35.74 195.41 37.06 197.03 37.06C198.66 37.07 199.97 35.75 199.97 34.12ZM199.97 51.72C199.97 50.1 198.65 48.78 197.03 48.78C195.41 48.78 194.09 50.1 194.09 51.72C194.09 53.34 195.41 54.66 197.03 54.66C198.66 54.66 199.97 53.34 199.97 51.72ZM199.97 69.31C199.97 67.69 198.65 66.37 197.03 66.37C195.41 66.37 194.09 67.69 194.09 69.31C194.09 70.93 195.41 72.25 197.03 72.25C198.66 72.25 199.97 70.93 199.97 69.31ZM182.38 -1.06C182.38 -2.68 181.06 -4 179.44 -4C177.82 -4 176.5 -2.68 176.5 -1.06C176.5 0.560002 177.82 1.88 179.44 1.88C181.06 1.88 182.38 0.570003 182.38 -1.06ZM182.38 16.53C182.38 14.91 181.06 13.59 179.44 13.59C177.82 13.59 176.5 14.91 176.5 16.53C176.5 18.15 177.82 19.47 179.44 19.47C181.06 19.47 182.38 18.16 182.38 16.53ZM182.38 34.12C182.38 32.5 181.06 31.18 179.44 31.18C177.82 31.18 176.5 32.5 176.5 34.12C176.5 35.74 177.82 37.06 179.44 37.06C181.06 37.06 182.38 35.75 182.38 34.12ZM182.38 51.72C182.38 50.1 181.06 48.78 179.44 48.78C177.82 48.78 176.5 50.1 176.5 51.72C176.5 53.34 177.82 54.66 179.44 54.66C181.06 54.66 182.38 53.34 182.38 51.72ZM182.38 69.31C182.38 67.69 181.06 66.37 179.44 66.37C177.82 66.37 176.5 67.69 176.5 69.31C176.5 70.93 177.82 72.25 179.44 72.25C181.06 72.25 182.38 70.93 182.38 69.31Z" fill="#FCCFDA"/>
<path d="M249.81 90.13C248.19 90.13 246.87 88.81 246.87 87.19C246.87 85.57 248.19 84.25 249.81 84.25C251.43 84.25 252.75 85.57 252.75 87.19C252.75 88.82 251.43 90.13 249.81 90.13ZM252.75 104.78C252.75 103.16 251.43 101.84 249.81 101.84C248.19 101.84 246.87 103.16 246.87 104.78C246.87 106.4 248.19 107.72 249.81 107.72C251.43 107.72 252.75 106.41 252.75 104.78ZM252.75 122.37C252.75 120.75 251.43 119.43 249.81 119.43C248.19 119.43 246.87 120.75 246.87 122.37C246.87 123.99 248.19 125.31 249.81 125.31C251.43 125.32 252.75 124 252.75 122.37ZM252.75 139.97C252.75 138.35 251.43 137.03 249.81 137.03C248.19 137.03 246.87 138.35 246.87 139.97C246.87 141.59 248.19 142.91 249.81 142.91C251.43 142.91 252.75 141.59 252.75 139.97ZM252.75 157.56C252.75 155.94 251.43 154.62 249.81 154.62C248.19 154.62 246.87 155.94 246.87 157.56C246.87 159.18 248.19 160.5 249.81 160.5C251.43 160.5 252.75 159.18 252.75 157.56ZM235.16 87.19C235.16 85.57 233.84 84.25 232.22 84.25C230.6 84.25 229.28 85.57 229.28 87.19C229.28 88.81 230.6 90.13 232.22 90.13C233.84 90.13 235.16 88.82 235.16 87.19ZM235.16 104.78C235.16 103.16 233.84 101.84 232.22 101.84C230.6 101.84 229.28 103.16 229.28 104.78C229.28 106.4 230.6 107.72 232.22 107.72C233.84 107.72 235.16 106.41 235.16 104.78ZM235.16 122.37C235.16 120.75 233.84 119.43 232.22 119.43C230.6 119.43 229.28 120.75 229.28 122.37C229.28 123.99 230.6 125.31 232.22 125.31C233.84 125.32 235.16 124 235.16 122.37ZM235.16 139.97C235.16 138.35 233.84 137.03 232.22 137.03C230.6 137.03 229.28 138.35 229.28 139.97C229.28 141.59 230.6 142.91 232.22 142.91C233.84 142.91 235.16 141.59 235.16 139.97ZM235.16 157.56C235.16 155.94 233.84 154.62 232.22 154.62C230.6 154.62 229.28 155.94 229.28 157.56C229.28 159.18 230.6 160.5 232.22 160.5C233.84 160.5 235.16 159.18 235.16 157.56ZM217.56 87.19C217.56 85.57 216.24 84.25 214.62 84.25C213 84.25 211.68 85.57 211.68 87.19C211.68 88.81 213 90.13 214.62 90.13C216.25 90.13 217.56 88.82 217.56 87.19ZM217.56 104.78C217.56 103.16 216.24 101.84 214.62 101.84C213 101.84 211.68 103.16 211.68 104.78C211.68 106.4 213 107.72 214.62 107.72C216.25 107.72 217.56 106.41 217.56 104.78ZM217.56 122.37C217.56 120.75 216.24 119.43 214.62 119.43C213 119.43 211.68 120.75 211.68 122.37C211.68 123.99 213 125.31 214.62 125.31C216.25 125.32 217.56 124 217.56 122.37ZM217.56 139.97C217.56 138.35 216.24 137.03 214.62 137.03C213 137.03 211.68 138.35 211.68 139.97C211.68 141.59 213 142.91 214.62 142.91C216.25 142.91 217.56 141.59 217.56 139.97ZM217.56 157.56C217.56 155.94 216.24 154.62 214.62 154.62C213 154.62 211.68 155.94 211.68 157.56C211.68 159.18 213 160.5 214.62 160.5C216.25 160.5 217.56 159.18 217.56 157.56ZM199.97 87.19C199.97 85.57 198.65 84.25 197.03 84.25C195.41 84.25 194.09 85.57 194.09 87.19C194.09 88.81 195.41 90.13 197.03 90.13C198.66 90.13 199.97 88.82 199.97 87.19ZM199.97 104.78C199.97 103.16 198.65 101.84 197.03 101.84C195.41 101.84 194.09 103.16 194.09 104.78C194.09 106.4 195.41 107.72 197.03 107.72C198.66 107.72 199.97 106.41 199.97 104.78ZM199.97 122.37C199.97 120.75 198.65 119.43 197.03 119.43C195.41 119.43 194.09 120.75 194.09 122.37C194.09 123.99 195.41 125.31 197.03 125.31C198.66 125.32 199.97 124 199.97 122.37ZM199.97 139.97C199.97 138.35 198.65 137.03 197.03 137.03C195.41 137.03 194.09 138.35 194.09 139.97C194.09 141.59 195.41 142.91 197.03 142.91C198.66 142.91 199.97 141.59 199.97 139.97ZM199.97 157.56C199.97 155.94 198.65 154.62 197.03 154.62C195.41 154.62 194.09 155.94 194.09 157.56C194.09 159.18 195.41 160.5 197.03 160.5C198.66 160.5 199.97 159.18 199.97 157.56ZM182.38 87.19C182.38 85.57 181.06 84.25 179.44 84.25C177.82 84.25 176.5 85.57 176.5 87.19C176.5 88.81 177.82 90.13 179.44 90.13C181.06 90.13 182.38 88.82 182.38 87.19ZM182.38 104.78C182.38 103.16 181.06 101.84 179.44 101.84C177.82 101.84 176.5 103.16 176.5 104.78C176.5 106.4 177.82 107.72 179.44 107.72C181.06 107.72 182.38 106.41 182.38 104.78ZM182.38 122.37C182.38 120.75 181.06 119.43 179.44 119.43C177.82 119.43 176.5 120.75 176.5 122.37C176.5 123.99 177.82 125.31 179.44 125.31C181.06 125.31 182.38 124 182.38 122.37ZM182.38 139.97C182.38 138.35 181.06 137.03 179.44 137.03C177.82 137.03 176.5 138.35 176.5 139.97C176.5 141.59 177.82 142.91 179.44 142.91C181.06 142.91 182.38 141.59 182.38 139.97ZM182.38 157.56C182.38 155.94 181.06 154.62 179.44 154.62C177.82 154.62 176.5 155.94 176.5 157.56C176.5 159.18 177.82 160.5 179.44 160.5C181.06 160.5 182.38 159.18 182.38 157.56Z" fill="#FCCFDA"/>
<path d="M249.81 178.38C248.19 178.38 246.87 177.06 246.87 175.44C246.87 173.82 248.19 172.5 249.81 172.5C251.43 172.5 252.75 173.82 252.75 175.44C252.75 177.07 251.43 178.38 249.81 178.38ZM252.75 193.03C252.75 191.41 251.43 190.09 249.81 190.09C248.19 190.09 246.87 191.41 246.87 193.03C246.87 194.65 248.19 195.97 249.81 195.97C251.43 195.97 252.75 194.66 252.75 193.03ZM252.75 210.62C252.75 209 251.43 207.68 249.81 207.68C248.19 207.68 246.87 209 246.87 210.62C246.87 212.24 248.19 213.56 249.81 213.56C251.43 213.57 252.75 212.25 252.75 210.62ZM252.75 228.22C252.75 226.6 251.43 225.28 249.81 225.28C248.19 225.28 246.87 226.6 246.87 228.22C246.87 229.84 248.19 231.16 249.81 231.16C251.43 231.16 252.75 229.84 252.75 228.22ZM252.75 245.81C252.75 244.19 251.43 242.87 249.81 242.87C248.19 242.87 246.87 244.19 246.87 245.81C246.87 247.43 248.19 248.75 249.81 248.75C251.43 248.75 252.75 247.43 252.75 245.81ZM235.16 175.44C235.16 173.82 233.84 172.5 232.22 172.5C230.6 172.5 229.28 173.82 229.28 175.44C229.28 177.06 230.6 178.38 232.22 178.38C233.84 178.38 235.16 177.07 235.16 175.44ZM235.16 193.03C235.16 191.41 233.84 190.09 232.22 190.09C230.6 190.09 229.28 191.41 229.28 193.03C229.28 194.65 230.6 195.97 232.22 195.97C233.84 195.97 235.16 194.66 235.16 193.03ZM235.16 210.62C235.16 209 233.84 207.68 232.22 207.68C230.6 207.68 229.28 209 229.28 210.62C229.28 212.24 230.6 213.56 232.22 213.56C233.84 213.57 235.16 212.25 235.16 210.62ZM235.16 228.22C235.16 226.6 233.84 225.28 232.22 225.28C230.6 225.28 229.28 226.6 229.28 228.22C229.28 229.84 230.6 231.16 232.22 231.16C233.84 231.16 235.16 229.84 235.16 228.22ZM235.16 245.81C235.16 244.19 233.84 242.87 232.22 242.87C230.6 242.87 229.28 244.19 229.28 245.81C229.28 247.43 230.6 248.75 232.22 248.75C233.84 248.75 235.16 247.43 235.16 245.81ZM217.56 175.44C217.56 173.82 216.24 172.5 214.62 172.5C213 172.5 211.68 173.82 211.68 175.44C211.68 177.06 213 178.38 214.62 178.38C216.25 178.38 217.56 177.07 217.56 175.44ZM217.56 193.03C217.56 191.41 216.24 190.09 214.62 190.09C213 190.09 211.68 191.41 211.68 193.03C211.68 194.65 213 195.97 214.62 195.97C216.25 195.97 217.56 194.66 217.56 193.03ZM217.56 210.62C217.56 209 216.24 207.68 214.62 207.68C213 207.68 211.68 209 211.68 210.62C211.68 212.24 213 213.56 214.62 213.56C216.25 213.57 217.56 212.25 217.56 210.62ZM217.56 228.22C217.56 226.6 216.24 225.28 214.62 225.28C213 225.28 211.68 226.6 211.68 228.22C211.68 229.84 213 231.16 214.62 231.16C216.25 231.16 217.56 229.84 217.56 228.22ZM217.56 245.81C217.56 244.19 216.24 242.87 214.62 242.87C213 242.87 211.68 244.19 211.68 245.81C211.68 247.43 213 248.75 214.62 248.75C216.25 248.75 217.56 247.43 217.56 245.81ZM199.97 175.44C199.97 173.82 198.65 172.5 197.03 172.5C195.41 172.5 194.09 173.82 194.09 175.44C194.09 177.06 195.41 178.38 197.03 178.38C198.66 178.38 199.97 177.07 199.97 175.44ZM199.97 193.03C199.97 191.41 198.65 190.09 197.03 190.09C195.41 190.09 194.09 191.41 194.09 193.03C194.09 194.65 195.41 195.97 197.03 195.97C198.66 195.97 199.97 194.66 199.97 193.03ZM199.97 210.62C199.97 209 198.65 207.68 197.03 207.68C195.41 207.68 194.09 209 194.09 210.62C194.09 212.24 195.41 213.56 197.03 213.56C198.66 213.57 199.97 212.25 199.97 210.62ZM199.97 228.22C199.97 226.6 198.65 225.28 197.03 225.28C195.41 225.28 194.09 226.6 194.09 228.22C194.09 229.84 195.41 231.16 197.03 231.16C198.66 231.16 199.97 229.84 199.97 228.22ZM199.97 245.81C199.97 244.19 198.65 242.87 197.03 242.87C195.41 242.87 194.09 244.19 194.09 245.81C194.09 247.43 195.41 248.75 197.03 248.75C198.66 248.75 199.97 247.43 199.97 245.81ZM182.38 175.44C182.38 173.82 181.06 172.5 179.44 172.5C177.82 172.5 176.5 173.82 176.5 175.44C176.5 177.06 177.82 178.38 179.44 178.38C181.06 178.38 182.38 177.07 182.38 175.44ZM182.38 193.03C182.38 191.41 181.06 190.09 179.44 190.09C177.82 190.09 176.5 191.41 176.5 193.03C176.5 194.65 177.82 195.97 179.44 195.97C181.06 195.97 182.38 194.66 182.38 193.03ZM182.38 210.62C182.38 209 181.06 207.68 179.44 207.68C177.82 207.68 176.5 209 176.5 210.62C176.5 212.24 177.82 213.56 179.44 213.56C181.06 213.56 182.38 212.25 182.38 210.62ZM182.38 228.22C182.38 226.6 181.06 225.28 179.44 225.28C177.82 225.28 176.5 226.6 176.5 228.22C176.5 229.84 177.82 231.16 179.44 231.16C181.06 231.16 182.38 229.84 182.38 228.22ZM182.38 245.81C182.38 244.19 181.06 242.87 179.44 242.87C177.82 242.87 176.5 244.19 176.5 245.81C176.5 247.43 177.82 248.75 179.44 248.75C181.06 248.75 182.38 247.43 182.38 245.81Z" fill="#FCCFDA"/>
<path d="M249.81 266.63C248.19 266.63 246.87 265.31 246.87 263.69C246.87 262.07 248.19 260.75 249.81 260.75C251.43 260.75 252.75 262.07 252.75 263.69C252.75 265.32 251.43 266.63 249.81 266.63ZM252.75 281.28C252.75 279.66 251.43 278.34 249.81 278.34C248.19 278.34 246.87 279.66 246.87 281.28C246.87 282.9 248.19 284.22 249.81 284.22C251.43 284.22 252.75 282.91 252.75 281.28ZM252.75 298.87C252.75 297.25 251.43 295.93 249.81 295.93C248.19 295.93 246.87 297.25 246.87 298.87C246.87 300.49 248.19 301.81 249.81 301.81C251.43 301.82 252.75 300.5 252.75 298.87ZM252.75 316.47C252.75 314.85 251.43 313.53 249.81 313.53C248.19 313.53 246.87 314.85 246.87 316.47C246.87 318.09 248.19 319.41 249.81 319.41C251.43 319.41 252.75 318.09 252.75 316.47ZM252.75 334.06C252.75 332.44 251.43 331.12 249.81 331.12C248.19 331.12 246.87 332.44 246.87 334.06C246.87 335.68 248.19 337 249.81 337C251.43 337 252.75 335.68 252.75 334.06ZM235.16 263.69C235.16 262.07 233.84 260.75 232.22 260.75C230.6 260.75 229.28 262.07 229.28 263.69C229.28 265.31 230.6 266.63 232.22 266.63C233.84 266.63 235.16 265.32 235.16 263.69ZM235.16 281.28C235.16 279.66 233.84 278.34 232.22 278.34C230.6 278.34 229.28 279.66 229.28 281.28C229.28 282.9 230.6 284.22 232.22 284.22C233.84 284.22 235.16 282.91 235.16 281.28ZM235.16 298.87C235.16 297.25 233.84 295.93 232.22 295.93C230.6 295.93 229.28 297.25 229.28 298.87C229.28 300.49 230.6 301.81 232.22 301.81C233.84 301.82 235.16 300.5 235.16 298.87ZM235.16 316.47C235.16 314.85 233.84 313.53 232.22 313.53C230.6 313.53 229.28 314.85 229.28 316.47C229.28 318.09 230.6 319.41 232.22 319.41C233.84 319.41 235.16 318.09 235.16 316.47ZM235.16 334.06C235.16 332.44 233.84 331.12 232.22 331.12C230.6 331.12 229.28 332.44 229.28 334.06C229.28 335.68 230.6 337 232.22 337C233.84 337 235.16 335.68 235.16 334.06ZM217.56 263.69C217.56 262.07 216.24 260.75 214.62 260.75C213 260.75 211.68 262.07 211.68 263.69C211.68 265.31 213 266.63 214.62 266.63C216.25 266.63 217.56 265.32 217.56 263.69ZM217.56 281.28C217.56 279.66 216.24 278.34 214.62 278.34C213 278.34 211.68 279.66 211.68 281.28C211.68 282.9 213 284.22 214.62 284.22C216.25 284.22 217.56 282.91 217.56 281.28ZM217.56 298.87C217.56 297.25 216.24 295.93 214.62 295.93C213 295.93 211.68 297.25 211.68 298.87C211.68 300.49 213 301.81 214.62 301.81C216.25 301.82 217.56 300.5 217.56 298.87ZM217.56 316.47C217.56 314.85 216.24 313.53 214.62 313.53C213 313.53 211.68 314.85 211.68 316.47C211.68 318.09 213 319.41 214.62 319.41C216.25 319.41 217.56 318.09 217.56 316.47ZM217.56 334.06C217.56 332.44 216.24 331.12 214.62 331.12C213 331.12 211.68 332.44 211.68 334.06C211.68 335.68 213 337 214.62 337C216.25 337 217.56 335.68 217.56 334.06ZM199.97 263.69C199.97 262.07 198.65 260.75 197.03 260.75C195.41 260.75 194.09 262.07 194.09 263.69C194.09 265.31 195.41 266.63 197.03 266.63C198.66 266.63 199.97 265.32 199.97 263.69ZM199.97 281.28C199.97 279.66 198.65 278.34 197.03 278.34C195.41 278.34 194.09 279.66 194.09 281.28C194.09 282.9 195.41 284.22 197.03 284.22C198.66 284.22 199.97 282.91 199.97 281.28ZM199.97 298.87C199.97 297.25 198.65 295.93 197.03 295.93C195.41 295.93 194.09 297.25 194.09 298.87C194.09 300.49 195.41 301.81 197.03 301.81C198.66 301.82 199.97 300.5 199.97 298.87ZM199.97 316.47C199.97 314.85 198.65 313.53 197.03 313.53C195.41 313.53 194.09 314.85 194.09 316.47C194.09 318.09 195.41 319.41 197.03 319.41C198.66 319.41 199.97 318.09 199.97 316.47ZM199.97 334.06C199.97 332.44 198.65 331.12 197.03 331.12C195.41 331.12 194.09 332.44 194.09 334.06C194.09 335.68 195.41 337 197.03 337C198.66 337 199.97 335.68 199.97 334.06ZM182.38 263.69C182.38 262.07 181.06 260.75 179.44 260.75C177.82 260.75 176.5 262.07 176.5 263.69C176.5 265.31 177.82 266.63 179.44 266.63C181.06 266.63 182.38 265.32 182.38 263.69ZM182.38 281.28C182.38 279.66 181.06 278.34 179.44 278.34C177.82 278.34 176.5 279.66 176.5 281.28C176.5 282.9 177.82 284.22 179.44 284.22C181.06 284.22 182.38 282.91 182.38 281.28ZM182.38 298.87C182.38 297.25 181.06 295.93 179.44 295.93C177.82 295.93 176.5 297.25 176.5 298.87C176.5 300.49 177.82 301.81 179.44 301.81C181.06 301.81 182.38 300.5 182.38 298.87ZM182.38 316.47C182.38 314.85 181.06 313.53 179.44 313.53C177.82 313.53 176.5 314.85 176.5 316.47C176.5 318.09 177.82 319.41 179.44 319.41C181.06 319.41 182.38 318.09 182.38 316.47ZM182.38 334.06C182.38 332.44 181.06 331.12 179.44 331.12C177.82 331.12 176.5 332.44 176.5 334.06C176.5 335.68 177.82 337 179.44 337C181.06 337 182.38 335.68 182.38 334.06Z" fill="#FCCFDA"/>
<path d="M249.81 354.88C248.19 354.88 246.87 353.56 246.87 351.94C246.87 350.32 248.19 349 249.81 349C251.43 349 252.75 350.32 252.75 351.94C252.75 353.57 251.43 354.88 249.81 354.88ZM252.75 369.53C252.75 367.91 251.43 366.59 249.81 366.59C248.19 366.59 246.87 367.91 246.87 369.53C246.87 371.15 248.19 372.47 249.81 372.47C251.43 372.47 252.75 371.16 252.75 369.53ZM252.75 387.12C252.75 385.5 251.43 384.18 249.81 384.18C248.19 384.18 246.87 385.5 246.87 387.12C246.87 388.74 248.19 390.06 249.81 390.06C251.43 390.07 252.75 388.75 252.75 387.12ZM252.75 404.72C252.75 403.1 251.43 401.78 249.81 401.78C248.19 401.78 246.87 403.1 246.87 404.72C246.87 406.34 248.19 407.66 249.81 407.66C251.43 407.66 252.75 406.34 252.75 404.72ZM252.75 422.31C252.75 420.69 251.43 419.37 249.81 419.37C248.19 419.37 246.87 420.69 246.87 422.31C246.87 423.93 248.19 425.25 249.81 425.25C251.43 425.25 252.75 423.93 252.75 422.31ZM235.16 351.94C235.16 350.32 233.84 349 232.22 349C230.6 349 229.28 350.32 229.28 351.94C229.28 353.56 230.6 354.88 232.22 354.88C233.84 354.88 235.16 353.57 235.16 351.94ZM235.16 369.53C235.16 367.91 233.84 366.59 232.22 366.59C230.6 366.59 229.28 367.91 229.28 369.53C229.28 371.15 230.6 372.47 232.22 372.47C233.84 372.47 235.16 371.16 235.16 369.53ZM235.16 387.12C235.16 385.5 233.84 384.18 232.22 384.18C230.6 384.18 229.28 385.5 229.28 387.12C229.28 388.74 230.6 390.06 232.22 390.06C233.84 390.07 235.16 388.75 235.16 387.12ZM235.16 404.72C235.16 403.1 233.84 401.78 232.22 401.78C230.6 401.78 229.28 403.1 229.28 404.72C229.28 406.34 230.6 407.66 232.22 407.66C233.84 407.66 235.16 406.34 235.16 404.72ZM235.16 422.31C235.16 420.69 233.84 419.37 232.22 419.37C230.6 419.37 229.28 420.69 229.28 422.31C229.28 423.93 230.6 425.25 232.22 425.25C233.84 425.25 235.16 423.93 235.16 422.31ZM217.56 351.94C217.56 350.32 216.24 349 214.62 349C213 349 211.68 350.32 211.68 351.94C211.68 353.56 213 354.88 214.62 354.88C216.25 354.88 217.56 353.57 217.56 351.94ZM217.56 369.53C217.56 367.91 216.24 366.59 214.62 366.59C213 366.59 211.68 367.91 211.68 369.53C211.68 371.15 213 372.47 214.62 372.47C216.25 372.47 217.56 371.16 217.56 369.53ZM217.56 387.12C217.56 385.5 216.24 384.18 214.62 384.18C213 384.18 211.68 385.5 211.68 387.12C211.68 388.74 213 390.06 214.62 390.06C216.25 390.07 217.56 388.75 217.56 387.12ZM217.56 404.72C217.56 403.1 216.24 401.78 214.62 401.78C213 401.78 211.68 403.1 211.68 404.72C211.68 406.34 213 407.66 214.62 407.66C216.25 407.66 217.56 406.34 217.56 404.72ZM217.56 422.31C217.56 420.69 216.24 419.37 214.62 419.37C213 419.37 211.68 420.69 211.68 422.31C211.68 423.93 213 425.25 214.62 425.25C216.25 425.25 217.56 423.93 217.56 422.31ZM199.97 351.94C199.97 350.32 198.65 349 197.03 349C195.41 349 194.09 350.32 194.09 351.94C194.09 353.56 195.41 354.88 197.03 354.88C198.66 354.88 199.97 353.57 199.97 351.94ZM199.97 369.53C199.97 367.91 198.65 366.59 197.03 366.59C195.41 366.59 194.09 367.91 194.09 369.53C194.09 371.15 195.41 372.47 197.03 372.47C198.66 372.47 199.97 371.16 199.97 369.53ZM199.97 387.12C199.97 385.5 198.65 384.18 197.03 384.18C195.41 384.18 194.09 385.5 194.09 387.12C194.09 388.74 195.41 390.06 197.03 390.06C198.66 390.07 199.97 388.75 199.97 387.12ZM199.97 404.72C199.97 403.1 198.65 401.78 197.03 401.78C195.41 401.78 194.09 403.1 194.09 404.72C194.09 406.34 195.41 407.66 197.03 407.66C198.66 407.66 199.97 406.34 199.97 404.72ZM199.97 422.31C199.97 420.69 198.65 419.37 197.03 419.37C195.41 419.37 194.09 420.69 194.09 422.31C194.09 423.93 195.41 425.25 197.03 425.25C198.66 425.25 199.97 423.93 199.97 422.31ZM182.38 351.94C182.38 350.32 181.06 349 179.44 349C177.82 349 176.5 350.32 176.5 351.94C176.5 353.56 177.82 354.88 179.44 354.88C181.06 354.88 182.38 353.57 182.38 351.94ZM182.38 369.53C182.38 367.91 181.06 366.59 179.44 366.59C177.82 366.59 176.5 367.91 176.5 369.53C176.5 371.15 177.82 372.47 179.44 372.47C181.06 372.47 182.38 371.16 182.38 369.53ZM182.38 387.12C182.38 385.5 181.06 384.18 179.44 384.18C177.82 384.18 176.5 385.5 176.5 387.12C176.5 388.74 177.82 390.06 179.44 390.06C181.06 390.06 182.38 388.75 182.38 387.12ZM182.38 404.72C182.38 403.1 181.06 401.78 179.44 401.78C177.82 401.78 176.5 403.1 176.5 404.72C176.5 406.34 177.82 407.66 179.44 407.66C181.06 407.66 182.38 406.34 182.38 404.72ZM182.38 422.31C182.38 420.69 181.06 419.37 179.44 419.37C177.82 419.37 176.5 420.69 176.5 422.31C176.5 423.93 177.82 425.25 179.44 425.25C181.06 425.25 182.38 423.93 182.38 422.31Z" fill="#FCCFDA"/>
</svg>
