<svg width="173" height="430" viewBox="0 0 173 430" fill="none" xmlns="http://www.w3.org/2000/svg">
<path d="M81.56 5.88C79.94 5.88 78.62 4.56 78.62 2.94C78.62 1.32 79.94 0 81.56 0C83.18 0 84.5 1.32 84.5 2.94C84.5 4.57 83.18 5.88 81.56 5.88ZM84.5 20.53C84.5 18.91 83.18 17.59 81.56 17.59C79.94 17.59 78.62 18.91 78.62 20.53C78.62 22.15 79.94 23.47 81.56 23.47C83.18 23.47 84.5 22.16 84.5 20.53ZM84.5 38.12C84.5 36.5 83.18 35.18 81.56 35.18C79.94 35.18 78.62 36.5 78.62 38.12C78.62 39.74 79.94 41.06 81.56 41.06C83.18 41.07 84.5 39.75 84.5 38.12ZM84.5 55.72C84.5 54.1 83.18 52.78 81.56 52.78C79.94 52.78 78.62 54.1 78.62 55.72C78.62 57.34 79.94 58.66 81.56 58.66C83.18 58.66 84.5 57.34 84.5 55.72ZM84.5 73.31C84.5 71.69 83.18 70.37 81.56 70.37C79.94 70.37 78.62 71.69 78.62 73.31C78.62 74.93 79.94 76.25 81.56 76.25C83.18 76.25 84.5 74.93 84.5 73.31ZM66.91 2.94C66.91 1.32 65.59 0 63.97 0C62.35 0 61.03 1.32 61.03 2.94C61.03 4.56 62.35 5.88 63.97 5.88C65.59 5.88 66.91 4.57 66.91 2.94ZM66.91 20.53C66.91 18.91 65.59 17.59 63.97 17.59C62.35 17.59 61.03 18.91 61.03 20.53C61.03 22.15 62.35 23.47 63.97 23.47C65.59 23.47 66.91 22.16 66.91 20.53ZM66.91 38.12C66.91 36.5 65.59 35.18 63.97 35.18C62.35 35.18 61.03 36.5 61.03 38.12C61.03 39.74 62.35 41.06 63.97 41.06C65.59 41.07 66.91 39.75 66.91 38.12ZM66.91 55.72C66.91 54.1 65.59 52.78 63.97 52.78C62.35 52.78 61.03 54.1 61.03 55.72C61.03 57.34 62.35 58.66 63.97 58.66C65.59 58.66 66.91 57.34 66.91 55.72ZM66.91 73.31C66.91 71.69 65.59 70.37 63.97 70.37C62.35 70.37 61.03 71.69 61.03 73.31C61.03 74.93 62.35 76.25 63.97 76.25C65.59 76.25 66.91 74.93 66.91 73.31ZM49.31 2.94C49.31 1.32 47.99 0 46.37 0C44.75 0 43.43 1.32 43.43 2.94C43.43 4.56 44.75 5.88 46.37 5.88C48 5.88 49.31 4.57 49.31 2.94ZM49.31 20.53C49.31 18.91 47.99 17.59 46.37 17.59C44.75 17.59 43.43 18.91 43.43 20.53C43.43 22.15 44.75 23.47 46.37 23.47C48 23.47 49.31 22.16 49.31 20.53ZM49.31 38.12C49.31 36.5 47.99 35.18 46.37 35.18C44.75 35.18 43.43 36.5 43.43 38.12C43.43 39.74 44.75 41.06 46.37 41.06C48 41.07 49.31 39.75 49.31 38.12ZM49.31 55.72C49.31 54.1 47.99 52.78 46.37 52.78C44.75 52.78 43.43 54.1 43.43 55.72C43.43 57.34 44.75 58.66 46.37 58.66C48 58.66 49.31 57.34 49.31 55.72ZM49.31 73.31C49.31 71.69 47.99 70.37 46.37 70.37C44.75 70.37 43.43 71.69 43.43 73.31C43.43 74.93 44.75 76.25 46.37 76.25C48 76.25 49.31 74.93 49.31 73.31ZM31.72 2.94C31.72 1.32 30.4 0 28.78 0C27.16 0 25.84 1.32 25.84 2.94C25.84 4.56 27.16 5.88 28.78 5.88C30.41 5.88 31.72 4.57 31.72 2.94ZM31.72 20.53C31.72 18.91 30.4 17.59 28.78 17.59C27.16 17.59 25.84 18.91 25.84 20.53C25.84 22.15 27.16 23.47 28.78 23.47C30.41 23.47 31.72 22.16 31.72 20.53ZM31.72 38.12C31.72 36.5 30.4 35.18 28.78 35.18C27.16 35.18 25.84 36.5 25.84 38.12C25.84 39.74 27.16 41.06 28.78 41.06C30.41 41.07 31.72 39.75 31.72 38.12ZM31.72 55.72C31.72 54.1 30.4 52.78 28.78 52.78C27.16 52.78 25.84 54.1 25.84 55.72C25.84 57.34 27.16 58.66 28.78 58.66C30.41 58.66 31.72 57.34 31.72 55.72ZM31.72 73.31C31.72 71.69 30.4 70.37 28.78 70.37C27.16 70.37 25.84 71.69 25.84 73.31C25.84 74.93 27.16 76.25 28.78 76.25C30.41 76.25 31.72 74.93 31.72 73.31ZM14.13 2.94C14.13 1.32 12.81 0 11.19 0C9.57 0 8.25 1.32 8.25 2.94C8.25 4.56 9.57 5.88 11.19 5.88C12.81 5.88 14.13 4.57 14.13 2.94ZM14.13 20.53C14.13 18.91 12.81 17.59 11.19 17.59C9.57 17.59 8.25 18.91 8.25 20.53C8.25 22.15 9.57 23.47 11.19 23.47C12.81 23.47 14.13 22.16 14.13 20.53ZM14.13 38.12C14.13 36.5 12.81 35.18 11.19 35.18C9.57 35.18 8.25 36.5 8.25 38.12C8.25 39.74 9.57 41.06 11.19 41.06C12.81 41.06 14.13 39.75 14.13 38.12ZM14.13 55.72C14.13 54.1 12.81 52.78 11.19 52.78C9.57 52.78 8.25 54.1 8.25 55.72C8.25 57.34 9.57 58.66 11.19 58.66C12.81 58.66 14.13 57.34 14.13 55.72ZM14.13 73.31C14.13 71.69 12.81 70.37 11.19 70.37C9.57 70.37 8.25 71.69 8.25 73.31C8.25 74.93 9.57 76.25 11.19 76.25C12.81 76.25 14.13 74.93 14.13 73.31Z" fill="#F5FCCF"/>
<path d="M81.56 94.13C79.94 94.13 78.62 92.81 78.62 91.19C78.62 89.57 79.94 88.25 81.56 88.25C83.18 88.25 84.5 89.57 84.5 91.19C84.5 92.82 83.18 94.13 81.56 94.13ZM84.5 108.78C84.5 107.16 83.18 105.84 81.56 105.84C79.94 105.84 78.62 107.16 78.62 108.78C78.62 110.4 79.94 111.72 81.56 111.72C83.18 111.72 84.5 110.41 84.5 108.78ZM84.5 126.37C84.5 124.75 83.18 123.43 81.56 123.43C79.94 123.43 78.62 124.75 78.62 126.37C78.62 127.99 79.94 129.31 81.56 129.31C83.18 129.32 84.5 128 84.5 126.37ZM84.5 143.97C84.5 142.35 83.18 141.03 81.56 141.03C79.94 141.03 78.62 142.35 78.62 143.97C78.62 145.59 79.94 146.91 81.56 146.91C83.18 146.91 84.5 145.59 84.5 143.97ZM84.5 161.56C84.5 159.94 83.18 158.62 81.56 158.62C79.94 158.62 78.62 159.94 78.62 161.56C78.62 163.18 79.94 164.5 81.56 164.5C83.18 164.5 84.5 163.18 84.5 161.56ZM66.91 91.19C66.91 89.57 65.59 88.25 63.97 88.25C62.35 88.25 61.03 89.57 61.03 91.19C61.03 92.81 62.35 94.13 63.97 94.13C65.59 94.13 66.91 92.82 66.91 91.19ZM66.91 108.78C66.91 107.16 65.59 105.84 63.97 105.84C62.35 105.84 61.03 107.16 61.03 108.78C61.03 110.4 62.35 111.72 63.97 111.72C65.59 111.72 66.91 110.41 66.91 108.78ZM66.91 126.37C66.91 124.75 65.59 123.43 63.97 123.43C62.35 123.43 61.03 124.75 61.03 126.37C61.03 127.99 62.35 129.31 63.97 129.31C65.59 129.32 66.91 128 66.91 126.37ZM66.91 143.97C66.91 142.35 65.59 141.03 63.97 141.03C62.35 141.03 61.03 142.35 61.03 143.97C61.03 145.59 62.35 146.91 63.97 146.91C65.59 146.91 66.91 145.59 66.91 143.97ZM66.91 161.56C66.91 159.94 65.59 158.62 63.97 158.62C62.35 158.62 61.03 159.94 61.03 161.56C61.03 163.18 62.35 164.5 63.97 164.5C65.59 164.5 66.91 163.18 66.91 161.56ZM49.31 91.19C49.31 89.57 47.99 88.25 46.37 88.25C44.75 88.25 43.43 89.57 43.43 91.19C43.43 92.81 44.75 94.13 46.37 94.13C48 94.13 49.31 92.82 49.31 91.19ZM49.31 108.78C49.31 107.16 47.99 105.84 46.37 105.84C44.75 105.84 43.43 107.16 43.43 108.78C43.43 110.4 44.75 111.72 46.37 111.72C48 111.72 49.31 110.41 49.31 108.78ZM49.31 126.37C49.31 124.75 47.99 123.43 46.37 123.43C44.75 123.43 43.43 124.75 43.43 126.37C43.43 127.99 44.75 129.31 46.37 129.31C48 129.32 49.31 128 49.31 126.37ZM49.31 143.97C49.31 142.35 47.99 141.03 46.37 141.03C44.75 141.03 43.43 142.35 43.43 143.97C43.43 145.59 44.75 146.91 46.37 146.91C48 146.91 49.31 145.59 49.31 143.97ZM49.31 161.56C49.31 159.94 47.99 158.62 46.37 158.62C44.75 158.62 43.43 159.94 43.43 161.56C43.43 163.18 44.75 164.5 46.37 164.5C48 164.5 49.31 163.18 49.31 161.56ZM31.72 91.19C31.72 89.57 30.4 88.25 28.78 88.25C27.16 88.25 25.84 89.57 25.84 91.19C25.84 92.81 27.16 94.13 28.78 94.13C30.41 94.13 31.72 92.82 31.72 91.19ZM31.72 108.78C31.72 107.16 30.4 105.84 28.78 105.84C27.16 105.84 25.84 107.16 25.84 108.78C25.84 110.4 27.16 111.72 28.78 111.72C30.41 111.72 31.72 110.41 31.72 108.78ZM31.72 126.37C31.72 124.75 30.4 123.43 28.78 123.43C27.16 123.43 25.84 124.75 25.84 126.37C25.84 127.99 27.16 129.31 28.78 129.31C30.41 129.32 31.72 128 31.72 126.37ZM31.72 143.97C31.72 142.35 30.4 141.03 28.78 141.03C27.16 141.03 25.84 142.35 25.84 143.97C25.84 145.59 27.16 146.91 28.78 146.91C30.41 146.91 31.72 145.59 31.72 143.97ZM31.72 161.56C31.72 159.94 30.4 158.62 28.78 158.62C27.16 158.62 25.84 159.94 25.84 161.56C25.84 163.18 27.16 164.5 28.78 164.5C30.41 164.5 31.72 163.18 31.72 161.56ZM14.13 91.19C14.13 89.57 12.81 88.25 11.19 88.25C9.57 88.25 8.25 89.57 8.25 91.19C8.25 92.81 9.57 94.13 11.19 94.13C12.81 94.13 14.13 92.82 14.13 91.19ZM14.13 108.78C14.13 107.16 12.81 105.84 11.19 105.84C9.57 105.84 8.25 107.16 8.25 108.78C8.25 110.4 9.57 111.72 11.19 111.72C12.81 111.72 14.13 110.41 14.13 108.78ZM14.13 126.37C14.13 124.75 12.81 123.43 11.19 123.43C9.57 123.43 8.25 124.75 8.25 126.37C8.25 127.99 9.57 129.31 11.19 129.31C12.81 129.31 14.13 128 14.13 126.37ZM14.13 143.97C14.13 142.35 12.81 141.03 11.19 141.03C9.57 141.03 8.25 142.35 8.25 143.97C8.25 145.59 9.57 146.91 11.19 146.91C12.81 146.91 14.13 145.59 14.13 143.97ZM14.13 161.56C14.13 159.94 12.81 158.62 11.19 158.62C9.57 158.62 8.25 159.94 8.25 161.56C8.25 163.18 9.57 164.5 11.19 164.5C12.81 164.5 14.13 163.18 14.13 161.56Z" fill="#F5FCCF"/>
<path d="M81.56 182.38C79.94 182.38 78.62 181.06 78.62 179.44C78.62 177.82 79.94 176.5 81.56 176.5C83.18 176.5 84.5 177.82 84.5 179.44C84.5 181.07 83.18 182.38 81.56 182.38ZM84.5 197.03C84.5 195.41 83.18 194.09 81.56 194.09C79.94 194.09 78.62 195.41 78.62 197.03C78.62 198.65 79.94 199.97 81.56 199.97C83.18 199.97 84.5 198.66 84.5 197.03ZM84.5 214.62C84.5 213 83.18 211.68 81.56 211.68C79.94 211.68 78.62 213 78.62 214.62C78.62 216.24 79.94 217.56 81.56 217.56C83.18 217.57 84.5 216.25 84.5 214.62ZM84.5 232.22C84.5 230.6 83.18 229.28 81.56 229.28C79.94 229.28 78.62 230.6 78.62 232.22C78.62 233.84 79.94 235.16 81.56 235.16C83.18 235.16 84.5 233.84 84.5 232.22ZM84.5 249.81C84.5 248.19 83.18 246.87 81.56 246.87C79.94 246.87 78.62 248.19 78.62 249.81C78.62 251.43 79.94 252.75 81.56 252.75C83.18 252.75 84.5 251.43 84.5 249.81ZM66.91 179.44C66.91 177.82 65.59 176.5 63.97 176.5C62.35 176.5 61.03 177.82 61.03 179.44C61.03 181.06 62.35 182.38 63.97 182.38C65.59 182.38 66.91 181.07 66.91 179.44ZM66.91 197.03C66.91 195.41 65.59 194.09 63.97 194.09C62.35 194.09 61.03 195.41 61.03 197.03C61.03 198.65 62.35 199.97 63.97 199.97C65.59 199.97 66.91 198.66 66.91 197.03ZM66.91 214.62C66.91 213 65.59 211.68 63.97 211.68C62.35 211.68 61.03 213 61.03 214.62C61.03 216.24 62.35 217.56 63.97 217.56C65.59 217.57 66.91 216.25 66.91 214.62ZM66.91 232.22C66.91 230.6 65.59 229.28 63.97 229.28C62.35 229.28 61.03 230.6 61.03 232.22C61.03 233.84 62.35 235.16 63.97 235.16C65.59 235.16 66.91 233.84 66.91 232.22ZM66.91 249.81C66.91 248.19 65.59 246.87 63.97 246.87C62.35 246.87 61.03 248.19 61.03 249.81C61.03 251.43 62.35 252.75 63.97 252.75C65.59 252.75 66.91 251.43 66.91 249.81ZM49.31 179.44C49.31 177.82 47.99 176.5 46.37 176.5C44.75 176.5 43.43 177.82 43.43 179.44C43.43 181.06 44.75 182.38 46.37 182.38C48 182.38 49.31 181.07 49.31 179.44ZM49.31 197.03C49.31 195.41 47.99 194.09 46.37 194.09C44.75 194.09 43.43 195.41 43.43 197.03C43.43 198.65 44.75 199.97 46.37 199.97C48 199.97 49.31 198.66 49.31 197.03ZM49.31 214.62C49.31 213 47.99 211.68 46.37 211.68C44.75 211.68 43.43 213 43.43 214.62C43.43 216.24 44.75 217.56 46.37 217.56C48 217.57 49.31 216.25 49.31 214.62ZM49.31 232.22C49.31 230.6 47.99 229.28 46.37 229.28C44.75 229.28 43.43 230.6 43.43 232.22C43.43 233.84 44.75 235.16 46.37 235.16C48 235.16 49.31 233.84 49.31 232.22ZM49.31 249.81C49.31 248.19 47.99 246.87 46.37 246.87C44.75 246.87 43.43 248.19 43.43 249.81C43.43 251.43 44.75 252.75 46.37 252.75C48 252.75 49.31 251.43 49.31 249.81ZM31.72 179.44C31.72 177.82 30.4 176.5 28.78 176.5C27.16 176.5 25.84 177.82 25.84 179.44C25.84 181.06 27.16 182.38 28.78 182.38C30.41 182.38 31.72 181.07 31.72 179.44ZM31.72 197.03C31.72 195.41 30.4 194.09 28.78 194.09C27.16 194.09 25.84 195.41 25.84 197.03C25.84 198.65 27.16 199.97 28.78 199.97C30.41 199.97 31.72 198.66 31.72 197.03ZM31.72 214.62C31.72 213 30.4 211.68 28.78 211.68C27.16 211.68 25.84 213 25.84 214.62C25.84 216.24 27.16 217.56 28.78 217.56C30.41 217.57 31.72 216.25 31.72 214.62ZM31.72 232.22C31.72 230.6 30.4 229.28 28.78 229.28C27.16 229.28 25.84 230.6 25.84 232.22C25.84 233.84 27.16 235.16 28.78 235.16C30.41 235.16 31.72 233.84 31.72 232.22ZM31.72 249.81C31.72 248.19 30.4 246.87 28.78 246.87C27.16 246.87 25.84 248.19 25.84 249.81C25.84 251.43 27.16 252.75 28.78 252.75C30.41 252.75 31.72 251.43 31.72 249.81ZM14.13 179.44C14.13 177.82 12.81 176.5 11.19 176.5C9.57 176.5 8.25 177.82 8.25 179.44C8.25 181.06 9.57 182.38 11.19 182.38C12.81 182.38 14.13 181.07 14.13 179.44ZM14.13 197.03C14.13 195.41 12.81 194.09 11.19 194.09C9.57 194.09 8.25 195.41 8.25 197.03C8.25 198.65 9.57 199.97 11.19 199.97C12.81 199.97 14.13 198.66 14.13 197.03ZM14.13 214.62C14.13 213 12.81 211.68 11.19 211.68C9.57 211.68 8.25 213 8.25 214.62C8.25 216.24 9.57 217.56 11.19 217.56C12.81 217.56 14.13 216.25 14.13 214.62ZM14.13 232.22C14.13 230.6 12.81 229.28 11.19 229.28C9.57 229.28 8.25 230.6 8.25 232.22C8.25 233.84 9.57 235.16 11.19 235.16C12.81 235.16 14.13 233.84 14.13 232.22ZM14.13 249.81C14.13 248.19 12.81 246.87 11.19 246.87C9.57 246.87 8.25 248.19 8.25 249.81C8.25 251.43 9.57 252.75 11.19 252.75C12.81 252.75 14.13 251.43 14.13 249.81Z" fill="#F5FCCF"/>
<path d="M81.56 270.63C79.94 270.63 78.62 269.31 78.62 267.69C78.62 266.07 79.94 264.75 81.56 264.75C83.18 264.75 84.5 266.07 84.5 267.69C84.5 269.32 83.18 270.63 81.56 270.63ZM84.5 285.28C84.5 283.66 83.18 282.34 81.56 282.34C79.94 282.34 78.62 283.66 78.62 285.28C78.62 286.9 79.94 288.22 81.56 288.22C83.18 288.22 84.5 286.91 84.5 285.28ZM84.5 302.87C84.5 301.25 83.18 299.93 81.56 299.93C79.94 299.93 78.62 301.25 78.62 302.87C78.62 304.49 79.94 305.81 81.56 305.81C83.18 305.82 84.5 304.5 84.5 302.87ZM84.5 320.47C84.5 318.85 83.18 317.53 81.56 317.53C79.94 317.53 78.62 318.85 78.62 320.47C78.62 322.09 79.94 323.41 81.56 323.41C83.18 323.41 84.5 322.09 84.5 320.47ZM84.5 338.06C84.5 336.44 83.18 335.12 81.56 335.12C79.94 335.12 78.62 336.44 78.62 338.06C78.62 339.68 79.94 341 81.56 341C83.18 341 84.5 339.68 84.5 338.06ZM66.91 267.69C66.91 266.07 65.59 264.75 63.97 264.75C62.35 264.75 61.03 266.07 61.03 267.69C61.03 269.31 62.35 270.63 63.97 270.63C65.59 270.63 66.91 269.32 66.91 267.69ZM66.91 285.28C66.91 283.66 65.59 282.34 63.97 282.34C62.35 282.34 61.03 283.66 61.03 285.28C61.03 286.9 62.35 288.22 63.97 288.22C65.59 288.22 66.91 286.91 66.91 285.28ZM66.91 302.87C66.91 301.25 65.59 299.93 63.97 299.93C62.35 299.93 61.03 301.25 61.03 302.87C61.03 304.49 62.35 305.81 63.97 305.81C65.59 305.82 66.91 304.5 66.91 302.87ZM66.91 320.47C66.91 318.85 65.59 317.53 63.97 317.53C62.35 317.53 61.03 318.85 61.03 320.47C61.03 322.09 62.35 323.41 63.97 323.41C65.59 323.41 66.91 322.09 66.91 320.47ZM66.91 338.06C66.91 336.44 65.59 335.12 63.97 335.12C62.35 335.12 61.03 336.44 61.03 338.06C61.03 339.68 62.35 341 63.97 341C65.59 341 66.91 339.68 66.91 338.06ZM49.31 267.69C49.31 266.07 47.99 264.75 46.37 264.75C44.75 264.75 43.43 266.07 43.43 267.69C43.43 269.31 44.75 270.63 46.37 270.63C48 270.63 49.31 269.32 49.31 267.69ZM49.31 285.28C49.31 283.66 47.99 282.34 46.37 282.34C44.75 282.34 43.43 283.66 43.43 285.28C43.43 286.9 44.75 288.22 46.37 288.22C48 288.22 49.31 286.91 49.31 285.28ZM49.31 302.87C49.31 301.25 47.99 299.93 46.37 299.93C44.75 299.93 43.43 301.25 43.43 302.87C43.43 304.49 44.75 305.81 46.37 305.81C48 305.82 49.31 304.5 49.31 302.87ZM49.31 320.47C49.31 318.85 47.99 317.53 46.37 317.53C44.75 317.53 43.43 318.85 43.43 320.47C43.43 322.09 44.75 323.41 46.37 323.41C48 323.41 49.31 322.09 49.31 320.47ZM49.31 338.06C49.31 336.44 47.99 335.12 46.37 335.12C44.75 335.12 43.43 336.44 43.43 338.06C43.43 339.68 44.75 341 46.37 341C48 341 49.31 339.68 49.31 338.06ZM31.72 267.69C31.72 266.07 30.4 264.75 28.78 264.75C27.16 264.75 25.84 266.07 25.84 267.69C25.84 269.31 27.16 270.63 28.78 270.63C30.41 270.63 31.72 269.32 31.72 267.69ZM31.72 285.28C31.72 283.66 30.4 282.34 28.78 282.34C27.16 282.34 25.84 283.66 25.84 285.28C25.84 286.9 27.16 288.22 28.78 288.22C30.41 288.22 31.72 286.91 31.72 285.28ZM31.72 302.87C31.72 301.25 30.4 299.93 28.78 299.93C27.16 299.93 25.84 301.25 25.84 302.87C25.84 304.49 27.16 305.81 28.78 305.81C30.41 305.82 31.72 304.5 31.72 302.87ZM31.72 320.47C31.72 318.85 30.4 317.53 28.78 317.53C27.16 317.53 25.84 318.85 25.84 320.47C25.84 322.09 27.16 323.41 28.78 323.41C30.41 323.41 31.72 322.09 31.72 320.47ZM31.72 338.06C31.72 336.44 30.4 335.12 28.78 335.12C27.16 335.12 25.84 336.44 25.84 338.06C25.84 339.68 27.16 341 28.78 341C30.41 341 31.72 339.68 31.72 338.06ZM14.13 267.69C14.13 266.07 12.81 264.75 11.19 264.75C9.57 264.75 8.25 266.07 8.25 267.69C8.25 269.31 9.57 270.63 11.19 270.63C12.81 270.63 14.13 269.32 14.13 267.69ZM14.13 285.28C14.13 283.66 12.81 282.34 11.19 282.34C9.57 282.34 8.25 283.66 8.25 285.28C8.25 286.9 9.57 288.22 11.19 288.22C12.81 288.22 14.13 286.91 14.13 285.28ZM14.13 302.87C14.13 301.25 12.81 299.93 11.19 299.93C9.57 299.93 8.25 301.25 8.25 302.87C8.25 304.49 9.57 305.81 11.19 305.81C12.81 305.81 14.13 304.5 14.13 302.87ZM14.13 320.47C14.13 318.85 12.81 317.53 11.19 317.53C9.57 317.53 8.25 318.85 8.25 320.47C8.25 322.09 9.57 323.41 11.19 323.41C12.81 323.41 14.13 322.09 14.13 320.47ZM14.13 338.06C14.13 336.44 12.81 335.12 11.19 335.12C9.57 335.12 8.25 336.44 8.25 338.06C8.25 339.68 9.57 341 11.19 341C12.81 341 14.13 339.68 14.13 338.06Z" fill="#F5FCCF"/>
<path d="M81.56 358.88C79.94 358.88 78.62 357.56 78.62 355.94C78.62 354.32 79.94 353 81.56 353C83.18 353 84.5 354.32 84.5 355.94C84.5 357.57 83.18 358.88 81.56 358.88ZM84.5 373.53C84.5 371.91 83.18 370.59 81.56 370.59C79.94 370.59 78.62 371.91 78.62 373.53C78.62 375.15 79.94 376.47 81.56 376.47C83.18 376.47 84.5 375.16 84.5 373.53ZM84.5 391.12C84.5 389.5 83.18 388.18 81.56 388.18C79.94 388.18 78.62 389.5 78.62 391.12C78.62 392.74 79.94 394.06 81.56 394.06C83.18 394.07 84.5 392.75 84.5 391.12ZM84.5 408.72C84.5 407.1 83.18 405.78 81.56 405.78C79.94 405.78 78.62 407.1 78.62 408.72C78.62 410.34 79.94 411.66 81.56 411.66C83.18 411.66 84.5 410.34 84.5 408.72ZM84.5 426.31C84.5 424.69 83.18 423.37 81.56 423.37C79.94 423.37 78.62 424.69 78.62 426.31C78.62 427.93 79.94 429.25 81.56 429.25C83.18 429.25 84.5 427.93 84.5 426.31ZM66.91 355.94C66.91 354.32 65.59 353 63.97 353C62.35 353 61.03 354.32 61.03 355.94C61.03 357.56 62.35 358.88 63.97 358.88C65.59 358.88 66.91 357.57 66.91 355.94ZM66.91 373.53C66.91 371.91 65.59 370.59 63.97 370.59C62.35 370.59 61.03 371.91 61.03 373.53C61.03 375.15 62.35 376.47 63.97 376.47C65.59 376.47 66.91 375.16 66.91 373.53ZM66.91 391.12C66.91 389.5 65.59 388.18 63.97 388.18C62.35 388.18 61.03 389.5 61.03 391.12C61.03 392.74 62.35 394.06 63.97 394.06C65.59 394.07 66.91 392.75 66.91 391.12ZM66.91 408.72C66.91 407.1 65.59 405.78 63.97 405.78C62.35 405.78 61.03 407.1 61.03 408.72C61.03 410.34 62.35 411.66 63.97 411.66C65.59 411.66 66.91 410.34 66.91 408.72ZM66.91 426.31C66.91 424.69 65.59 423.37 63.97 423.37C62.35 423.37 61.03 424.69 61.03 426.31C61.03 427.93 62.35 429.25 63.97 429.25C65.59 429.25 66.91 427.93 66.91 426.31ZM49.31 355.94C49.31 354.32 47.99 353 46.37 353C44.75 353 43.43 354.32 43.43 355.94C43.43 357.56 44.75 358.88 46.37 358.88C48 358.88 49.31 357.57 49.31 355.94ZM49.31 373.53C49.31 371.91 47.99 370.59 46.37 370.59C44.75 370.59 43.43 371.91 43.43 373.53C43.43 375.15 44.75 376.47 46.37 376.47C48 376.47 49.31 375.16 49.31 373.53ZM49.31 391.12C49.31 389.5 47.99 388.18 46.37 388.18C44.75 388.18 43.43 389.5 43.43 391.12C43.43 392.74 44.75 394.06 46.37 394.06C48 394.07 49.31 392.75 49.31 391.12ZM49.31 408.72C49.31 407.1 47.99 405.78 46.37 405.78C44.75 405.78 43.43 407.1 43.43 408.72C43.43 410.34 44.75 411.66 46.37 411.66C48 411.66 49.31 410.34 49.31 408.72ZM49.31 426.31C49.31 424.69 47.99 423.37 46.37 423.37C44.75 423.37 43.43 424.69 43.43 426.31C43.43 427.93 44.75 429.25 46.37 429.25C48 429.25 49.31 427.93 49.31 426.31ZM31.72 355.94C31.72 354.32 30.4 353 28.78 353C27.16 353 25.84 354.32 25.84 355.94C25.84 357.56 27.16 358.88 28.78 358.88C30.41 358.88 31.72 357.57 31.72 355.94ZM31.72 373.53C31.72 371.91 30.4 370.59 28.78 370.59C27.16 370.59 25.84 371.91 25.84 373.53C25.84 375.15 27.16 376.47 28.78 376.47C30.41 376.47 31.72 375.16 31.72 373.53ZM31.72 391.12C31.72 389.5 30.4 388.18 28.78 388.18C27.16 388.18 25.84 389.5 25.84 391.12C25.84 392.74 27.16 394.06 28.78 394.06C30.41 394.07 31.72 392.75 31.72 391.12ZM31.72 408.72C31.72 407.1 30.4 405.78 28.78 405.78C27.16 405.78 25.84 407.1 25.84 408.72C25.84 410.34 27.16 411.66 28.78 411.66C30.41 411.66 31.72 410.34 31.72 408.72ZM31.72 426.31C31.72 424.69 30.4 423.37 28.78 423.37C27.16 423.37 25.84 424.69 25.84 426.31C25.84 427.93 27.16 429.25 28.78 429.25C30.41 429.25 31.72 427.93 31.72 426.31ZM14.13 355.94C14.13 354.32 12.81 353 11.19 353C9.57 353 8.25 354.32 8.25 355.94C8.25 357.56 9.57 358.88 11.19 358.88C12.81 358.88 14.13 357.57 14.13 355.94ZM14.13 373.53C14.13 371.91 12.81 370.59 11.19 370.59C9.57 370.59 8.25 371.91 8.25 373.53C8.25 375.15 9.57 376.47 11.19 376.47C12.81 376.47 14.13 375.16 14.13 373.53ZM14.13 391.12C14.13 389.5 12.81 388.18 11.19 388.18C9.57 388.18 8.25 389.5 8.25 391.12C8.25 392.74 9.57 394.06 11.19 394.06C12.81 394.06 14.13 392.75 14.13 391.12ZM14.13 408.72C14.13 407.1 12.81 405.78 11.19 405.78C9.57 405.78 8.25 407.1 8.25 408.72C8.25 410.34 9.57 411.66 11.19 411.66C12.81 411.66 14.13 410.34 14.13 408.72ZM14.13 426.31C14.13 424.69 12.81 423.37 11.19 423.37C9.57 423.37 8.25 424.69 8.25 426.31C8.25 427.93 9.57 429.25 11.19 429.25C12.81 429.25 14.13 427.93 14.13 426.31Z" fill="#F5FCCF"/>
<path d="M169.81 5.88C168.19 5.88 166.87 4.56 166.87 2.94C166.87 1.32 168.19 0 169.81 0C171.43 0 172.75 1.32 172.75 2.94C172.75 4.57 171.43 5.88 169.81 5.88ZM172.75 20.53C172.75 18.91 171.43 17.59 169.81 17.59C168.19 17.59 166.87 18.91 166.87 20.53C166.87 22.15 168.19 23.47 169.81 23.47C171.43 23.47 172.75 22.16 172.75 20.53ZM172.75 38.12C172.75 36.5 171.43 35.18 169.81 35.18C168.19 35.18 166.87 36.5 166.87 38.12C166.87 39.74 168.19 41.06 169.81 41.06C171.43 41.07 172.75 39.75 172.75 38.12ZM172.75 55.72C172.75 54.1 171.43 52.78 169.81 52.78C168.19 52.78 166.87 54.1 166.87 55.72C166.87 57.34 168.19 58.66 169.81 58.66C171.43 58.66 172.75 57.34 172.75 55.72ZM172.75 73.31C172.75 71.69 171.43 70.37 169.81 70.37C168.19 70.37 166.87 71.69 166.87 73.31C166.87 74.93 168.19 76.25 169.81 76.25C171.43 76.25 172.75 74.93 172.75 73.31ZM155.16 2.94C155.16 1.32 153.84 0 152.22 0C150.6 0 149.28 1.32 149.28 2.94C149.28 4.56 150.6 5.88 152.22 5.88C153.84 5.88 155.16 4.57 155.16 2.94ZM155.16 20.53C155.16 18.91 153.84 17.59 152.22 17.59C150.6 17.59 149.28 18.91 149.28 20.53C149.28 22.15 150.6 23.47 152.22 23.47C153.84 23.47 155.16 22.16 155.16 20.53ZM155.16 38.12C155.16 36.5 153.84 35.18 152.22 35.18C150.6 35.18 149.28 36.5 149.28 38.12C149.28 39.74 150.6 41.06 152.22 41.06C153.84 41.07 155.16 39.75 155.16 38.12ZM155.16 55.72C155.16 54.1 153.84 52.78 152.22 52.78C150.6 52.78 149.28 54.1 149.28 55.72C149.28 57.34 150.6 58.66 152.22 58.66C153.84 58.66 155.16 57.34 155.16 55.72ZM155.16 73.31C155.16 71.69 153.84 70.37 152.22 70.37C150.6 70.37 149.28 71.69 149.28 73.31C149.28 74.93 150.6 76.25 152.22 76.25C153.84 76.25 155.16 74.93 155.16 73.31ZM137.56 2.94C137.56 1.32 136.24 0 134.62 0C133 0 131.68 1.32 131.68 2.94C131.68 4.56 133 5.88 134.62 5.88C136.25 5.88 137.56 4.57 137.56 2.94ZM137.56 20.53C137.56 18.91 136.24 17.59 134.62 17.59C133 17.59 131.68 18.91 131.68 20.53C131.68 22.15 133 23.47 134.62 23.47C136.25 23.47 137.56 22.16 137.56 20.53ZM137.56 38.12C137.56 36.5 136.24 35.18 134.62 35.18C133 35.18 131.68 36.5 131.68 38.12C131.68 39.74 133 41.06 134.62 41.06C136.25 41.07 137.56 39.75 137.56 38.12ZM137.56 55.72C137.56 54.1 136.24 52.78 134.62 52.78C133 52.78 131.68 54.1 131.68 55.72C131.68 57.34 133 58.66 134.62 58.66C136.25 58.66 137.56 57.34 137.56 55.72ZM137.56 73.31C137.56 71.69 136.24 70.37 134.62 70.37C133 70.37 131.68 71.69 131.68 73.31C131.68 74.93 133 76.25 134.62 76.25C136.25 76.25 137.56 74.93 137.56 73.31ZM119.97 2.94C119.97 1.32 118.65 0 117.03 0C115.41 0 114.09 1.32 114.09 2.94C114.09 4.56 115.41 5.88 117.03 5.88C118.66 5.88 119.97 4.57 119.97 2.94ZM119.97 20.53C119.97 18.91 118.65 17.59 117.03 17.59C115.41 17.59 114.09 18.91 114.09 20.53C114.09 22.15 115.41 23.47 117.03 23.47C118.66 23.47 119.97 22.16 119.97 20.53ZM119.97 38.12C119.97 36.5 118.65 35.18 117.03 35.18C115.41 35.18 114.09 36.5 114.09 38.12C114.09 39.74 115.41 41.06 117.03 41.06C118.66 41.07 119.97 39.75 119.97 38.12ZM119.97 55.72C119.97 54.1 118.65 52.78 117.03 52.78C115.41 52.78 114.09 54.1 114.09 55.72C114.09 57.34 115.41 58.66 117.03 58.66C118.66 58.66 119.97 57.34 119.97 55.72ZM119.97 73.31C119.97 71.69 118.65 70.37 117.03 70.37C115.41 70.37 114.09 71.69 114.09 73.31C114.09 74.93 115.41 76.25 117.03 76.25C118.66 76.25 119.97 74.93 119.97 73.31ZM102.38 2.94C102.38 1.32 101.06 0 99.44 0C97.82 0 96.5 1.32 96.5 2.94C96.5 4.56 97.82 5.88 99.44 5.88C101.06 5.88 102.38 4.57 102.38 2.94ZM102.38 20.53C102.38 18.91 101.06 17.59 99.44 17.59C97.82 17.59 96.5 18.91 96.5 20.53C96.5 22.15 97.82 23.47 99.44 23.47C101.06 23.47 102.38 22.16 102.38 20.53ZM102.38 38.12C102.38 36.5 101.06 35.18 99.44 35.18C97.82 35.18 96.5 36.5 96.5 38.12C96.5 39.74 97.82 41.06 99.44 41.06C101.06 41.06 102.38 39.75 102.38 38.12ZM102.38 55.72C102.38 54.1 101.06 52.78 99.44 52.78C97.82 52.78 96.5 54.1 96.5 55.72C96.5 57.34 97.82 58.66 99.44 58.66C101.06 58.66 102.38 57.34 102.38 55.72ZM102.38 73.31C102.38 71.69 101.06 70.37 99.44 70.37C97.82 70.37 96.5 71.69 96.5 73.31C96.5 74.93 97.82 76.25 99.44 76.25C101.06 76.25 102.38 74.93 102.38 73.31Z" fill="#F5FCCF"/>
<path d="M169.81 94.13C168.19 94.13 166.87 92.81 166.87 91.19C166.87 89.57 168.19 88.25 169.81 88.25C171.43 88.25 172.75 89.57 172.75 91.19C172.75 92.82 171.43 94.13 169.81 94.13ZM172.75 108.78C172.75 107.16 171.43 105.84 169.81 105.84C168.19 105.84 166.87 107.16 166.87 108.78C166.87 110.4 168.19 111.72 169.81 111.72C171.43 111.72 172.75 110.41 172.75 108.78ZM172.75 126.37C172.75 124.75 171.43 123.43 169.81 123.43C168.19 123.43 166.87 124.75 166.87 126.37C166.87 127.99 168.19 129.31 169.81 129.31C171.43 129.32 172.75 128 172.75 126.37ZM172.75 143.97C172.75 142.35 171.43 141.03 169.81 141.03C168.19 141.03 166.87 142.35 166.87 143.97C166.87 145.59 168.19 146.91 169.81 146.91C171.43 146.91 172.75 145.59 172.75 143.97ZM172.75 161.56C172.75 159.94 171.43 158.62 169.81 158.62C168.19 158.62 166.87 159.94 166.87 161.56C166.87 163.18 168.19 164.5 169.81 164.5C171.43 164.5 172.75 163.18 172.75 161.56ZM155.16 91.19C155.16 89.57 153.84 88.25 152.22 88.25C150.6 88.25 149.28 89.57 149.28 91.19C149.28 92.81 150.6 94.13 152.22 94.13C153.84 94.13 155.16 92.82 155.16 91.19ZM155.16 108.78C155.16 107.16 153.84 105.84 152.22 105.84C150.6 105.84 149.28 107.16 149.28 108.78C149.28 110.4 150.6 111.72 152.22 111.72C153.84 111.72 155.16 110.41 155.16 108.78ZM155.16 126.37C155.16 124.75 153.84 123.43 152.22 123.43C150.6 123.43 149.28 124.75 149.28 126.37C149.28 127.99 150.6 129.31 152.22 129.31C153.84 129.32 155.16 128 155.16 126.37ZM155.16 143.97C155.16 142.35 153.84 141.03 152.22 141.03C150.6 141.03 149.28 142.35 149.28 143.97C149.28 145.59 150.6 146.91 152.22 146.91C153.84 146.91 155.16 145.59 155.16 143.97ZM155.16 161.56C155.16 159.94 153.84 158.62 152.22 158.62C150.6 158.62 149.28 159.94 149.28 161.56C149.28 163.18 150.6 164.5 152.22 164.5C153.84 164.5 155.16 163.18 155.16 161.56ZM137.56 91.19C137.56 89.57 136.24 88.25 134.62 88.25C133 88.25 131.68 89.57 131.68 91.19C131.68 92.81 133 94.13 134.62 94.13C136.25 94.13 137.56 92.82 137.56 91.19ZM137.56 108.78C137.56 107.16 136.24 105.84 134.62 105.84C133 105.84 131.68 107.16 131.68 108.78C131.68 110.4 133 111.72 134.62 111.72C136.25 111.72 137.56 110.41 137.56 108.78ZM137.56 126.37C137.56 124.75 136.24 123.43 134.62 123.43C133 123.43 131.68 124.75 131.68 126.37C131.68 127.99 133 129.31 134.62 129.31C136.25 129.32 137.56 128 137.56 126.37ZM137.56 143.97C137.56 142.35 136.24 141.03 134.62 141.03C133 141.03 131.68 142.35 131.68 143.97C131.68 145.59 133 146.91 134.62 146.91C136.25 146.91 137.56 145.59 137.56 143.97ZM137.56 161.56C137.56 159.94 136.24 158.62 134.62 158.62C133 158.62 131.68 159.94 131.68 161.56C131.68 163.18 133 164.5 134.62 164.5C136.25 164.5 137.56 163.18 137.56 161.56ZM119.97 91.19C119.97 89.57 118.65 88.25 117.03 88.25C115.41 88.25 114.09 89.57 114.09 91.19C114.09 92.81 115.41 94.13 117.03 94.13C118.66 94.13 119.97 92.82 119.97 91.19ZM119.97 108.78C119.97 107.16 118.65 105.84 117.03 105.84C115.41 105.84 114.09 107.16 114.09 108.78C114.09 110.4 115.41 111.72 117.03 111.72C118.66 111.72 119.97 110.41 119.97 108.78ZM119.97 126.37C119.97 124.75 118.65 123.43 117.03 123.43C115.41 123.43 114.09 124.75 114.09 126.37C114.09 127.99 115.41 129.31 117.03 129.31C118.66 129.32 119.97 128 119.97 126.37ZM119.97 143.97C119.97 142.35 118.65 141.03 117.03 141.03C115.41 141.03 114.09 142.35 114.09 143.97C114.09 145.59 115.41 146.91 117.03 146.91C118.66 146.91 119.97 145.59 119.97 143.97ZM119.97 161.56C119.97 159.94 118.65 158.62 117.03 158.62C115.41 158.62 114.09 159.94 114.09 161.56C114.09 163.18 115.41 164.5 117.03 164.5C118.66 164.5 119.97 163.18 119.97 161.56ZM102.38 91.19C102.38 89.57 101.06 88.25 99.44 88.25C97.82 88.25 96.5 89.57 96.5 91.19C96.5 92.81 97.82 94.13 99.44 94.13C101.06 94.13 102.38 92.82 102.38 91.19ZM102.38 108.78C102.38 107.16 101.06 105.84 99.44 105.84C97.82 105.84 96.5 107.16 96.5 108.78C96.5 110.4 97.82 111.72 99.44 111.72C101.06 111.72 102.38 110.41 102.38 108.78ZM102.38 126.37C102.38 124.75 101.06 123.43 99.44 123.43C97.82 123.43 96.5 124.75 96.5 126.37C96.5 127.99 97.82 129.31 99.44 129.31C101.06 129.31 102.38 128 102.38 126.37ZM102.38 143.97C102.38 142.35 101.06 141.03 99.44 141.03C97.82 141.03 96.5 142.35 96.5 143.97C96.5 145.59 97.82 146.91 99.44 146.91C101.06 146.91 102.38 145.59 102.38 143.97ZM102.38 161.56C102.38 159.94 101.06 158.62 99.44 158.62C97.82 158.62 96.5 159.94 96.5 161.56C96.5 163.18 97.82 164.5 99.44 164.5C101.06 164.5 102.38 163.18 102.38 161.56Z" fill="#F5FCCF"/>
<path d="M169.81 182.38C168.19 182.38 166.87 181.06 166.87 179.44C166.87 177.82 168.19 176.5 169.81 176.5C171.43 176.5 172.75 177.82 172.75 179.44C172.75 181.07 171.43 182.38 169.81 182.38ZM172.75 197.03C172.75 195.41 171.43 194.09 169.81 194.09C168.19 194.09 166.87 195.41 166.87 197.03C166.87 198.65 168.19 199.97 169.81 199.97C171.43 199.97 172.75 198.66 172.75 197.03ZM172.75 214.62C172.75 213 171.43 211.68 169.81 211.68C168.19 211.68 166.87 213 166.87 214.62C166.87 216.24 168.19 217.56 169.81 217.56C171.43 217.57 172.75 216.25 172.75 214.62ZM172.75 232.22C172.75 230.6 171.43 229.28 169.81 229.28C168.19 229.28 166.87 230.6 166.87 232.22C166.87 233.84 168.19 235.16 169.81 235.16C171.43 235.16 172.75 233.84 172.75 232.22ZM172.75 249.81C172.75 248.19 171.43 246.87 169.81 246.87C168.19 246.87 166.87 248.19 166.87 249.81C166.87 251.43 168.19 252.75 169.81 252.75C171.43 252.75 172.75 251.43 172.75 249.81ZM155.16 179.44C155.16 177.82 153.84 176.5 152.22 176.5C150.6 176.5 149.28 177.82 149.28 179.44C149.28 181.06 150.6 182.38 152.22 182.38C153.84 182.38 155.16 181.07 155.16 179.44ZM155.16 197.03C155.16 195.41 153.84 194.09 152.22 194.09C150.6 194.09 149.28 195.41 149.28 197.03C149.28 198.65 150.6 199.97 152.22 199.97C153.84 199.97 155.16 198.66 155.16 197.03ZM155.16 214.62C155.16 213 153.84 211.68 152.22 211.68C150.6 211.68 149.28 213 149.28 214.62C149.28 216.24 150.6 217.56 152.22 217.56C153.84 217.57 155.16 216.25 155.16 214.62ZM155.16 232.22C155.16 230.6 153.84 229.28 152.22 229.28C150.6 229.28 149.28 230.6 149.28 232.22C149.28 233.84 150.6 235.16 152.22 235.16C153.84 235.16 155.16 233.84 155.16 232.22ZM155.16 249.81C155.16 248.19 153.84 246.87 152.22 246.87C150.6 246.87 149.28 248.19 149.28 249.81C149.28 251.43 150.6 252.75 152.22 252.75C153.84 252.75 155.16 251.43 155.16 249.81ZM137.56 179.44C137.56 177.82 136.24 176.5 134.62 176.5C133 176.5 131.68 177.82 131.68 179.44C131.68 181.06 133 182.38 134.62 182.38C136.25 182.38 137.56 181.07 137.56 179.44ZM137.56 197.03C137.56 195.41 136.24 194.09 134.62 194.09C133 194.09 131.68 195.41 131.68 197.03C131.68 198.65 133 199.97 134.62 199.97C136.25 199.97 137.56 198.66 137.56 197.03ZM137.56 214.62C137.56 213 136.24 211.68 134.62 211.68C133 211.68 131.68 213 131.68 214.62C131.68 216.24 133 217.56 134.62 217.56C136.25 217.57 137.56 216.25 137.56 214.62ZM137.56 232.22C137.56 230.6 136.24 229.28 134.62 229.28C133 229.28 131.68 230.6 131.68 232.22C131.68 233.84 133 235.16 134.62 235.16C136.25 235.16 137.56 233.84 137.56 232.22ZM137.56 249.81C137.56 248.19 136.24 246.87 134.62 246.87C133 246.87 131.68 248.19 131.68 249.81C131.68 251.43 133 252.75 134.62 252.75C136.25 252.75 137.56 251.43 137.56 249.81ZM119.97 179.44C119.97 177.82 118.65 176.5 117.03 176.5C115.41 176.5 114.09 177.82 114.09 179.44C114.09 181.06 115.41 182.38 117.03 182.38C118.66 182.38 119.97 181.07 119.97 179.44ZM119.97 197.03C119.97 195.41 118.65 194.09 117.03 194.09C115.41 194.09 114.09 195.41 114.09 197.03C114.09 198.65 115.41 199.97 117.03 199.97C118.66 199.97 119.97 198.66 119.97 197.03ZM119.97 214.62C119.97 213 118.65 211.68 117.03 211.68C115.41 211.68 114.09 213 114.09 214.62C114.09 216.24 115.41 217.56 117.03 217.56C118.66 217.57 119.97 216.25 119.97 214.62ZM119.97 232.22C119.97 230.6 118.65 229.28 117.03 229.28C115.41 229.28 114.09 230.6 114.09 232.22C114.09 233.84 115.41 235.16 117.03 235.16C118.66 235.16 119.97 233.84 119.97 232.22ZM119.97 249.81C119.97 248.19 118.65 246.87 117.03 246.87C115.41 246.87 114.09 248.19 114.09 249.81C114.09 251.43 115.41 252.75 117.03 252.75C118.66 252.75 119.97 251.43 119.97 249.81ZM102.38 179.44C102.38 177.82 101.06 176.5 99.44 176.5C97.82 176.5 96.5 177.82 96.5 179.44C96.5 181.06 97.82 182.38 99.44 182.38C101.06 182.38 102.38 181.07 102.38 179.44ZM102.38 197.03C102.38 195.41 101.06 194.09 99.44 194.09C97.82 194.09 96.5 195.41 96.5 197.03C96.5 198.65 97.82 199.97 99.44 199.97C101.06 199.97 102.38 198.66 102.38 197.03ZM102.38 214.62C102.38 213 101.06 211.68 99.44 211.68C97.82 211.68 96.5 213 96.5 214.62C96.5 216.24 97.82 217.56 99.44 217.56C101.06 217.56 102.38 216.25 102.38 214.62ZM102.38 232.22C102.38 230.6 101.06 229.28 99.44 229.28C97.82 229.28 96.5 230.6 96.5 232.22C96.5 233.84 97.82 235.16 99.44 235.16C101.06 235.16 102.38 233.84 102.38 232.22ZM102.38 249.81C102.38 248.19 101.06 246.87 99.44 246.87C97.82 246.87 96.5 248.19 96.5 249.81C96.5 251.43 97.82 252.75 99.44 252.75C101.06 252.75 102.38 251.43 102.38 249.81Z" fill="#F5FCCF"/>
<path d="M169.81 270.63C168.19 270.63 166.87 269.31 166.87 267.69C166.87 266.07 168.19 264.75 169.81 264.75C171.43 264.75 172.75 266.07 172.75 267.69C172.75 269.32 171.43 270.63 169.81 270.63ZM172.75 285.28C172.75 283.66 171.43 282.34 169.81 282.34C168.19 282.34 166.87 283.66 166.87 285.28C166.87 286.9 168.19 288.22 169.81 288.22C171.43 288.22 172.75 286.91 172.75 285.28ZM172.75 302.87C172.75 301.25 171.43 299.93 169.81 299.93C168.19 299.93 166.87 301.25 166.87 302.87C166.87 304.49 168.19 305.81 169.81 305.81C171.43 305.82 172.75 304.5 172.75 302.87ZM172.75 320.47C172.75 318.85 171.43 317.53 169.81 317.53C168.19 317.53 166.87 318.85 166.87 320.47C166.87 322.09 168.19 323.41 169.81 323.41C171.43 323.41 172.75 322.09 172.75 320.47ZM172.75 338.06C172.75 336.44 171.43 335.12 169.81 335.12C168.19 335.12 166.87 336.44 166.87 338.06C166.87 339.68 168.19 341 169.81 341C171.43 341 172.75 339.68 172.75 338.06ZM155.16 267.69C155.16 266.07 153.84 264.75 152.22 264.75C150.6 264.75 149.28 266.07 149.28 267.69C149.28 269.31 150.6 270.63 152.22 270.63C153.84 270.63 155.16 269.32 155.16 267.69ZM155.16 285.28C155.16 283.66 153.84 282.34 152.22 282.34C150.6 282.34 149.28 283.66 149.28 285.28C149.28 286.9 150.6 288.22 152.22 288.22C153.84 288.22 155.16 286.91 155.16 285.28ZM155.16 302.87C155.16 301.25 153.84 299.93 152.22 299.93C150.6 299.93 149.28 301.25 149.28 302.87C149.28 304.49 150.6 305.81 152.22 305.81C153.84 305.82 155.16 304.5 155.16 302.87ZM155.16 320.47C155.16 318.85 153.84 317.53 152.22 317.53C150.6 317.53 149.28 318.85 149.28 320.47C149.28 322.09 150.6 323.41 152.22 323.41C153.84 323.41 155.16 322.09 155.16 320.47ZM155.16 338.06C155.16 336.44 153.84 335.12 152.22 335.12C150.6 335.12 149.28 336.44 149.28 338.06C149.28 339.68 150.6 341 152.22 341C153.84 341 155.16 339.68 155.16 338.06ZM137.56 267.69C137.56 266.07 136.24 264.75 134.62 264.75C133 264.75 131.68 266.07 131.68 267.69C131.68 269.31 133 270.63 134.62 270.63C136.25 270.63 137.56 269.32 137.56 267.69ZM137.56 285.28C137.56 283.66 136.24 282.34 134.62 282.34C133 282.34 131.68 283.66 131.68 285.28C131.68 286.9 133 288.22 134.62 288.22C136.25 288.22 137.56 286.91 137.56 285.28ZM137.56 302.87C137.56 301.25 136.24 299.93 134.62 299.93C133 299.93 131.68 301.25 131.68 302.87C131.68 304.49 133 305.81 134.62 305.81C136.25 305.82 137.56 304.5 137.56 302.87ZM137.56 320.47C137.56 318.85 136.24 317.53 134.62 317.53C133 317.53 131.68 318.85 131.68 320.47C131.68 322.09 133 323.41 134.62 323.41C136.25 323.41 137.56 322.09 137.56 320.47ZM137.56 338.06C137.56 336.44 136.24 335.12 134.62 335.12C133 335.12 131.68 336.44 131.68 338.06C131.68 339.68 133 341 134.62 341C136.25 341 137.56 339.68 137.56 338.06ZM119.97 267.69C119.97 266.07 118.65 264.75 117.03 264.75C115.41 264.75 114.09 266.07 114.09 267.69C114.09 269.31 115.41 270.63 117.03 270.63C118.66 270.63 119.97 269.32 119.97 267.69ZM119.97 285.28C119.97 283.66 118.65 282.34 117.03 282.34C115.41 282.34 114.09 283.66 114.09 285.28C114.09 286.9 115.41 288.22 117.03 288.22C118.66 288.22 119.97 286.91 119.97 285.28ZM119.97 302.87C119.97 301.25 118.65 299.93 117.03 299.93C115.41 299.93 114.09 301.25 114.09 302.87C114.09 304.49 115.41 305.81 117.03 305.81C118.66 305.82 119.97 304.5 119.97 302.87ZM119.97 320.47C119.97 318.85 118.65 317.53 117.03 317.53C115.41 317.53 114.09 318.85 114.09 320.47C114.09 322.09 115.41 323.41 117.03 323.41C118.66 323.41 119.97 322.09 119.97 320.47ZM119.97 338.06C119.97 336.44 118.65 335.12 117.03 335.12C115.41 335.12 114.09 336.44 114.09 338.06C114.09 339.68 115.41 341 117.03 341C118.66 341 119.97 339.68 119.97 338.06ZM102.38 267.69C102.38 266.07 101.06 264.75 99.44 264.75C97.82 264.75 96.5 266.07 96.5 267.69C96.5 269.31 97.82 270.63 99.44 270.63C101.06 270.63 102.38 269.32 102.38 267.69ZM102.38 285.28C102.38 283.66 101.06 282.34 99.44 282.34C97.82 282.34 96.5 283.66 96.5 285.28C96.5 286.9 97.82 288.22 99.44 288.22C101.06 288.22 102.38 286.91 102.38 285.28ZM102.38 302.87C102.38 301.25 101.06 299.93 99.44 299.93C97.82 299.93 96.5 301.25 96.5 302.87C96.5 304.49 97.82 305.81 99.44 305.81C101.06 305.81 102.38 304.5 102.38 302.87ZM102.38 320.47C102.38 318.85 101.06 317.53 99.44 317.53C97.82 317.53 96.5 318.85 96.5 320.47C96.5 322.09 97.82 323.41 99.44 323.41C101.06 323.41 102.38 322.09 102.38 320.47ZM102.38 338.06C102.38 336.44 101.06 335.12 99.44 335.12C97.82 335.12 96.5 336.44 96.5 338.06C96.5 339.68 97.82 341 99.44 341C101.06 341 102.38 339.68 102.38 338.06Z" fill="#F5FCCF"/>
<path d="M169.81 358.88C168.19 358.88 166.87 357.56 166.87 355.94C166.87 354.32 168.19 353 169.81 353C171.43 353 172.75 354.32 172.75 355.94C172.75 357.57 171.43 358.88 169.81 358.88ZM172.75 373.53C172.75 371.91 171.43 370.59 169.81 370.59C168.19 370.59 166.87 371.91 166.87 373.53C166.87 375.15 168.19 376.47 169.81 376.47C171.43 376.47 172.75 375.16 172.75 373.53ZM172.75 391.12C172.75 389.5 171.43 388.18 169.81 388.18C168.19 388.18 166.87 389.5 166.87 391.12C166.87 392.74 168.19 394.06 169.81 394.06C171.43 394.07 172.75 392.75 172.75 391.12ZM172.75 408.72C172.75 407.1 171.43 405.78 169.81 405.78C168.19 405.78 166.87 407.1 166.87 408.72C166.87 410.34 168.19 411.66 169.81 411.66C171.43 411.66 172.75 410.34 172.75 408.72ZM172.75 426.31C172.75 424.69 171.43 423.37 169.81 423.37C168.19 423.37 166.87 424.69 166.87 426.31C166.87 427.93 168.19 429.25 169.81 429.25C171.43 429.25 172.75 427.93 172.75 426.31ZM155.16 355.94C155.16 354.32 153.84 353 152.22 353C150.6 353 149.28 354.32 149.28 355.94C149.28 357.56 150.6 358.88 152.22 358.88C153.84 358.88 155.16 357.57 155.16 355.94ZM155.16 373.53C155.16 371.91 153.84 370.59 152.22 370.59C150.6 370.59 149.28 371.91 149.28 373.53C149.28 375.15 150.6 376.47 152.22 376.47C153.84 376.47 155.16 375.16 155.16 373.53ZM155.16 391.12C155.16 389.5 153.84 388.18 152.22 388.18C150.6 388.18 149.28 389.5 149.28 391.12C149.28 392.74 150.6 394.06 152.22 394.06C153.84 394.07 155.16 392.75 155.16 391.12ZM155.16 408.72C155.16 407.1 153.84 405.78 152.22 405.78C150.6 405.78 149.28 407.1 149.28 408.72C149.28 410.34 150.6 411.66 152.22 411.66C153.84 411.66 155.16 410.34 155.16 408.72ZM155.16 426.31C155.16 424.69 153.84 423.37 152.22 423.37C150.6 423.37 149.28 424.69 149.28 426.31C149.28 427.93 150.6 429.25 152.22 429.25C153.84 429.25 155.16 427.93 155.16 426.31ZM137.56 355.94C137.56 354.32 136.24 353 134.62 353C133 353 131.68 354.32 131.68 355.94C131.68 357.56 133 358.88 134.62 358.88C136.25 358.88 137.56 357.57 137.56 355.94ZM137.56 373.53C137.56 371.91 136.24 370.59 134.62 370.59C133 370.59 131.68 371.91 131.68 373.53C131.68 375.15 133 376.47 134.62 376.47C136.25 376.47 137.56 375.16 137.56 373.53ZM137.56 391.12C137.56 389.5 136.24 388.18 134.62 388.18C133 388.18 131.68 389.5 131.68 391.12C131.68 392.74 133 394.06 134.62 394.06C136.25 394.07 137.56 392.75 137.56 391.12ZM137.56 408.72C137.56 407.1 136.24 405.78 134.62 405.78C133 405.78 131.68 407.1 131.68 408.72C131.68 410.34 133 411.66 134.62 411.66C136.25 411.66 137.56 410.34 137.56 408.72ZM137.56 426.31C137.56 424.69 136.24 423.37 134.62 423.37C133 423.37 131.68 424.69 131.68 426.31C131.68 427.93 133 429.25 134.62 429.25C136.25 429.25 137.56 427.93 137.56 426.31ZM119.97 355.94C119.97 354.32 118.65 353 117.03 353C115.41 353 114.09 354.32 114.09 355.94C114.09 357.56 115.41 358.88 117.03 358.88C118.66 358.88 119.97 357.57 119.97 355.94ZM119.97 373.53C119.97 371.91 118.65 370.59 117.03 370.59C115.41 370.59 114.09 371.91 114.09 373.53C114.09 375.15 115.41 376.47 117.03 376.47C118.66 376.47 119.97 375.16 119.97 373.53ZM119.97 391.12C119.97 389.5 118.65 388.18 117.03 388.18C115.41 388.18 114.09 389.5 114.09 391.12C114.09 392.74 115.41 394.06 117.03 394.06C118.66 394.07 119.97 392.75 119.97 391.12ZM119.97 408.72C119.97 407.1 118.65 405.78 117.03 405.78C115.41 405.78 114.09 407.1 114.09 408.72C114.09 410.34 115.41 411.66 117.03 411.66C118.66 411.66 119.97 410.34 119.97 408.72ZM119.97 426.31C119.97 424.69 118.65 423.37 117.03 423.37C115.41 423.37 114.09 424.69 114.09 426.31C114.09 427.93 115.41 429.25 117.03 429.25C118.66 429.25 119.97 427.93 119.97 426.31ZM102.38 355.94C102.38 354.32 101.06 353 99.44 353C97.82 353 96.5 354.32 96.5 355.94C96.5 357.56 97.82 358.88 99.44 358.88C101.06 358.88 102.38 357.57 102.38 355.94ZM102.38 373.53C102.38 371.91 101.06 370.59 99.44 370.59C97.82 370.59 96.5 371.91 96.5 373.53C96.5 375.15 97.82 376.47 99.44 376.47C101.06 376.47 102.38 375.16 102.38 373.53ZM102.38 391.12C102.38 389.5 101.06 388.18 99.44 388.18C97.82 388.18 96.5 389.5 96.5 391.12C96.5 392.74 97.82 394.06 99.44 394.06C101.06 394.06 102.38 392.75 102.38 391.12ZM102.38 408.72C102.38 407.1 101.06 405.78 99.44 405.78C97.82 405.78 96.5 407.1 96.5 408.72C96.5 410.34 97.82 411.66 99.44 411.66C101.06 411.66 102.38 410.34 102.38 408.72ZM102.38 426.31C102.38 424.69 101.06 423.37 99.44 423.37C97.82 423.37 96.5 424.69 96.5 426.31C96.5 427.93 97.82 429.25 99.44 429.25C101.06 429.25 102.38 427.93 102.38 426.31Z" fill="#F5FCCF"/>
</svg>
