<svg width="165" height="430" viewBox="0 0 165 430" fill="none" xmlns="http://www.w3.org/2000/svg">
<path d="M73.56 5.88C71.94 5.88 70.62 4.56 70.62 2.94C70.62 1.32 71.94 0 73.56 0C75.18 0 76.5 1.32 76.5 2.94C76.5 4.57 75.18 5.88 73.56 5.88ZM76.5 20.53C76.5 18.91 75.18 17.59 73.56 17.59C71.94 17.59 70.62 18.91 70.62 20.53C70.62 22.15 71.94 23.47 73.56 23.47C75.18 23.47 76.5 22.16 76.5 20.53ZM76.5 38.12C76.5 36.5 75.18 35.18 73.56 35.18C71.94 35.18 70.62 36.5 70.62 38.12C70.62 39.74 71.94 41.06 73.56 41.06C75.18 41.07 76.5 39.75 76.5 38.12ZM76.5 55.72C76.5 54.1 75.18 52.78 73.56 52.78C71.94 52.78 70.62 54.1 70.62 55.72C70.62 57.34 71.94 58.66 73.56 58.66C75.18 58.66 76.5 57.34 76.5 55.72ZM76.5 73.31C76.5 71.69 75.18 70.37 73.56 70.37C71.94 70.37 70.62 71.69 70.62 73.31C70.62 74.93 71.94 76.25 73.56 76.25C75.18 76.25 76.5 74.93 76.5 73.31ZM58.91 2.94C58.91 1.32 57.59 0 55.97 0C54.35 0 53.03 1.32 53.03 2.94C53.03 4.56 54.35 5.88 55.97 5.88C57.59 5.88 58.91 4.57 58.91 2.94ZM58.91 20.53C58.91 18.91 57.59 17.59 55.97 17.59C54.35 17.59 53.03 18.91 53.03 20.53C53.03 22.15 54.35 23.47 55.97 23.47C57.59 23.47 58.91 22.16 58.91 20.53ZM58.91 38.12C58.91 36.5 57.59 35.18 55.97 35.18C54.35 35.18 53.03 36.5 53.03 38.12C53.03 39.74 54.35 41.06 55.97 41.06C57.59 41.07 58.91 39.75 58.91 38.12ZM58.91 55.72C58.91 54.1 57.59 52.78 55.97 52.78C54.35 52.78 53.03 54.1 53.03 55.72C53.03 57.34 54.35 58.66 55.97 58.66C57.59 58.66 58.91 57.34 58.91 55.72ZM58.91 73.31C58.91 71.69 57.59 70.37 55.97 70.37C54.35 70.37 53.03 71.69 53.03 73.31C53.03 74.93 54.35 76.25 55.97 76.25C57.59 76.25 58.91 74.93 58.91 73.31ZM41.31 2.94C41.31 1.32 39.99 0 38.37 0C36.75 0 35.43 1.32 35.43 2.94C35.43 4.56 36.75 5.88 38.37 5.88C40 5.88 41.31 4.57 41.31 2.94ZM41.31 20.53C41.31 18.91 39.99 17.59 38.37 17.59C36.75 17.59 35.43 18.91 35.43 20.53C35.43 22.15 36.75 23.47 38.37 23.47C40 23.47 41.31 22.16 41.31 20.53ZM41.31 38.12C41.31 36.5 39.99 35.18 38.37 35.18C36.75 35.18 35.43 36.5 35.43 38.12C35.43 39.74 36.75 41.06 38.37 41.06C40 41.07 41.31 39.75 41.31 38.12ZM41.31 55.72C41.31 54.1 39.99 52.78 38.37 52.78C36.75 52.78 35.43 54.1 35.43 55.72C35.43 57.34 36.75 58.66 38.37 58.66C40 58.66 41.31 57.34 41.31 55.72ZM41.31 73.31C41.31 71.69 39.99 70.37 38.37 70.37C36.75 70.37 35.43 71.69 35.43 73.31C35.43 74.93 36.75 76.25 38.37 76.25C40 76.25 41.31 74.93 41.31 73.31ZM23.72 2.94C23.72 1.32 22.4 0 20.78 0C19.16 0 17.84 1.32 17.84 2.94C17.84 4.56 19.16 5.88 20.78 5.88C22.41 5.88 23.72 4.57 23.72 2.94ZM23.72 20.53C23.72 18.91 22.4 17.59 20.78 17.59C19.16 17.59 17.84 18.91 17.84 20.53C17.84 22.15 19.16 23.47 20.78 23.47C22.41 23.47 23.72 22.16 23.72 20.53ZM23.72 38.12C23.72 36.5 22.4 35.18 20.78 35.18C19.16 35.18 17.84 36.5 17.84 38.12C17.84 39.74 19.16 41.06 20.78 41.06C22.41 41.07 23.72 39.75 23.72 38.12ZM23.72 55.72C23.72 54.1 22.4 52.78 20.78 52.78C19.16 52.78 17.84 54.1 17.84 55.72C17.84 57.34 19.16 58.66 20.78 58.66C22.41 58.66 23.72 57.34 23.72 55.72ZM23.72 73.31C23.72 71.69 22.4 70.37 20.78 70.37C19.16 70.37 17.84 71.69 17.84 73.31C17.84 74.93 19.16 76.25 20.78 76.25C22.41 76.25 23.72 74.93 23.72 73.31ZM6.13 2.94C6.13 1.32 4.81 0 3.19 0C1.57 0 0.25 1.32 0.25 2.94C0.25 4.56 1.57 5.88 3.19 5.88C4.81 5.88 6.13 4.57 6.13 2.94ZM6.13 20.53C6.13 18.91 4.81 17.59 3.19 17.59C1.57 17.59 0.25 18.91 0.25 20.53C0.25 22.15 1.57 23.47 3.19 23.47C4.81 23.47 6.13 22.16 6.13 20.53ZM6.13 38.12C6.13 36.5 4.81 35.18 3.19 35.18C1.57 35.18 0.25 36.5 0.25 38.12C0.25 39.74 1.57 41.06 3.19 41.06C4.81 41.06 6.13 39.75 6.13 38.12ZM6.13 55.72C6.13 54.1 4.81 52.78 3.19 52.78C1.57 52.78 0.25 54.1 0.25 55.72C0.25 57.34 1.57 58.66 3.19 58.66C4.81 58.66 6.13 57.34 6.13 55.72ZM6.13 73.31C6.13 71.69 4.81 70.37 3.19 70.37C1.57 70.37 0.25 71.69 0.25 73.31C0.25 74.93 1.57 76.25 3.19 76.25C4.81 76.25 6.13 74.93 6.13 73.31Z" fill="#D1E0FA"/>
<path d="M73.56 94.13C71.94 94.13 70.62 92.81 70.62 91.19C70.62 89.57 71.94 88.25 73.56 88.25C75.18 88.25 76.5 89.57 76.5 91.19C76.5 92.82 75.18 94.13 73.56 94.13ZM76.5 108.78C76.5 107.16 75.18 105.84 73.56 105.84C71.94 105.84 70.62 107.16 70.62 108.78C70.62 110.4 71.94 111.72 73.56 111.72C75.18 111.72 76.5 110.41 76.5 108.78ZM76.5 126.37C76.5 124.75 75.18 123.43 73.56 123.43C71.94 123.43 70.62 124.75 70.62 126.37C70.62 127.99 71.94 129.31 73.56 129.31C75.18 129.32 76.5 128 76.5 126.37ZM76.5 143.97C76.5 142.35 75.18 141.03 73.56 141.03C71.94 141.03 70.62 142.35 70.62 143.97C70.62 145.59 71.94 146.91 73.56 146.91C75.18 146.91 76.5 145.59 76.5 143.97ZM76.5 161.56C76.5 159.94 75.18 158.62 73.56 158.62C71.94 158.62 70.62 159.94 70.62 161.56C70.62 163.18 71.94 164.5 73.56 164.5C75.18 164.5 76.5 163.18 76.5 161.56ZM58.91 91.19C58.91 89.57 57.59 88.25 55.97 88.25C54.35 88.25 53.03 89.57 53.03 91.19C53.03 92.81 54.35 94.13 55.97 94.13C57.59 94.13 58.91 92.82 58.91 91.19ZM58.91 108.78C58.91 107.16 57.59 105.84 55.97 105.84C54.35 105.84 53.03 107.16 53.03 108.78C53.03 110.4 54.35 111.72 55.97 111.72C57.59 111.72 58.91 110.41 58.91 108.78ZM58.91 126.37C58.91 124.75 57.59 123.43 55.97 123.43C54.35 123.43 53.03 124.75 53.03 126.37C53.03 127.99 54.35 129.31 55.97 129.31C57.59 129.32 58.91 128 58.91 126.37ZM58.91 143.97C58.91 142.35 57.59 141.03 55.97 141.03C54.35 141.03 53.03 142.35 53.03 143.97C53.03 145.59 54.35 146.91 55.97 146.91C57.59 146.91 58.91 145.59 58.91 143.97ZM58.91 161.56C58.91 159.94 57.59 158.62 55.97 158.62C54.35 158.62 53.03 159.94 53.03 161.56C53.03 163.18 54.35 164.5 55.97 164.5C57.59 164.5 58.91 163.18 58.91 161.56ZM41.31 91.19C41.31 89.57 39.99 88.25 38.37 88.25C36.75 88.25 35.43 89.57 35.43 91.19C35.43 92.81 36.75 94.13 38.37 94.13C40 94.13 41.31 92.82 41.31 91.19ZM41.31 108.78C41.31 107.16 39.99 105.84 38.37 105.84C36.75 105.84 35.43 107.16 35.43 108.78C35.43 110.4 36.75 111.72 38.37 111.72C40 111.72 41.31 110.41 41.31 108.78ZM41.31 126.37C41.31 124.75 39.99 123.43 38.37 123.43C36.75 123.43 35.43 124.75 35.43 126.37C35.43 127.99 36.75 129.31 38.37 129.31C40 129.32 41.31 128 41.31 126.37ZM41.31 143.97C41.31 142.35 39.99 141.03 38.37 141.03C36.75 141.03 35.43 142.35 35.43 143.97C35.43 145.59 36.75 146.91 38.37 146.91C40 146.91 41.31 145.59 41.31 143.97ZM41.31 161.56C41.31 159.94 39.99 158.62 38.37 158.62C36.75 158.62 35.43 159.94 35.43 161.56C35.43 163.18 36.75 164.5 38.37 164.5C40 164.5 41.31 163.18 41.31 161.56ZM23.72 91.19C23.72 89.57 22.4 88.25 20.78 88.25C19.16 88.25 17.84 89.57 17.84 91.19C17.84 92.81 19.16 94.13 20.78 94.13C22.41 94.13 23.72 92.82 23.72 91.19ZM23.72 108.78C23.72 107.16 22.4 105.84 20.78 105.84C19.16 105.84 17.84 107.16 17.84 108.78C17.84 110.4 19.16 111.72 20.78 111.72C22.41 111.72 23.72 110.41 23.72 108.78ZM23.72 126.37C23.72 124.75 22.4 123.43 20.78 123.43C19.16 123.43 17.84 124.75 17.84 126.37C17.84 127.99 19.16 129.31 20.78 129.31C22.41 129.32 23.72 128 23.72 126.37ZM23.72 143.97C23.72 142.35 22.4 141.03 20.78 141.03C19.16 141.03 17.84 142.35 17.84 143.97C17.84 145.59 19.16 146.91 20.78 146.91C22.41 146.91 23.72 145.59 23.72 143.97ZM23.72 161.56C23.72 159.94 22.4 158.62 20.78 158.62C19.16 158.62 17.84 159.94 17.84 161.56C17.84 163.18 19.16 164.5 20.78 164.5C22.41 164.5 23.72 163.18 23.72 161.56ZM6.13 91.19C6.13 89.57 4.81 88.25 3.19 88.25C1.57 88.25 0.25 89.57 0.25 91.19C0.25 92.81 1.57 94.13 3.19 94.13C4.81 94.13 6.13 92.82 6.13 91.19ZM6.13 108.78C6.13 107.16 4.81 105.84 3.19 105.84C1.57 105.84 0.25 107.16 0.25 108.78C0.25 110.4 1.57 111.72 3.19 111.72C4.81 111.72 6.13 110.41 6.13 108.78ZM6.13 126.37C6.13 124.75 4.81 123.43 3.19 123.43C1.57 123.43 0.25 124.75 0.25 126.37C0.25 127.99 1.57 129.31 3.19 129.31C4.81 129.31 6.13 128 6.13 126.37ZM6.13 143.97C6.13 142.35 4.81 141.03 3.19 141.03C1.57 141.03 0.25 142.35 0.25 143.97C0.25 145.59 1.57 146.91 3.19 146.91C4.81 146.91 6.13 145.59 6.13 143.97ZM6.13 161.56C6.13 159.94 4.81 158.62 3.19 158.62C1.57 158.62 0.25 159.94 0.25 161.56C0.25 163.18 1.57 164.5 3.19 164.5C4.81 164.5 6.13 163.18 6.13 161.56Z" fill="#D1E0FA"/>
<path d="M73.56 182.38C71.94 182.38 70.62 181.06 70.62 179.44C70.62 177.82 71.94 176.5 73.56 176.5C75.18 176.5 76.5 177.82 76.5 179.44C76.5 181.07 75.18 182.38 73.56 182.38ZM76.5 197.03C76.5 195.41 75.18 194.09 73.56 194.09C71.94 194.09 70.62 195.41 70.62 197.03C70.62 198.65 71.94 199.97 73.56 199.97C75.18 199.97 76.5 198.66 76.5 197.03ZM76.5 214.62C76.5 213 75.18 211.68 73.56 211.68C71.94 211.68 70.62 213 70.62 214.62C70.62 216.24 71.94 217.56 73.56 217.56C75.18 217.57 76.5 216.25 76.5 214.62ZM76.5 232.22C76.5 230.6 75.18 229.28 73.56 229.28C71.94 229.28 70.62 230.6 70.62 232.22C70.62 233.84 71.94 235.16 73.56 235.16C75.18 235.16 76.5 233.84 76.5 232.22ZM76.5 249.81C76.5 248.19 75.18 246.87 73.56 246.87C71.94 246.87 70.62 248.19 70.62 249.81C70.62 251.43 71.94 252.75 73.56 252.75C75.18 252.75 76.5 251.43 76.5 249.81ZM58.91 179.44C58.91 177.82 57.59 176.5 55.97 176.5C54.35 176.5 53.03 177.82 53.03 179.44C53.03 181.06 54.35 182.38 55.97 182.38C57.59 182.38 58.91 181.07 58.91 179.44ZM58.91 197.03C58.91 195.41 57.59 194.09 55.97 194.09C54.35 194.09 53.03 195.41 53.03 197.03C53.03 198.65 54.35 199.97 55.97 199.97C57.59 199.97 58.91 198.66 58.91 197.03ZM58.91 214.62C58.91 213 57.59 211.68 55.97 211.68C54.35 211.68 53.03 213 53.03 214.62C53.03 216.24 54.35 217.56 55.97 217.56C57.59 217.57 58.91 216.25 58.91 214.62ZM58.91 232.22C58.91 230.6 57.59 229.28 55.97 229.28C54.35 229.28 53.03 230.6 53.03 232.22C53.03 233.84 54.35 235.16 55.97 235.16C57.59 235.16 58.91 233.84 58.91 232.22ZM58.91 249.81C58.91 248.19 57.59 246.87 55.97 246.87C54.35 246.87 53.03 248.19 53.03 249.81C53.03 251.43 54.35 252.75 55.97 252.75C57.59 252.75 58.91 251.43 58.91 249.81ZM41.31 179.44C41.31 177.82 39.99 176.5 38.37 176.5C36.75 176.5 35.43 177.82 35.43 179.44C35.43 181.06 36.75 182.38 38.37 182.38C40 182.38 41.31 181.07 41.31 179.44ZM41.31 197.03C41.31 195.41 39.99 194.09 38.37 194.09C36.75 194.09 35.43 195.41 35.43 197.03C35.43 198.65 36.75 199.97 38.37 199.97C40 199.97 41.31 198.66 41.31 197.03ZM41.31 214.62C41.31 213 39.99 211.68 38.37 211.68C36.75 211.68 35.43 213 35.43 214.62C35.43 216.24 36.75 217.56 38.37 217.56C40 217.57 41.31 216.25 41.31 214.62ZM41.31 232.22C41.31 230.6 39.99 229.28 38.37 229.28C36.75 229.28 35.43 230.6 35.43 232.22C35.43 233.84 36.75 235.16 38.37 235.16C40 235.16 41.31 233.84 41.31 232.22ZM41.31 249.81C41.31 248.19 39.99 246.87 38.37 246.87C36.75 246.87 35.43 248.19 35.43 249.81C35.43 251.43 36.75 252.75 38.37 252.75C40 252.75 41.31 251.43 41.31 249.81ZM23.72 179.44C23.72 177.82 22.4 176.5 20.78 176.5C19.16 176.5 17.84 177.82 17.84 179.44C17.84 181.06 19.16 182.38 20.78 182.38C22.41 182.38 23.72 181.07 23.72 179.44ZM23.72 197.03C23.72 195.41 22.4 194.09 20.78 194.09C19.16 194.09 17.84 195.41 17.84 197.03C17.84 198.65 19.16 199.97 20.78 199.97C22.41 199.97 23.72 198.66 23.72 197.03ZM23.72 214.62C23.72 213 22.4 211.68 20.78 211.68C19.16 211.68 17.84 213 17.84 214.62C17.84 216.24 19.16 217.56 20.78 217.56C22.41 217.57 23.72 216.25 23.72 214.62ZM23.72 232.22C23.72 230.6 22.4 229.28 20.78 229.28C19.16 229.28 17.84 230.6 17.84 232.22C17.84 233.84 19.16 235.16 20.78 235.16C22.41 235.16 23.72 233.84 23.72 232.22ZM23.72 249.81C23.72 248.19 22.4 246.87 20.78 246.87C19.16 246.87 17.84 248.19 17.84 249.81C17.84 251.43 19.16 252.75 20.78 252.75C22.41 252.75 23.72 251.43 23.72 249.81ZM6.13 179.44C6.13 177.82 4.81 176.5 3.19 176.5C1.57 176.5 0.25 177.82 0.25 179.44C0.25 181.06 1.57 182.38 3.19 182.38C4.81 182.38 6.13 181.07 6.13 179.44ZM6.13 197.03C6.13 195.41 4.81 194.09 3.19 194.09C1.57 194.09 0.25 195.41 0.25 197.03C0.25 198.65 1.57 199.97 3.19 199.97C4.81 199.97 6.13 198.66 6.13 197.03ZM6.13 214.62C6.13 213 4.81 211.68 3.19 211.68C1.57 211.68 0.25 213 0.25 214.62C0.25 216.24 1.57 217.56 3.19 217.56C4.81 217.56 6.13 216.25 6.13 214.62ZM6.13 232.22C6.13 230.6 4.81 229.28 3.19 229.28C1.57 229.28 0.25 230.6 0.25 232.22C0.25 233.84 1.57 235.16 3.19 235.16C4.81 235.16 6.13 233.84 6.13 232.22ZM6.13 249.81C6.13 248.19 4.81 246.87 3.19 246.87C1.57 246.87 0.25 248.19 0.25 249.81C0.25 251.43 1.57 252.75 3.19 252.75C4.81 252.75 6.13 251.43 6.13 249.81Z" fill="#D1E0FA"/>
<path d="M73.56 270.63C71.94 270.63 70.62 269.31 70.62 267.69C70.62 266.07 71.94 264.75 73.56 264.75C75.18 264.75 76.5 266.07 76.5 267.69C76.5 269.32 75.18 270.63 73.56 270.63ZM76.5 285.28C76.5 283.66 75.18 282.34 73.56 282.34C71.94 282.34 70.62 283.66 70.62 285.28C70.62 286.9 71.94 288.22 73.56 288.22C75.18 288.22 76.5 286.91 76.5 285.28ZM76.5 302.87C76.5 301.25 75.18 299.93 73.56 299.93C71.94 299.93 70.62 301.25 70.62 302.87C70.62 304.49 71.94 305.81 73.56 305.81C75.18 305.82 76.5 304.5 76.5 302.87ZM76.5 320.47C76.5 318.85 75.18 317.53 73.56 317.53C71.94 317.53 70.62 318.85 70.62 320.47C70.62 322.09 71.94 323.41 73.56 323.41C75.18 323.41 76.5 322.09 76.5 320.47ZM76.5 338.06C76.5 336.44 75.18 335.12 73.56 335.12C71.94 335.12 70.62 336.44 70.62 338.06C70.62 339.68 71.94 341 73.56 341C75.18 341 76.5 339.68 76.5 338.06ZM58.91 267.69C58.91 266.07 57.59 264.75 55.97 264.75C54.35 264.75 53.03 266.07 53.03 267.69C53.03 269.31 54.35 270.63 55.97 270.63C57.59 270.63 58.91 269.32 58.91 267.69ZM58.91 285.28C58.91 283.66 57.59 282.34 55.97 282.34C54.35 282.34 53.03 283.66 53.03 285.28C53.03 286.9 54.35 288.22 55.97 288.22C57.59 288.22 58.91 286.91 58.91 285.28ZM58.91 302.87C58.91 301.25 57.59 299.93 55.97 299.93C54.35 299.93 53.03 301.25 53.03 302.87C53.03 304.49 54.35 305.81 55.97 305.81C57.59 305.82 58.91 304.5 58.91 302.87ZM58.91 320.47C58.91 318.85 57.59 317.53 55.97 317.53C54.35 317.53 53.03 318.85 53.03 320.47C53.03 322.09 54.35 323.41 55.97 323.41C57.59 323.41 58.91 322.09 58.91 320.47ZM58.91 338.06C58.91 336.44 57.59 335.12 55.97 335.12C54.35 335.12 53.03 336.44 53.03 338.06C53.03 339.68 54.35 341 55.97 341C57.59 341 58.91 339.68 58.91 338.06ZM41.31 267.69C41.31 266.07 39.99 264.75 38.37 264.75C36.75 264.75 35.43 266.07 35.43 267.69C35.43 269.31 36.75 270.63 38.37 270.63C40 270.63 41.31 269.32 41.31 267.69ZM41.31 285.28C41.31 283.66 39.99 282.34 38.37 282.34C36.75 282.34 35.43 283.66 35.43 285.28C35.43 286.9 36.75 288.22 38.37 288.22C40 288.22 41.31 286.91 41.31 285.28ZM41.31 302.87C41.31 301.25 39.99 299.93 38.37 299.93C36.75 299.93 35.43 301.25 35.43 302.87C35.43 304.49 36.75 305.81 38.37 305.81C40 305.82 41.31 304.5 41.31 302.87ZM41.31 320.47C41.31 318.85 39.99 317.53 38.37 317.53C36.75 317.53 35.43 318.85 35.43 320.47C35.43 322.09 36.75 323.41 38.37 323.41C40 323.41 41.31 322.09 41.31 320.47ZM41.31 338.06C41.31 336.44 39.99 335.12 38.37 335.12C36.75 335.12 35.43 336.44 35.43 338.06C35.43 339.68 36.75 341 38.37 341C40 341 41.31 339.68 41.31 338.06ZM23.72 267.69C23.72 266.07 22.4 264.75 20.78 264.75C19.16 264.75 17.84 266.07 17.84 267.69C17.84 269.31 19.16 270.63 20.78 270.63C22.41 270.63 23.72 269.32 23.72 267.69ZM23.72 285.28C23.72 283.66 22.4 282.34 20.78 282.34C19.16 282.34 17.84 283.66 17.84 285.28C17.84 286.9 19.16 288.22 20.78 288.22C22.41 288.22 23.72 286.91 23.72 285.28ZM23.72 302.87C23.72 301.25 22.4 299.93 20.78 299.93C19.16 299.93 17.84 301.25 17.84 302.87C17.84 304.49 19.16 305.81 20.78 305.81C22.41 305.82 23.72 304.5 23.72 302.87ZM23.72 320.47C23.72 318.85 22.4 317.53 20.78 317.53C19.16 317.53 17.84 318.85 17.84 320.47C17.84 322.09 19.16 323.41 20.78 323.41C22.41 323.41 23.72 322.09 23.72 320.47ZM23.72 338.06C23.72 336.44 22.4 335.12 20.78 335.12C19.16 335.12 17.84 336.44 17.84 338.06C17.84 339.68 19.16 341 20.78 341C22.41 341 23.72 339.68 23.72 338.06ZM6.13 267.69C6.13 266.07 4.81 264.75 3.19 264.75C1.57 264.75 0.25 266.07 0.25 267.69C0.25 269.31 1.57 270.63 3.19 270.63C4.81 270.63 6.13 269.32 6.13 267.69ZM6.13 285.28C6.13 283.66 4.81 282.34 3.19 282.34C1.57 282.34 0.25 283.66 0.25 285.28C0.25 286.9 1.57 288.22 3.19 288.22C4.81 288.22 6.13 286.91 6.13 285.28ZM6.13 302.87C6.13 301.25 4.81 299.93 3.19 299.93C1.57 299.93 0.25 301.25 0.25 302.87C0.25 304.49 1.57 305.81 3.19 305.81C4.81 305.81 6.13 304.5 6.13 302.87ZM6.13 320.47C6.13 318.85 4.81 317.53 3.19 317.53C1.57 317.53 0.25 318.85 0.25 320.47C0.25 322.09 1.57 323.41 3.19 323.41C4.81 323.41 6.13 322.09 6.13 320.47ZM6.13 338.06C6.13 336.44 4.81 335.12 3.19 335.12C1.57 335.12 0.25 336.44 0.25 338.06C0.25 339.68 1.57 341 3.19 341C4.81 341 6.13 339.68 6.13 338.06Z" fill="#D1E0FA"/>
<path d="M73.56 358.88C71.94 358.88 70.62 357.56 70.62 355.94C70.62 354.32 71.94 353 73.56 353C75.18 353 76.5 354.32 76.5 355.94C76.5 357.57 75.18 358.88 73.56 358.88ZM76.5 373.53C76.5 371.91 75.18 370.59 73.56 370.59C71.94 370.59 70.62 371.91 70.62 373.53C70.62 375.15 71.94 376.47 73.56 376.47C75.18 376.47 76.5 375.16 76.5 373.53ZM76.5 391.12C76.5 389.5 75.18 388.18 73.56 388.18C71.94 388.18 70.62 389.5 70.62 391.12C70.62 392.74 71.94 394.06 73.56 394.06C75.18 394.07 76.5 392.75 76.5 391.12ZM76.5 408.72C76.5 407.1 75.18 405.78 73.56 405.78C71.94 405.78 70.62 407.1 70.62 408.72C70.62 410.34 71.94 411.66 73.56 411.66C75.18 411.66 76.5 410.34 76.5 408.72ZM76.5 426.31C76.5 424.69 75.18 423.37 73.56 423.37C71.94 423.37 70.62 424.69 70.62 426.31C70.62 427.93 71.94 429.25 73.56 429.25C75.18 429.25 76.5 427.93 76.5 426.31ZM58.91 355.94C58.91 354.32 57.59 353 55.97 353C54.35 353 53.03 354.32 53.03 355.94C53.03 357.56 54.35 358.88 55.97 358.88C57.59 358.88 58.91 357.57 58.91 355.94ZM58.91 373.53C58.91 371.91 57.59 370.59 55.97 370.59C54.35 370.59 53.03 371.91 53.03 373.53C53.03 375.15 54.35 376.47 55.97 376.47C57.59 376.47 58.91 375.16 58.91 373.53ZM58.91 391.12C58.91 389.5 57.59 388.18 55.97 388.18C54.35 388.18 53.03 389.5 53.03 391.12C53.03 392.74 54.35 394.06 55.97 394.06C57.59 394.07 58.91 392.75 58.91 391.12ZM58.91 408.72C58.91 407.1 57.59 405.78 55.97 405.78C54.35 405.78 53.03 407.1 53.03 408.72C53.03 410.34 54.35 411.66 55.97 411.66C57.59 411.66 58.91 410.34 58.91 408.72ZM58.91 426.31C58.91 424.69 57.59 423.37 55.97 423.37C54.35 423.37 53.03 424.69 53.03 426.31C53.03 427.93 54.35 429.25 55.97 429.25C57.59 429.25 58.91 427.93 58.91 426.31ZM41.31 355.94C41.31 354.32 39.99 353 38.37 353C36.75 353 35.43 354.32 35.43 355.94C35.43 357.56 36.75 358.88 38.37 358.88C40 358.88 41.31 357.57 41.31 355.94ZM41.31 373.53C41.31 371.91 39.99 370.59 38.37 370.59C36.75 370.59 35.43 371.91 35.43 373.53C35.43 375.15 36.75 376.47 38.37 376.47C40 376.47 41.31 375.16 41.31 373.53ZM41.31 391.12C41.31 389.5 39.99 388.18 38.37 388.18C36.75 388.18 35.43 389.5 35.43 391.12C35.43 392.74 36.75 394.06 38.37 394.06C40 394.07 41.31 392.75 41.31 391.12ZM41.31 408.72C41.31 407.1 39.99 405.78 38.37 405.78C36.75 405.78 35.43 407.1 35.43 408.72C35.43 410.34 36.75 411.66 38.37 411.66C40 411.66 41.31 410.34 41.31 408.72ZM41.31 426.31C41.31 424.69 39.99 423.37 38.37 423.37C36.75 423.37 35.43 424.69 35.43 426.31C35.43 427.93 36.75 429.25 38.37 429.25C40 429.25 41.31 427.93 41.31 426.31ZM23.72 355.94C23.72 354.32 22.4 353 20.78 353C19.16 353 17.84 354.32 17.84 355.94C17.84 357.56 19.16 358.88 20.78 358.88C22.41 358.88 23.72 357.57 23.72 355.94ZM23.72 373.53C23.72 371.91 22.4 370.59 20.78 370.59C19.16 370.59 17.84 371.91 17.84 373.53C17.84 375.15 19.16 376.47 20.78 376.47C22.41 376.47 23.72 375.16 23.72 373.53ZM23.72 391.12C23.72 389.5 22.4 388.18 20.78 388.18C19.16 388.18 17.84 389.5 17.84 391.12C17.84 392.74 19.16 394.06 20.78 394.06C22.41 394.07 23.72 392.75 23.72 391.12ZM23.72 408.72C23.72 407.1 22.4 405.78 20.78 405.78C19.16 405.78 17.84 407.1 17.84 408.72C17.84 410.34 19.16 411.66 20.78 411.66C22.41 411.66 23.72 410.34 23.72 408.72ZM23.72 426.31C23.72 424.69 22.4 423.37 20.78 423.37C19.16 423.37 17.84 424.69 17.84 426.31C17.84 427.93 19.16 429.25 20.78 429.25C22.41 429.25 23.72 427.93 23.72 426.31ZM6.13 355.94C6.13 354.32 4.81 353 3.19 353C1.57 353 0.25 354.32 0.25 355.94C0.25 357.56 1.57 358.88 3.19 358.88C4.81 358.88 6.13 357.57 6.13 355.94ZM6.13 373.53C6.13 371.91 4.81 370.59 3.19 370.59C1.57 370.59 0.25 371.91 0.25 373.53C0.25 375.15 1.57 376.47 3.19 376.47C4.81 376.47 6.13 375.16 6.13 373.53ZM6.13 391.12C6.13 389.5 4.81 388.18 3.19 388.18C1.57 388.18 0.25 389.5 0.25 391.12C0.25 392.74 1.57 394.06 3.19 394.06C4.81 394.06 6.13 392.75 6.13 391.12ZM6.13 408.72C6.13 407.1 4.81 405.78 3.19 405.78C1.57 405.78 0.25 407.1 0.25 408.72C0.25 410.34 1.57 411.66 3.19 411.66C4.81 411.66 6.13 410.34 6.13 408.72ZM6.13 426.31C6.13 424.69 4.81 423.37 3.19 423.37C1.57 423.37 0.25 424.69 0.25 426.31C0.25 427.93 1.57 429.25 3.19 429.25C4.81 429.25 6.13 427.93 6.13 426.31Z" fill="#D1E0FA"/>
<path d="M161.81 5.88C160.19 5.88 158.87 4.56 158.87 2.94C158.87 1.32 160.19 0 161.81 0C163.43 0 164.75 1.32 164.75 2.94C164.75 4.57 163.43 5.88 161.81 5.88ZM164.75 20.53C164.75 18.91 163.43 17.59 161.81 17.59C160.19 17.59 158.87 18.91 158.87 20.53C158.87 22.15 160.19 23.47 161.81 23.47C163.43 23.47 164.75 22.16 164.75 20.53ZM164.75 38.12C164.75 36.5 163.43 35.18 161.81 35.18C160.19 35.18 158.87 36.5 158.87 38.12C158.87 39.74 160.19 41.06 161.81 41.06C163.43 41.07 164.75 39.75 164.75 38.12ZM164.75 55.72C164.75 54.1 163.43 52.78 161.81 52.78C160.19 52.78 158.87 54.1 158.87 55.72C158.87 57.34 160.19 58.66 161.81 58.66C163.43 58.66 164.75 57.34 164.75 55.72ZM164.75 73.31C164.75 71.69 163.43 70.37 161.81 70.37C160.19 70.37 158.87 71.69 158.87 73.31C158.87 74.93 160.19 76.25 161.81 76.25C163.43 76.25 164.75 74.93 164.75 73.31ZM147.16 2.94C147.16 1.32 145.84 0 144.22 0C142.6 0 141.28 1.32 141.28 2.94C141.28 4.56 142.6 5.88 144.22 5.88C145.84 5.88 147.16 4.57 147.16 2.94ZM147.16 20.53C147.16 18.91 145.84 17.59 144.22 17.59C142.6 17.59 141.28 18.91 141.28 20.53C141.28 22.15 142.6 23.47 144.22 23.47C145.84 23.47 147.16 22.16 147.16 20.53ZM147.16 38.12C147.16 36.5 145.84 35.18 144.22 35.18C142.6 35.18 141.28 36.5 141.28 38.12C141.28 39.74 142.6 41.06 144.22 41.06C145.84 41.07 147.16 39.75 147.16 38.12ZM147.16 55.72C147.16 54.1 145.84 52.78 144.22 52.78C142.6 52.78 141.28 54.1 141.28 55.72C141.28 57.34 142.6 58.66 144.22 58.66C145.84 58.66 147.16 57.34 147.16 55.72ZM147.16 73.31C147.16 71.69 145.84 70.37 144.22 70.37C142.6 70.37 141.28 71.69 141.28 73.31C141.28 74.93 142.6 76.25 144.22 76.25C145.84 76.25 147.16 74.93 147.16 73.31ZM129.56 2.94C129.56 1.32 128.24 0 126.62 0C125 0 123.68 1.32 123.68 2.94C123.68 4.56 125 5.88 126.62 5.88C128.25 5.88 129.56 4.57 129.56 2.94ZM129.56 20.53C129.56 18.91 128.24 17.59 126.62 17.59C125 17.59 123.68 18.91 123.68 20.53C123.68 22.15 125 23.47 126.62 23.47C128.25 23.47 129.56 22.16 129.56 20.53ZM129.56 38.12C129.56 36.5 128.24 35.18 126.62 35.18C125 35.18 123.68 36.5 123.68 38.12C123.68 39.74 125 41.06 126.62 41.06C128.25 41.07 129.56 39.75 129.56 38.12ZM129.56 55.72C129.56 54.1 128.24 52.78 126.62 52.78C125 52.78 123.68 54.1 123.68 55.72C123.68 57.34 125 58.66 126.62 58.66C128.25 58.66 129.56 57.34 129.56 55.72ZM129.56 73.31C129.56 71.69 128.24 70.37 126.62 70.37C125 70.37 123.68 71.69 123.68 73.31C123.68 74.93 125 76.25 126.62 76.25C128.25 76.25 129.56 74.93 129.56 73.31ZM111.97 2.94C111.97 1.32 110.65 0 109.03 0C107.41 0 106.09 1.32 106.09 2.94C106.09 4.56 107.41 5.88 109.03 5.88C110.66 5.88 111.97 4.57 111.97 2.94ZM111.97 20.53C111.97 18.91 110.65 17.59 109.03 17.59C107.41 17.59 106.09 18.91 106.09 20.53C106.09 22.15 107.41 23.47 109.03 23.47C110.66 23.47 111.97 22.16 111.97 20.53ZM111.97 38.12C111.97 36.5 110.65 35.18 109.03 35.18C107.41 35.18 106.09 36.5 106.09 38.12C106.09 39.74 107.41 41.06 109.03 41.06C110.66 41.07 111.97 39.75 111.97 38.12ZM111.97 55.72C111.97 54.1 110.65 52.78 109.03 52.78C107.41 52.78 106.09 54.1 106.09 55.72C106.09 57.34 107.41 58.66 109.03 58.66C110.66 58.66 111.97 57.34 111.97 55.72ZM111.97 73.31C111.97 71.69 110.65 70.37 109.03 70.37C107.41 70.37 106.09 71.69 106.09 73.31C106.09 74.93 107.41 76.25 109.03 76.25C110.66 76.25 111.97 74.93 111.97 73.31ZM94.38 2.94C94.38 1.32 93.06 0 91.44 0C89.82 0 88.5 1.32 88.5 2.94C88.5 4.56 89.82 5.88 91.44 5.88C93.06 5.88 94.38 4.57 94.38 2.94ZM94.38 20.53C94.38 18.91 93.06 17.59 91.44 17.59C89.82 17.59 88.5 18.91 88.5 20.53C88.5 22.15 89.82 23.47 91.44 23.47C93.06 23.47 94.38 22.16 94.38 20.53ZM94.38 38.12C94.38 36.5 93.06 35.18 91.44 35.18C89.82 35.18 88.5 36.5 88.5 38.12C88.5 39.74 89.82 41.06 91.44 41.06C93.06 41.06 94.38 39.75 94.38 38.12ZM94.38 55.72C94.38 54.1 93.06 52.78 91.44 52.78C89.82 52.78 88.5 54.1 88.5 55.72C88.5 57.34 89.82 58.66 91.44 58.66C93.06 58.66 94.38 57.34 94.38 55.72ZM94.38 73.31C94.38 71.69 93.06 70.37 91.44 70.37C89.82 70.37 88.5 71.69 88.5 73.31C88.5 74.93 89.82 76.25 91.44 76.25C93.06 76.25 94.38 74.93 94.38 73.31Z" fill="#D1E0FA"/>
<path d="M161.81 94.13C160.19 94.13 158.87 92.81 158.87 91.19C158.87 89.57 160.19 88.25 161.81 88.25C163.43 88.25 164.75 89.57 164.75 91.19C164.75 92.82 163.43 94.13 161.81 94.13ZM164.75 108.78C164.75 107.16 163.43 105.84 161.81 105.84C160.19 105.84 158.87 107.16 158.87 108.78C158.87 110.4 160.19 111.72 161.81 111.72C163.43 111.72 164.75 110.41 164.75 108.78ZM164.75 126.37C164.75 124.75 163.43 123.43 161.81 123.43C160.19 123.43 158.87 124.75 158.87 126.37C158.87 127.99 160.19 129.31 161.81 129.31C163.43 129.32 164.75 128 164.75 126.37ZM164.75 143.97C164.75 142.35 163.43 141.03 161.81 141.03C160.19 141.03 158.87 142.35 158.87 143.97C158.87 145.59 160.19 146.91 161.81 146.91C163.43 146.91 164.75 145.59 164.75 143.97ZM164.75 161.56C164.75 159.94 163.43 158.62 161.81 158.62C160.19 158.62 158.87 159.94 158.87 161.56C158.87 163.18 160.19 164.5 161.81 164.5C163.43 164.5 164.75 163.18 164.75 161.56ZM147.16 91.19C147.16 89.57 145.84 88.25 144.22 88.25C142.6 88.25 141.28 89.57 141.28 91.19C141.28 92.81 142.6 94.13 144.22 94.13C145.84 94.13 147.16 92.82 147.16 91.19ZM147.16 108.78C147.16 107.16 145.84 105.84 144.22 105.84C142.6 105.84 141.28 107.16 141.28 108.78C141.28 110.4 142.6 111.72 144.22 111.72C145.84 111.72 147.16 110.41 147.16 108.78ZM147.16 126.37C147.16 124.75 145.84 123.43 144.22 123.43C142.6 123.43 141.28 124.75 141.28 126.37C141.28 127.99 142.6 129.31 144.22 129.31C145.84 129.32 147.16 128 147.16 126.37ZM147.16 143.97C147.16 142.35 145.84 141.03 144.22 141.03C142.6 141.03 141.28 142.35 141.28 143.97C141.28 145.59 142.6 146.91 144.22 146.91C145.84 146.91 147.16 145.59 147.16 143.97ZM147.16 161.56C147.16 159.94 145.84 158.62 144.22 158.62C142.6 158.62 141.28 159.94 141.28 161.56C141.28 163.18 142.6 164.5 144.22 164.5C145.84 164.5 147.16 163.18 147.16 161.56ZM129.56 91.19C129.56 89.57 128.24 88.25 126.62 88.25C125 88.25 123.68 89.57 123.68 91.19C123.68 92.81 125 94.13 126.62 94.13C128.25 94.13 129.56 92.82 129.56 91.19ZM129.56 108.78C129.56 107.16 128.24 105.84 126.62 105.84C125 105.84 123.68 107.16 123.68 108.78C123.68 110.4 125 111.72 126.62 111.72C128.25 111.72 129.56 110.41 129.56 108.78ZM129.56 126.37C129.56 124.75 128.24 123.43 126.62 123.43C125 123.43 123.68 124.75 123.68 126.37C123.68 127.99 125 129.31 126.62 129.31C128.25 129.32 129.56 128 129.56 126.37ZM129.56 143.97C129.56 142.35 128.24 141.03 126.62 141.03C125 141.03 123.68 142.35 123.68 143.97C123.68 145.59 125 146.91 126.62 146.91C128.25 146.91 129.56 145.59 129.56 143.97ZM129.56 161.56C129.56 159.94 128.24 158.62 126.62 158.62C125 158.62 123.68 159.94 123.68 161.56C123.68 163.18 125 164.5 126.62 164.5C128.25 164.5 129.56 163.18 129.56 161.56ZM111.97 91.19C111.97 89.57 110.65 88.25 109.03 88.25C107.41 88.25 106.09 89.57 106.09 91.19C106.09 92.81 107.41 94.13 109.03 94.13C110.66 94.13 111.97 92.82 111.97 91.19ZM111.97 108.78C111.97 107.16 110.65 105.84 109.03 105.84C107.41 105.84 106.09 107.16 106.09 108.78C106.09 110.4 107.41 111.72 109.03 111.72C110.66 111.72 111.97 110.41 111.97 108.78ZM111.97 126.37C111.97 124.75 110.65 123.43 109.03 123.43C107.41 123.43 106.09 124.75 106.09 126.37C106.09 127.99 107.41 129.31 109.03 129.31C110.66 129.32 111.97 128 111.97 126.37ZM111.97 143.97C111.97 142.35 110.65 141.03 109.03 141.03C107.41 141.03 106.09 142.35 106.09 143.97C106.09 145.59 107.41 146.91 109.03 146.91C110.66 146.91 111.97 145.59 111.97 143.97ZM111.97 161.56C111.97 159.94 110.65 158.62 109.03 158.62C107.41 158.62 106.09 159.94 106.09 161.56C106.09 163.18 107.41 164.5 109.03 164.5C110.66 164.5 111.97 163.18 111.97 161.56ZM94.38 91.19C94.38 89.57 93.06 88.25 91.44 88.25C89.82 88.25 88.5 89.57 88.5 91.19C88.5 92.81 89.82 94.13 91.44 94.13C93.06 94.13 94.38 92.82 94.38 91.19ZM94.38 108.78C94.38 107.16 93.06 105.84 91.44 105.84C89.82 105.84 88.5 107.16 88.5 108.78C88.5 110.4 89.82 111.72 91.44 111.72C93.06 111.72 94.38 110.41 94.38 108.78ZM94.38 126.37C94.38 124.75 93.06 123.43 91.44 123.43C89.82 123.43 88.5 124.75 88.5 126.37C88.5 127.99 89.82 129.31 91.44 129.31C93.06 129.31 94.38 128 94.38 126.37ZM94.38 143.97C94.38 142.35 93.06 141.03 91.44 141.03C89.82 141.03 88.5 142.35 88.5 143.97C88.5 145.59 89.82 146.91 91.44 146.91C93.06 146.91 94.38 145.59 94.38 143.97ZM94.38 161.56C94.38 159.94 93.06 158.62 91.44 158.62C89.82 158.62 88.5 159.94 88.5 161.56C88.5 163.18 89.82 164.5 91.44 164.5C93.06 164.5 94.38 163.18 94.38 161.56Z" fill="#D1E0FA"/>
<path d="M161.81 182.38C160.19 182.38 158.87 181.06 158.87 179.44C158.87 177.82 160.19 176.5 161.81 176.5C163.43 176.5 164.75 177.82 164.75 179.44C164.75 181.07 163.43 182.38 161.81 182.38ZM164.75 197.03C164.75 195.41 163.43 194.09 161.81 194.09C160.19 194.09 158.87 195.41 158.87 197.03C158.87 198.65 160.19 199.97 161.81 199.97C163.43 199.97 164.75 198.66 164.75 197.03ZM164.75 214.62C164.75 213 163.43 211.68 161.81 211.68C160.19 211.68 158.87 213 158.87 214.62C158.87 216.24 160.19 217.56 161.81 217.56C163.43 217.57 164.75 216.25 164.75 214.62ZM164.75 232.22C164.75 230.6 163.43 229.28 161.81 229.28C160.19 229.28 158.87 230.6 158.87 232.22C158.87 233.84 160.19 235.16 161.81 235.16C163.43 235.16 164.75 233.84 164.75 232.22ZM164.75 249.81C164.75 248.19 163.43 246.87 161.81 246.87C160.19 246.87 158.87 248.19 158.87 249.81C158.87 251.43 160.19 252.75 161.81 252.75C163.43 252.75 164.75 251.43 164.75 249.81ZM147.16 179.44C147.16 177.82 145.84 176.5 144.22 176.5C142.6 176.5 141.28 177.82 141.28 179.44C141.28 181.06 142.6 182.38 144.22 182.38C145.84 182.38 147.16 181.07 147.16 179.44ZM147.16 197.03C147.16 195.41 145.84 194.09 144.22 194.09C142.6 194.09 141.28 195.41 141.28 197.03C141.28 198.65 142.6 199.97 144.22 199.97C145.84 199.97 147.16 198.66 147.16 197.03ZM147.16 214.62C147.16 213 145.84 211.68 144.22 211.68C142.6 211.68 141.28 213 141.28 214.62C141.28 216.24 142.6 217.56 144.22 217.56C145.84 217.57 147.16 216.25 147.16 214.62ZM147.16 232.22C147.16 230.6 145.84 229.28 144.22 229.28C142.6 229.28 141.28 230.6 141.28 232.22C141.28 233.84 142.6 235.16 144.22 235.16C145.84 235.16 147.16 233.84 147.16 232.22ZM147.16 249.81C147.16 248.19 145.84 246.87 144.22 246.87C142.6 246.87 141.28 248.19 141.28 249.81C141.28 251.43 142.6 252.75 144.22 252.75C145.84 252.75 147.16 251.43 147.16 249.81ZM129.56 179.44C129.56 177.82 128.24 176.5 126.62 176.5C125 176.5 123.68 177.82 123.68 179.44C123.68 181.06 125 182.38 126.62 182.38C128.25 182.38 129.56 181.07 129.56 179.44ZM129.56 197.03C129.56 195.41 128.24 194.09 126.62 194.09C125 194.09 123.68 195.41 123.68 197.03C123.68 198.65 125 199.97 126.62 199.97C128.25 199.97 129.56 198.66 129.56 197.03ZM129.56 214.62C129.56 213 128.24 211.68 126.62 211.68C125 211.68 123.68 213 123.68 214.62C123.68 216.24 125 217.56 126.62 217.56C128.25 217.57 129.56 216.25 129.56 214.62ZM129.56 232.22C129.56 230.6 128.24 229.28 126.62 229.28C125 229.28 123.68 230.6 123.68 232.22C123.68 233.84 125 235.16 126.62 235.16C128.25 235.16 129.56 233.84 129.56 232.22ZM129.56 249.81C129.56 248.19 128.24 246.87 126.62 246.87C125 246.87 123.68 248.19 123.68 249.81C123.68 251.43 125 252.75 126.62 252.75C128.25 252.75 129.56 251.43 129.56 249.81ZM111.97 179.44C111.97 177.82 110.65 176.5 109.03 176.5C107.41 176.5 106.09 177.82 106.09 179.44C106.09 181.06 107.41 182.38 109.03 182.38C110.66 182.38 111.97 181.07 111.97 179.44ZM111.97 197.03C111.97 195.41 110.65 194.09 109.03 194.09C107.41 194.09 106.09 195.41 106.09 197.03C106.09 198.65 107.41 199.97 109.03 199.97C110.66 199.97 111.97 198.66 111.97 197.03ZM111.97 214.62C111.97 213 110.65 211.68 109.03 211.68C107.41 211.68 106.09 213 106.09 214.62C106.09 216.24 107.41 217.56 109.03 217.56C110.66 217.57 111.97 216.25 111.97 214.62ZM111.97 232.22C111.97 230.6 110.65 229.28 109.03 229.28C107.41 229.28 106.09 230.6 106.09 232.22C106.09 233.84 107.41 235.16 109.03 235.16C110.66 235.16 111.97 233.84 111.97 232.22ZM111.97 249.81C111.97 248.19 110.65 246.87 109.03 246.87C107.41 246.87 106.09 248.19 106.09 249.81C106.09 251.43 107.41 252.75 109.03 252.75C110.66 252.75 111.97 251.43 111.97 249.81ZM94.38 179.44C94.38 177.82 93.06 176.5 91.44 176.5C89.82 176.5 88.5 177.82 88.5 179.44C88.5 181.06 89.82 182.38 91.44 182.38C93.06 182.38 94.38 181.07 94.38 179.44ZM94.38 197.03C94.38 195.41 93.06 194.09 91.44 194.09C89.82 194.09 88.5 195.41 88.5 197.03C88.5 198.65 89.82 199.97 91.44 199.97C93.06 199.97 94.38 198.66 94.38 197.03ZM94.38 214.62C94.38 213 93.06 211.68 91.44 211.68C89.82 211.68 88.5 213 88.5 214.62C88.5 216.24 89.82 217.56 91.44 217.56C93.06 217.56 94.38 216.25 94.38 214.62ZM94.38 232.22C94.38 230.6 93.06 229.28 91.44 229.28C89.82 229.28 88.5 230.6 88.5 232.22C88.5 233.84 89.82 235.16 91.44 235.16C93.06 235.16 94.38 233.84 94.38 232.22ZM94.38 249.81C94.38 248.19 93.06 246.87 91.44 246.87C89.82 246.87 88.5 248.19 88.5 249.81C88.5 251.43 89.82 252.75 91.44 252.75C93.06 252.75 94.38 251.43 94.38 249.81Z" fill="#D1E0FA"/>
<path d="M161.81 270.63C160.19 270.63 158.87 269.31 158.87 267.69C158.87 266.07 160.19 264.75 161.81 264.75C163.43 264.75 164.75 266.07 164.75 267.69C164.75 269.32 163.43 270.63 161.81 270.63ZM164.75 285.28C164.75 283.66 163.43 282.34 161.81 282.34C160.19 282.34 158.87 283.66 158.87 285.28C158.87 286.9 160.19 288.22 161.81 288.22C163.43 288.22 164.75 286.91 164.75 285.28ZM164.75 302.87C164.75 301.25 163.43 299.93 161.81 299.93C160.19 299.93 158.87 301.25 158.87 302.87C158.87 304.49 160.19 305.81 161.81 305.81C163.43 305.82 164.75 304.5 164.75 302.87ZM164.75 320.47C164.75 318.85 163.43 317.53 161.81 317.53C160.19 317.53 158.87 318.85 158.87 320.47C158.87 322.09 160.19 323.41 161.81 323.41C163.43 323.41 164.75 322.09 164.75 320.47ZM164.75 338.06C164.75 336.44 163.43 335.12 161.81 335.12C160.19 335.12 158.87 336.44 158.87 338.06C158.87 339.68 160.19 341 161.81 341C163.43 341 164.75 339.68 164.75 338.06ZM147.16 267.69C147.16 266.07 145.84 264.75 144.22 264.75C142.6 264.75 141.28 266.07 141.28 267.69C141.28 269.31 142.6 270.63 144.22 270.63C145.84 270.63 147.16 269.32 147.16 267.69ZM147.16 285.28C147.16 283.66 145.84 282.34 144.22 282.34C142.6 282.34 141.28 283.66 141.28 285.28C141.28 286.9 142.6 288.22 144.22 288.22C145.84 288.22 147.16 286.91 147.16 285.28ZM147.16 302.87C147.16 301.25 145.84 299.93 144.22 299.93C142.6 299.93 141.28 301.25 141.28 302.87C141.28 304.49 142.6 305.81 144.22 305.81C145.84 305.82 147.16 304.5 147.16 302.87ZM147.16 320.47C147.16 318.85 145.84 317.53 144.22 317.53C142.6 317.53 141.28 318.85 141.28 320.47C141.28 322.09 142.6 323.41 144.22 323.41C145.84 323.41 147.16 322.09 147.16 320.47ZM147.16 338.06C147.16 336.44 145.84 335.12 144.22 335.12C142.6 335.12 141.28 336.44 141.28 338.06C141.28 339.68 142.6 341 144.22 341C145.84 341 147.16 339.68 147.16 338.06ZM129.56 267.69C129.56 266.07 128.24 264.75 126.62 264.75C125 264.75 123.68 266.07 123.68 267.69C123.68 269.31 125 270.63 126.62 270.63C128.25 270.63 129.56 269.32 129.56 267.69ZM129.56 285.28C129.56 283.66 128.24 282.34 126.62 282.34C125 282.34 123.68 283.66 123.68 285.28C123.68 286.9 125 288.22 126.62 288.22C128.25 288.22 129.56 286.91 129.56 285.28ZM129.56 302.87C129.56 301.25 128.24 299.93 126.62 299.93C125 299.93 123.68 301.25 123.68 302.87C123.68 304.49 125 305.81 126.62 305.81C128.25 305.82 129.56 304.5 129.56 302.87ZM129.56 320.47C129.56 318.85 128.24 317.53 126.62 317.53C125 317.53 123.68 318.85 123.68 320.47C123.68 322.09 125 323.41 126.62 323.41C128.25 323.41 129.56 322.09 129.56 320.47ZM129.56 338.06C129.56 336.44 128.24 335.12 126.62 335.12C125 335.12 123.68 336.44 123.68 338.06C123.68 339.68 125 341 126.62 341C128.25 341 129.56 339.68 129.56 338.06ZM111.97 267.69C111.97 266.07 110.65 264.75 109.03 264.75C107.41 264.75 106.09 266.07 106.09 267.69C106.09 269.31 107.41 270.63 109.03 270.63C110.66 270.63 111.97 269.32 111.97 267.69ZM111.97 285.28C111.97 283.66 110.65 282.34 109.03 282.34C107.41 282.34 106.09 283.66 106.09 285.28C106.09 286.9 107.41 288.22 109.03 288.22C110.66 288.22 111.97 286.91 111.97 285.28ZM111.97 302.87C111.97 301.25 110.65 299.93 109.03 299.93C107.41 299.93 106.09 301.25 106.09 302.87C106.09 304.49 107.41 305.81 109.03 305.81C110.66 305.82 111.97 304.5 111.97 302.87ZM111.97 320.47C111.97 318.85 110.65 317.53 109.03 317.53C107.41 317.53 106.09 318.85 106.09 320.47C106.09 322.09 107.41 323.41 109.03 323.41C110.66 323.41 111.97 322.09 111.97 320.47ZM111.97 338.06C111.97 336.44 110.65 335.12 109.03 335.12C107.41 335.12 106.09 336.44 106.09 338.06C106.09 339.68 107.41 341 109.03 341C110.66 341 111.97 339.68 111.97 338.06ZM94.38 267.69C94.38 266.07 93.06 264.75 91.44 264.75C89.82 264.75 88.5 266.07 88.5 267.69C88.5 269.31 89.82 270.63 91.44 270.63C93.06 270.63 94.38 269.32 94.38 267.69ZM94.38 285.28C94.38 283.66 93.06 282.34 91.44 282.34C89.82 282.34 88.5 283.66 88.5 285.28C88.5 286.9 89.82 288.22 91.44 288.22C93.06 288.22 94.38 286.91 94.38 285.28ZM94.38 302.87C94.38 301.25 93.06 299.93 91.44 299.93C89.82 299.93 88.5 301.25 88.5 302.87C88.5 304.49 89.82 305.81 91.44 305.81C93.06 305.81 94.38 304.5 94.38 302.87ZM94.38 320.47C94.38 318.85 93.06 317.53 91.44 317.53C89.82 317.53 88.5 318.85 88.5 320.47C88.5 322.09 89.82 323.41 91.44 323.41C93.06 323.41 94.38 322.09 94.38 320.47ZM94.38 338.06C94.38 336.44 93.06 335.12 91.44 335.12C89.82 335.12 88.5 336.44 88.5 338.06C88.5 339.68 89.82 341 91.44 341C93.06 341 94.38 339.68 94.38 338.06Z" fill="#D1E0FA"/>
<path d="M161.81 358.88C160.19 358.88 158.87 357.56 158.87 355.94C158.87 354.32 160.19 353 161.81 353C163.43 353 164.75 354.32 164.75 355.94C164.75 357.57 163.43 358.88 161.81 358.88ZM164.75 373.53C164.75 371.91 163.43 370.59 161.81 370.59C160.19 370.59 158.87 371.91 158.87 373.53C158.87 375.15 160.19 376.47 161.81 376.47C163.43 376.47 164.75 375.16 164.75 373.53ZM164.75 391.12C164.75 389.5 163.43 388.18 161.81 388.18C160.19 388.18 158.87 389.5 158.87 391.12C158.87 392.74 160.19 394.06 161.81 394.06C163.43 394.07 164.75 392.75 164.75 391.12ZM164.75 408.72C164.75 407.1 163.43 405.78 161.81 405.78C160.19 405.78 158.87 407.1 158.87 408.72C158.87 410.34 160.19 411.66 161.81 411.66C163.43 411.66 164.75 410.34 164.75 408.72ZM164.75 426.31C164.75 424.69 163.43 423.37 161.81 423.37C160.19 423.37 158.87 424.69 158.87 426.31C158.87 427.93 160.19 429.25 161.81 429.25C163.43 429.25 164.75 427.93 164.75 426.31ZM147.16 355.94C147.16 354.32 145.84 353 144.22 353C142.6 353 141.28 354.32 141.28 355.94C141.28 357.56 142.6 358.88 144.22 358.88C145.84 358.88 147.16 357.57 147.16 355.94ZM147.16 373.53C147.16 371.91 145.84 370.59 144.22 370.59C142.6 370.59 141.28 371.91 141.28 373.53C141.28 375.15 142.6 376.47 144.22 376.47C145.84 376.47 147.16 375.16 147.16 373.53ZM147.16 391.12C147.16 389.5 145.84 388.18 144.22 388.18C142.6 388.18 141.28 389.5 141.28 391.12C141.28 392.74 142.6 394.06 144.22 394.06C145.84 394.07 147.16 392.75 147.16 391.12ZM147.16 408.72C147.16 407.1 145.84 405.78 144.22 405.78C142.6 405.78 141.28 407.1 141.28 408.72C141.28 410.34 142.6 411.66 144.22 411.66C145.84 411.66 147.16 410.34 147.16 408.72ZM147.16 426.31C147.16 424.69 145.84 423.37 144.22 423.37C142.6 423.37 141.28 424.69 141.28 426.31C141.28 427.93 142.6 429.25 144.22 429.25C145.84 429.25 147.16 427.93 147.16 426.31ZM129.56 355.94C129.56 354.32 128.24 353 126.62 353C125 353 123.68 354.32 123.68 355.94C123.68 357.56 125 358.88 126.62 358.88C128.25 358.88 129.56 357.57 129.56 355.94ZM129.56 373.53C129.56 371.91 128.24 370.59 126.62 370.59C125 370.59 123.68 371.91 123.68 373.53C123.68 375.15 125 376.47 126.62 376.47C128.25 376.47 129.56 375.16 129.56 373.53ZM129.56 391.12C129.56 389.5 128.24 388.18 126.62 388.18C125 388.18 123.68 389.5 123.68 391.12C123.68 392.74 125 394.06 126.62 394.06C128.25 394.07 129.56 392.75 129.56 391.12ZM129.56 408.72C129.56 407.1 128.24 405.78 126.62 405.78C125 405.78 123.68 407.1 123.68 408.72C123.68 410.34 125 411.66 126.62 411.66C128.25 411.66 129.56 410.34 129.56 408.72ZM129.56 426.31C129.56 424.69 128.24 423.37 126.62 423.37C125 423.37 123.68 424.69 123.68 426.31C123.68 427.93 125 429.25 126.62 429.25C128.25 429.25 129.56 427.93 129.56 426.31ZM111.97 355.94C111.97 354.32 110.65 353 109.03 353C107.41 353 106.09 354.32 106.09 355.94C106.09 357.56 107.41 358.88 109.03 358.88C110.66 358.88 111.97 357.57 111.97 355.94ZM111.97 373.53C111.97 371.91 110.65 370.59 109.03 370.59C107.41 370.59 106.09 371.91 106.09 373.53C106.09 375.15 107.41 376.47 109.03 376.47C110.66 376.47 111.97 375.16 111.97 373.53ZM111.97 391.12C111.97 389.5 110.65 388.18 109.03 388.18C107.41 388.18 106.09 389.5 106.09 391.12C106.09 392.74 107.41 394.06 109.03 394.06C110.66 394.07 111.97 392.75 111.97 391.12ZM111.97 408.72C111.97 407.1 110.65 405.78 109.03 405.78C107.41 405.78 106.09 407.1 106.09 408.72C106.09 410.34 107.41 411.66 109.03 411.66C110.66 411.66 111.97 410.34 111.97 408.72ZM111.97 426.31C111.97 424.69 110.65 423.37 109.03 423.37C107.41 423.37 106.09 424.69 106.09 426.31C106.09 427.93 107.41 429.25 109.03 429.25C110.66 429.25 111.97 427.93 111.97 426.31ZM94.38 355.94C94.38 354.32 93.06 353 91.44 353C89.82 353 88.5 354.32 88.5 355.94C88.5 357.56 89.82 358.88 91.44 358.88C93.06 358.88 94.38 357.57 94.38 355.94ZM94.38 373.53C94.38 371.91 93.06 370.59 91.44 370.59C89.82 370.59 88.5 371.91 88.5 373.53C88.5 375.15 89.82 376.47 91.44 376.47C93.06 376.47 94.38 375.16 94.38 373.53ZM94.38 391.12C94.38 389.5 93.06 388.18 91.44 388.18C89.82 388.18 88.5 389.5 88.5 391.12C88.5 392.74 89.82 394.06 91.44 394.06C93.06 394.06 94.38 392.75 94.38 391.12ZM94.38 408.72C94.38 407.1 93.06 405.78 91.44 405.78C89.82 405.78 88.5 407.1 88.5 408.72C88.5 410.34 89.82 411.66 91.44 411.66C93.06 411.66 94.38 410.34 94.38 408.72ZM94.38 426.31C94.38 424.69 93.06 423.37 91.44 423.37C89.82 423.37 88.5 424.69 88.5 426.31C88.5 427.93 89.82 429.25 91.44 429.25C93.06 429.25 94.38 427.93 94.38 426.31Z" fill="#D1E0FA"/>
</svg>
