<svg width="24" height="24" viewBox="0 0 24 24" fill="none" xmlns="http://www.w3.org/2000/svg">
<path d="M20.2507 6H16.5V5.25C16.4993 4.65347 16.262 4.08156 15.8402 3.65975C15.4184 3.23794 14.8465 3.00067 14.25 3H9.74998C9.15345 3.00067 8.58154 3.23794 8.15973 3.65975C7.73792 4.08156 7.50065 4.65347 7.49998 5.25V6H3.75073C3.35304 6.00045 2.97177 6.15863 2.69057 6.43983C2.40936 6.72104 2.25118 7.10231 2.25073 7.5V19.5C2.25118 19.8977 2.40936 20.279 2.69057 20.5602C2.97177 20.8414 3.35304 20.9996 3.75073 21H20.2507C20.6484 20.9996 21.0297 20.8414 21.3109 20.5602C21.5921 20.279 21.7503 19.8977 21.7507 19.5V7.5C21.7503 7.10231 21.5921 6.72104 21.3109 6.43983C21.0297 6.15863 20.6484 6.00045 20.2507 6ZM8.99998 5.25C9.00023 5.05116 9.07933 4.86054 9.21993 4.71994C9.36053 4.57935 9.55115 4.50025 9.74998 4.5H14.25C14.4488 4.50025 14.6394 4.57935 14.78 4.71994C14.9206 4.86054 14.9997 5.05116 15 5.25V6H8.99998V5.25ZM15 7.5V19.5H8.99998V7.5H15ZM3.75073 7.5H7.49998V19.5H3.75073V7.5ZM20.2507 19.5H16.5V7.5H20.2507L20.2517 19.5H20.2507Z" fill="#52606D"/>
</svg>
